<?xml version="1.0" standalone="no"?>
<!DOCTYPE svg PUBLIC "-//W3C//DTD SVG 20010904//EN"
 "http://www.w3.org/TR/2001/REC-SVG-20010904/DTD/svg10.dtd">
<svg version="1.0" xmlns="http://www.w3.org/2000/svg"
 width="699.000000pt" height="699.000000pt" viewBox="0 0 699.000000 699.000000"
 preserveAspectRatio="xMidYMid meet">

<g transform="translate(0.000000,699.000000) scale(0.100000,-0.100000)"
fill="#000000" stroke="none">
<path d="M3001 5749 c-168 -44 -331 -154 -411 -279 -23 -35 -37 -49 -49 -46
-99 30 -273 35 -384 10 -120 -27 -242 -91 -316 -165 -51 -50 -37 -109 26 -109
10 0 38 18 63 40 107 96 266 146 435 136 147 -8 143 -6 138 -79 -4 -53 -2 -67
19 -97 80 -117 230 -100 269 31 19 63 -18 137 -88 173 -18 9 -33 19 -33 22 0
18 77 107 123 142 94 73 251 131 354 132 17 0 39 7 47 16 23 22 20 71 -3 84
-30 15 -107 11 -190 -11z m-321 -523 c0 -26 -21 -39 -45 -30 -18 7 -30 47 -21
69 9 25 66 -8 66 -39z"/>
<path d="M3865 5730 c-361 -30 -687 -168 -861 -363 -58 -65 -117 -167 -140
-241 -20 -67 -29 -227 -16 -296 6 -30 7 -58 4 -62 -4 -4 -25 -10 -47 -13 l-40
-7 -18 50 c-37 105 -128 199 -252 258 -92 45 -167 57 -295 51 -220 -11 -407
-115 -680 -381 -203 -198 -218 -222 -163 -266 38 -30 62 -20 130 52 205 218
406 378 541 428 152 57 318 53 443 -10 51 -26 117 -97 145 -155 13 -27 24 -55
24 -62 0 -6 -18 -17 -41 -25 -53 -18 -78 -56 -61 -93 17 -37 54 -48 100 -30
68 28 311 94 416 114 244 47 532 52 766 13 121 -21 362 -81 423 -107 20 -8 48
-15 62 -15 31 0 65 33 65 63 0 30 -23 51 -82 74 l-47 18 23 50 c64 139 214
213 406 202 156 -8 289 -71 469 -222 331 -276 693 -751 956 -1253 37 -71 37
-73 19 -94 -23 -26 -135 -108 -147 -108 -4 0 -20 14 -34 30 -13 17 -31 30 -38
30 -25 0 -27 20 -6 49 25 35 27 57 5 65 -36 14 -101 -87 -111 -173 -5 -41 -2
-51 22 -79 18 -22 36 -32 55 -32 38 0 156 61 232 120 49 38 66 46 75 37 6 -7
40 -79 74 -162 l62 -149 -39 -34 c-50 -44 -120 -92 -133 -92 -5 0 -12 9 -16
19 -3 11 -21 26 -40 36 -41 19 -42 23 -14 59 25 31 22 60 -7 64 -23 3 -44 -23
-81 -101 -31 -66 -30 -117 3 -156 16 -19 35 -31 51 -31 32 0 154 61 220 111
29 22 59 42 66 45 22 8 102 -273 128 -450 43 -298 25 -496 -62 -669 -109 -217
-278 -320 -497 -304 -231 17 -398 140 -517 381 -39 79 -56 103 -77 110 -23 8
-32 6 -54 -15 -31 -29 -29 -55 11 -144 61 -134 177 -275 288 -348 124 -82 290
-125 440 -114 157 12 263 63 383 183 67 67 89 98 132 185 91 185 120 343 103
561 -18 219 -48 368 -122 604 l-42 131 69 86 c139 174 154 197 154 239 0 44
-37 88 -75 88 -43 0 -119 -34 -182 -81 -35 -27 -68 -49 -74 -49 -5 0 -21 26
-34 57 l-25 57 28 30 c36 39 100 120 129 163 12 18 32 46 44 62 26 35 28 95 4
121 -10 11 -33 22 -51 26 -42 8 -139 -36 -223 -101 -33 -25 -62 -45 -64 -45
-2 0 -31 44 -62 98 -32 53 -71 116 -86 138 l-29 42 33 63 c31 61 32 66 32 188
0 101 -5 143 -24 211 -26 92 -109 274 -162 355 -231 351 -599 617 -1109 802
-253 92 -585 136 -855 113z m297 -130 c75 -5 185 -19 245 -31 112 -21 310 -82
385 -118 24 -11 86 -38 138 -61 379 -165 701 -453 858 -765 53 -106 91 -232
99 -326 6 -81 -3 -172 -17 -167 -5 2 -52 61 -104 131 -225 304 -509 586 -726
724 -76 49 -197 99 -271 113 -76 15 -217 12 -282 -5 -150 -39 -280 -141 -338
-264 -18 -36 -32 -67 -33 -68 -1 -1 -35 7 -77 17 -196 50 -322 64 -579 64
-211 0 -260 -3 -355 -22 -61 -12 -113 -18 -118 -13 -18 18 -20 193 -3 261 79
308 466 514 1011 538 17 1 92 -3 167 -8z m2258 -1815 c0 -13 -27 -61 -62 -109
-3 -5 -20 5 -38 22 -17 18 -36 32 -41 32 -21 0 -6 21 34 44 48 29 107 35 107
11z m-145 -130 c14 -13 25 -30 25 -38 0 -15 -66 -95 -72 -87 -3 3 -19 31 -37
63 -25 46 -30 62 -20 73 19 23 77 17 104 -11z m313 -261 c2 -11 -13 -41 -33
-67 l-36 -48 -29 31 c-15 16 -33 30 -39 30 -19 0 -12 19 14 36 31 20 96 44
110 40 6 -1 11 -11 13 -22z m-698 -114 c0 -25 -29 -38 -41 -19 -15 25 -10 39
16 39 18 0 25 -5 25 -20z m555 -15 c14 -13 25 -29 25 -36 0 -18 -62 -91 -70
-82 -14 14 -58 131 -52 137 15 16 74 4 97 -19z m-401 -351 c18 -7 21 -39 5
-50 -16 -9 -43 21 -36 40 7 18 9 18 31 10z"/>
<path d="M4538 4578 c-130 -164 -134 -171 -98 -203 30 -27 57 -10 133 88 71
90 79 113 49 140 -29 26 -48 20 -84 -25z"/>
<path d="M4666 4478 c-51 -46 -106 -123 -106 -149 0 -31 39 -56 65 -42 21 12
125 142 125 157 0 17 -13 32 -37 45 -18 9 -26 7 -47 -11z"/>
<path d="M1226 4399 c-35 -28 -36 -80 -1 -103 34 -22 52 -20 80 9 30 29 32 68
5 95 -26 26 -51 25 -84 -1z"/>
<path d="M4802 4264 c-38 -27 -29 -65 32 -134 30 -34 71 -86 91 -116 79 -119
156 -322 170 -446 14 -129 24 -148 75 -148 45 0 60 23 60 90 0 222 -157 574
-325 729 -48 44 -68 49 -103 25z"/>
<path d="M1022 4235 c-17 -14 -42 -25 -57 -25 -37 0 -85 -30 -92 -58 -3 -14 2
-39 11 -59 14 -29 15 -42 6 -69 -20 -60 18 -103 90 -104 25 0 54 -7 64 -15 47
-36 118 -8 132 52 4 16 22 45 40 66 19 20 34 45 34 55 0 26 -27 60 -61 77 -16
9 -29 22 -29 31 0 25 -56 74 -83 74 -14 0 -39 -11 -55 -25z"/>
<path d="M1902 4218 c-13 -17 -60 -131 -116 -283 l-45 -120 -88 2 c-95 2 -221
36 -274 73 -48 35 -89 21 -89 -31 0 -23 10 -32 78 -67 73 -38 163 -63 285 -77
26 -4 47 -11 47 -17 0 -5 -16 -60 -35 -122 -75 -241 -125 -497 -125 -635 0
-71 25 -176 49 -210 34 -47 105 -76 185 -75 83 0 153 25 244 83 l60 39 23 -36
c64 -98 190 -101 340 -10 55 33 62 34 54 8 -4 -13 0 -31 10 -46 13 -20 23 -25
48 -22 29 3 36 11 78 89 59 112 129 210 200 282 81 80 94 76 91 -28 -1 -35
-21 -238 -27 -276 -6 -40 21 -71 58 -67 29 3 36 11 77 94 88 177 166 293 221
328 48 30 55 14 41 -106 -25 -215 -12 -279 63 -315 31 -15 43 -15 98 -4 65 13
145 51 173 82 16 17 18 16 58 -24 76 -78 167 -103 269 -73 91 26 207 147 207
216 0 11 5 20 11 20 6 0 41 12 77 26 76 30 146 82 174 131 15 25 27 33 47 33
15 0 30 -2 33 -5 3 -3 -3 -36 -13 -73 -26 -91 -25 -210 1 -262 33 -65 72 -85
165 -85 79 0 110 9 181 54 18 12 24 10 50 -14 46 -43 85 -58 144 -58 69 0 146
36 211 99 l45 45 20 -22 c25 -28 91 -65 130 -73 28 -6 33 -13 48 -67 60 -217
221 -383 414 -429 45 -10 56 -10 77 4 29 19 33 56 8 78 -10 8 -49 25 -88 37
-144 46 -250 163 -299 329 l-15 53 52 23 c160 72 201 239 73 300 -49 23 -76
20 -129 -14 -49 -31 -90 -95 -102 -163 -9 -46 -32 -49 -77 -8 -33 29 -33 30
-38 138 -5 100 -8 114 -35 159 -21 33 -49 60 -85 82 -50 30 -61 33 -120 30
-157 -9 -285 -139 -297 -302 -8 -110 -55 -162 -156 -173 -51 -5 -56 -4 -72 21
-26 39 -15 148 24 255 17 47 31 95 31 107 0 38 -33 52 -106 46 l-64 -5 0 37
c0 117 -121 200 -183 127 -46 -55 -43 -130 8 -197 28 -37 26 -52 -17 -90 -24
-21 -106 -60 -111 -53 -2 2 -11 26 -21 52 -28 74 -74 128 -141 162 -50 26 -70
30 -134 30 -54 0 -86 -6 -109 -18 -87 -47 -162 -163 -169 -262 -6 -76 -11 -91
-40 -126 -32 -38 -95 -68 -142 -69 l-34 0 7 80 c3 44 9 115 12 158 8 94 -5
141 -47 177 -75 62 -178 15 -285 -129 l-29 -39 -8 52 c-9 66 -31 105 -72 127
-67 36 -155 -12 -276 -152 l-42 -49 6 34 c4 19 10 65 14 103 5 57 3 71 -12 88
-24 26 -47 25 -72 -2 -15 -17 -25 -53 -38 -139 -19 -134 -32 -161 -107 -220
-94 -74 -193 -108 -238 -79 -25 16 -18 157 13 271 32 114 33 131 9 152 -26 24
-59 21 -76 -5 -18 -28 -61 -175 -71 -241 -7 -42 -14 -53 -64 -94 -80 -66 -170
-106 -237 -106 -91 0 -114 39 -114 190 0 116 18 236 60 399 38 147 99 345 111
360 5 6 29 14 54 17 59 9 157 42 225 77 45 23 69 28 124 29 114 1 218 44 269
112 15 21 17 31 8 47 -20 38 -46 36 -100 -6 -45 -36 -143 -73 -157 -59 -2 2 1
24 7 48 24 89 -36 157 -130 146 -83 -9 -120 -86 -85 -175 11 -26 20 -50 22
-53 6 -14 -181 -79 -194 -67 -5 5 51 162 98 275 28 70 29 75 14 98 -18 27 -66
34 -84 13z m266 -203 c3 -26 -13 -50 -27 -41 -6 4 -11 21 -11 37 0 24 4 30 18
27 9 -2 18 -12 20 -23z m1802 -890 c45 -24 90 -92 90 -138 0 -15 -100 -3 -144
18 -60 29 -95 102 -64 133 15 15 78 7 118 -13z m1232 -21 c73 -66 60 -178 -34
-280 -89 -97 -193 -100 -228 -8 -24 63 0 189 47 245 56 66 164 87 215 43z
m-1437 -106 c15 -24 40 -53 56 -66 38 -31 128 -62 179 -62 22 0 40 -4 40 -9 0
-5 -18 -28 -40 -50 -45 -45 -104 -66 -159 -56 -67 13 -131 102 -131 185 0 25
18 100 24 100 2 0 15 -19 31 -42z m1895 -123 c-14 -27 -58 -60 -67 -51 -10 9
19 66 40 81 29 20 45 3 27 -30z"/>
<path d="M2763 3985 c-11 -8 -24 -26 -27 -40 -4 -14 -13 -25 -21 -25 -8 0 -30
-14 -49 -30 -91 -81 -102 -226 -22 -299 18 -18 41 -26 79 -29 115 -9 197 76
197 205 0 54 -4 67 -33 105 -19 24 -37 56 -40 70 -8 30 -32 58 -50 58 -7 0
-22 -7 -34 -15z"/>
<path d="M4090 3980 c-11 -11 -20 -33 -20 -49 0 -16 -7 -34 -16 -42 -33 -27
-46 -70 -42 -138 3 -56 9 -74 36 -112 82 -114 224 -113 282 1 50 97 -3 236
-107 281 -23 10 -43 23 -43 29 0 15 -38 50 -55 50 -8 0 -24 -9 -35 -20z"/>
<path d="M3427 3882 c-10 -10 -17 -23 -17 -28 0 -24 -42 -54 -75 -54 -32 0
-75 -27 -75 -48 0 -18 33 -52 51 -52 15 0 19 -7 19 -37 0 -50 18 -82 59 -110
84 -57 201 7 201 110 0 29 4 37 18 37 26 0 42 20 42 52 0 31 -24 48 -69 48
-30 0 -71 32 -71 55 0 16 -33 45 -52 45 -8 0 -22 -8 -31 -18z m67 -153 c30
-18 36 -27 36 -55 0 -50 -40 -88 -82 -80 -40 8 -57 32 -58 78 0 30 5 39 33 56
17 11 33 21 34 21 1 1 18 -8 37 -20z"/>
<path d="M803 3783 c-29 -26 -90 -135 -181 -323 -221 -457 -333 -869 -335
-1225 0 -172 13 -248 69 -389 48 -119 93 -187 178 -271 149 -147 341 -202 558
-161 192 37 357 151 472 326 49 75 106 197 106 228 0 21 -43 62 -65 62 -26 0
-57 -37 -84 -101 -50 -119 -140 -233 -234 -298 -164 -112 -387 -132 -554 -49
-199 100 -339 406 -318 698 22 298 87 571 211 874 25 60 96 213 159 340 63
127 115 241 115 253 0 24 -34 53 -61 53 -9 0 -26 -8 -36 -17z"/>
<path d="M2192 3528 c-7 -7 -12 -31 -12 -55 0 -33 7 -50 32 -78 28 -33 35 -36
67 -30 65 12 115 81 91 125 -13 24 -38 26 -68 4 -21 -14 -24 -14 -48 15 -28
33 -43 38 -62 19z"/>
<path d="M1310 2720 c-16 -12 -41 -20 -67 -20 -52 0 -80 -32 -68 -78 9 -38 10
-63 1 -94 -11 -38 29 -78 79 -78 22 0 47 -8 62 -20 48 -38 89 -22 117 45 8 18
23 36 34 39 48 16 46 100 -3 126 -14 7 -28 23 -31 34 -18 61 -77 83 -124 46z
m64 -106 c22 -21 20 -60 -4 -84 -40 -40 -100 -16 -100 40 0 36 24 60 60 60 16
0 36 -7 44 -16z"/>
<path d="M1750 2523 c-43 -17 -49 -55 -20 -132 81 -211 213 -368 437 -519 74
-50 258 -142 285 -142 25 0 58 35 58 63 0 32 -18 46 -135 107 -196 103 -323
205 -418 338 -56 78 -116 198 -117 234 0 18 -45 59 -64 57 -6 0 -18 -3 -26 -6z"/>
<path d="M5107 2523 c-11 -3 -37 -44 -67 -107 -125 -261 -327 -442 -640 -574
-58 -25 -113 -51 -122 -60 -39 -33 -8 -105 44 -104 34 0 230 88 336 151 238
142 403 320 504 545 35 78 35 109 2 135 -15 12 -29 20 -33 20 -3 -1 -14 -3
-24 -6z"/>
<path d="M2309 2457 c-45 -30 -79 -83 -79 -122 0 -46 37 -96 85 -112 61 -21
141 -1 129 32 -4 10 -19 12 -59 8 -91 -10 -134 38 -100 110 32 68 117 85 179
36 31 -24 33 -40 7 -63 -17 -16 -19 -15 -24 14 -6 29 -36 50 -72 50 -21 0 -54
-33 -60 -61 -9 -36 29 -73 65 -64 14 4 42 7 64 8 44 3 86 42 86 81 0 83 -142
136 -221 83z m89 -109 c-7 -19 -38 -22 -38 -4 0 10 9 16 21 16 12 0 19 -5 17
-12z"/>
<path d="M2601 2447 c-13 -17 4 -27 45 -27 23 0 24 -2 24 -80 0 -73 2 -80 20
-80 17 0 19 8 22 78 l3 77 35 5 c22 3 35 10 35 20 0 22 -166 27 -184 7z"/>
<path d="M2835 2448 c-7 -19 -8 -45 -7 -120 2 -61 4 -68 22 -68 20 0 21 5 18
97 -2 66 -7 98 -15 101 -7 2 -15 -2 -18 -10z"/>
<path d="M2957 2440 c-25 -20 -27 -26 -27 -101 0 -71 2 -79 19 -79 22 0 26 14
30 90 3 60 11 76 35 67 11 -5 16 -25 18 -79 3 -67 5 -73 25 -76 21 -3 22 1 25
75 3 76 4 78 28 78 24 0 25 -3 30 -75 5 -68 7 -75 28 -78 21 -3 22 -1 22 76 0
108 -14 121 -125 111 -11 -1 -34 2 -50 6 -23 5 -37 1 -58 -15z"/>
<path d="M3287 2444 c-46 -25 -63 -107 -32 -151 19 -26 77 -47 107 -38 47 15
68 45 68 99 -1 57 -14 80 -54 96 -36 13 -55 12 -89 -6z m81 -33 c17 -11 19
-85 3 -105 -16 -19 -52 -21 -69 -4 -16 16 -16 90 0 106 14 14 47 16 66 3z"/>
<path d="M3498 2454 c-5 -4 -8 -49 -8 -101 0 -86 1 -93 20 -93 13 0 20 7 20
20 0 41 27 37 95 -14 7 -5 20 -6 30 -2 17 6 17 8 -3 29 l-21 22 25 24 c54 52
7 112 -93 119 -32 2 -61 0 -65 -4z m120 -46 c32 -32 -3 -72 -56 -66 -23 3 -27
8 -30 41 -3 37 -3 37 35 37 22 0 44 -5 51 -12z"/>
<path d="M3773 2450 c-39 -16 -54 -52 -51 -122 3 -57 5 -63 26 -66 18 -3 22 1
22 23 0 25 3 26 43 23 35 -3 43 -7 45 -26 3 -17 9 -22 25 -20 18 2 23 11 25
48 5 74 -5 109 -41 130 -34 21 -59 24 -94 10z m77 -44 c6 -8 10 -25 8 -38 -3
-20 -9 -23 -45 -25 -42 -2 -43 -1 -43 32 0 18 6 36 13 38 24 10 55 7 67 -7z"/>
<path d="M3935 2450 c-3 -5 15 -50 40 -100 59 -118 68 -118 130 1 34 65 44 94
36 102 -15 15 -43 -13 -71 -73 -13 -28 -26 -50 -29 -50 -3 0 -21 29 -40 65
-31 61 -52 78 -66 55z"/>
<path d="M4228 2445 c-35 -20 -48 -44 -48 -92 0 -75 65 -118 133 -89 43 18 57
41 57 99 0 33 -6 49 -24 66 -30 28 -83 36 -118 16z m90 -78 c3 -54 -9 -77 -42
-77 -33 0 -46 19 -46 65 0 50 15 67 55 63 28 -3 30 -6 33 -51z"/>
<path d="M4473 2445 c-34 -15 -46 -39 -46 -98 0 -68 61 -109 129 -87 42 14 54
35 54 95 0 59 -12 80 -51 94 -40 14 -47 13 -86 -4z m85 -37 c15 -15 16 -72 2
-99 -12 -21 -41 -25 -71 -9 -14 8 -19 21 -19 53 0 49 13 67 50 67 14 0 31 -5
38 -12z"/>
<path d="M1658 2245 c-26 -14 -48 -64 -48 -107 0 -27 37 -58 68 -58 41 0 62
29 69 91 5 52 4 55 -25 72 -35 20 -30 20 -64 2z"/>
<path d="M5155 2238 c-25 -20 -27 -25 -21 -72 5 -50 27 -83 56 -86 34 -5 50 1
66 25 24 37 3 120 -37 140 -35 19 -31 19 -64 -7z"/>
<path d="M2995 2001 c-75 -19 -126 -60 -157 -130 -17 -36 -20 -64 -19 -159 1
-105 3 -119 29 -165 19 -36 42 -60 76 -82 49 -29 52 -30 180 -30 111 1 139 4
186 23 30 12 57 22 59 22 7 0 -10 -95 -26 -145 -44 -137 -121 -240 -222 -294
-77 -41 -93 -80 -49 -121 30 -27 50 -25 119 11 124 66 228 206 279 377 l22 72
26 -52 c31 -63 139 -174 203 -207 45 -24 48 -24 73 -7 57 37 47 81 -29 132
-72 47 -120 104 -145 171 -31 82 -28 86 33 58 76 -36 148 -48 256 -43 105 4
138 17 190 68 41 42 61 114 61 225 0 115 -18 172 -70 219 -41 37 -120 66 -179
66 -110 0 -289 -90 -379 -189 l-33 -36 -22 26 c-60 69 -207 160 -299 185 -57
15 -114 16 -163 5z m195 -159 c82 -43 146 -91 159 -120 16 -34 13 -78 -6 -98
-55 -55 -235 -92 -317 -64 -51 16 -65 44 -73 137 -7 92 1 145 24 169 28 28
137 16 213 -24z m797 11 c26 -39 22 -216 -6 -253 -31 -43 -58 -51 -154 -47
-73 4 -98 10 -151 36 -114 56 -113 115 6 204 73 54 158 87 225 87 57 0 64 -2
80 -27z"/>
<path d="M2617 1752 c-32 -35 -11 -92 33 -92 45 0 66 62 32 93 -24 22 -45 21
-65 -1z"/>
</g>
</svg>
