<?xml version="1.0" standalone="no"?>
<!DOCTYPE svg PUBLIC "-//W3C//DTD SVG 20010904//EN"
 "http://www.w3.org/TR/2001/REC-SVG-20010904/DTD/svg10.dtd">
<svg version="1.0" xmlns="http://www.w3.org/2000/svg"
 width="640.000000pt" height="640.000000pt" viewBox="0 0 640.000000 640.000000"
 preserveAspectRatio="xMidYMid meet">

<g transform="translate(0.000000,640.000000) scale(0.100000,-0.100000)"
fill="#000000" stroke="none">
<path d="M868 6368 c29 -47 42 -189 29 -315 -8 -83 -8 -110 6 -159 43 -160 77
-258 103 -291 26 -34 27 -41 26 -137 l-1 -101 -49 -10 c-56 -11 -84 -32 -102
-76 -9 -21 -19 -29 -39 -29 -53 -1 -139 -56 -182 -117 -11 -15 -35 -27 -74
-36 l-59 -13 50 -34 c27 -19 76 -59 108 -89 73 -68 43 -20 -33 54 -27 27 -48
52 -45 56 2 4 28 15 56 25 36 12 47 19 36 23 -24 8 -12 23 53 64 54 34 94 48
182 62 38 6 38 7 21 26 -19 21 -35 25 -31 7 1 -6 -6 -14 -16 -16 -18 -4 -18
-3 -1 23 31 47 50 50 92 14 124 -108 172 -153 172 -160 0 -4 -10 -11 -22 -15
-12 -3 -37 -13 -57 -22 -20 -9 -40 -15 -44 -14 -5 2 -6 -2 -3 -7 4 -5 0 -12
-6 -14 -9 -4 -8 -6 3 -6 8 -1 20 4 27 11 8 8 12 8 12 1 0 -17 -55 -34 -68 -21
-8 8 -16 6 -27 -6 -30 -30 -57 -28 -139 9 -56 26 -81 34 -89 26 -8 -8 -8 -11
0 -11 15 0 81 -60 68 -60 -27 -2 98 -38 136 -39 18 -1 34 -41 17 -41 -14 0
-38 -26 -31 -34 4 -3 -2 -6 -13 -6 -11 0 -35 -13 -54 -30 -19 -16 -38 -29 -42
-30 -4 0 -24 15 -45 33 -26 22 -18 9 26 -40 34 -40 71 -73 81 -73 19 0 36 -30
22 -39 -31 -20 -63 -135 -67 -233 -2 -49 -1 -88 1 -88 2 0 10 14 19 30 9 17
20 30 25 30 13 0 13 -107 0 -115 -5 -3 -10 -12 -10 -18 0 -8 3 -8 9 2 5 8 11
9 15 3 10 -16 -26 -23 -64 -12 l-35 9 24 -20 24 -20 -21 -15 c-34 -23 -27 -40
36 -89 l59 -46 -11 -42 c-6 -24 -23 -58 -38 -76 -31 -36 -33 -42 -17 -58 8 -8
3 -45 -19 -140 -47 -194 -64 -305 -71 -452 l-6 -134 -39 57 c-55 81 -81 99
-128 91 -33 -6 -43 -3 -74 25 -48 41 -69 48 -167 56 -45 3 -105 12 -134 20
-28 8 -63 14 -78 14 -22 0 -26 -3 -19 -17 4 -10 8 -94 9 -188 1 -93 5 -178 9
-187 5 -10 35 -36 69 -58 l60 -41 -54 6 c-44 5 -65 2 -114 -19 -36 -15 -59
-30 -57 -38 2 -7 14 -37 28 -65 l25 -53 -20 -26 c-28 -35 -27 -47 9 -88 29
-32 29 -35 11 -41 -31 -10 -49 -46 -81 -169 -22 -85 -30 -138 -30 -200 l0 -84
34 -20 c19 -11 66 -28 106 -38 69 -16 71 -18 65 -43 -14 -56 -33 -73 -83 -71
-26 1 -64 1 -84 1 l-38 -1 0 -50 c0 -43 3 -50 20 -51 11 -1 30 -2 43 -3 12 -2
29 1 37 5 19 9 110 -39 110 -58 0 -7 -4 -13 -10 -13 -5 0 -10 -4 -10 -10 0 -5
12 -10 26 -10 21 0 25 -4 19 -17 -4 -10 -16 -42 -28 -71 -14 -36 -28 -57 -44
-63 -24 -9 -111 5 -146 23 -15 8 -18 6 -15 -9 2 -13 20 -22 58 -32 74 -19 141
-8 183 29 l32 28 -3 -64 c-4 -67 27 -196 49 -210 6 -3 39 -7 73 -7 76 0 149
29 199 81 41 42 103 162 112 218 11 67 15 74 40 74 13 0 37 11 53 25 41 34 65
31 113 -12 90 -82 119 -190 85 -322 -25 -99 -35 -112 -86 -125 -91 -23 -360
-211 -360 -252 0 -6 21 -14 48 -18 77 -10 79 -18 20 -63 -128 -97 -237 -232
-327 -405 -87 -166 -104 -226 -107 -383 -1 -72 -5 -145 -8 -163 -4 -24 -2 -31
7 -25 7 4 5 -2 -3 -12 -14 -18 -15 -17 -18 5 -3 19 -6 20 -14 9 -7 -10 -8 -6
-5 16 3 17 2 46 -2 65 l-7 35 -8 -48 c-4 -26 -11 -45 -17 -42 -13 9 -11 -49 3
-63 15 -15 3 -16 -23 -1 -12 6 -27 8 -35 5 -18 -7 -30 -4 -26 7 1 4 -4 18 -13
30 -14 20 -15 18 -15 -41 l0 -62 170 1 c132 0 169 2 163 12 -4 7 -25 39 -46
72 -32 48 -38 54 -33 30 5 -23 4 -26 -4 -14 -18 30 -40 159 -40 234 0 102 15
165 65 272 114 243 254 386 565 575 25 16 56 36 70 45 19 14 16 7 -14 -30 -21
-27 -36 -50 -34 -52 2 -3 28 17 56 43 55 51 58 50 41 -11 -7 -28 -7 -42 1 -52
8 -10 8 -15 -2 -19 -7 -3 -2 -3 12 0 14 3 40 15 58 25 19 11 32 15 30 9 -2 -6
-51 -59 -108 -118 -114 -115 -106 -112 38 17 l93 84 -31 -54 c-42 -71 -163
-258 -211 -326 -38 -55 -99 -196 -99 -229 0 -10 -3 -14 -7 -10 -7 7 -133 -179
-133 -196 0 -5 -4 -6 -10 -3 -5 3 -10 -2 -11 -12 -2 -43 -17 37 -18 98 -2 118
26 209 101 329 l22 35 -23 -20 c-30 -26 -103 -144 -141 -228 -40 -88 -70 -215
-70 -297 0 -46 -3 -61 -10 -50 -7 11 -10 11 -10 2 0 -7 -4 -11 -9 -7 -10 5 1
-44 14 -65 15 -24 -13 -7 -33 20 -13 17 -30 30 -39 30 -9 0 -22 8 -29 18 -12
15 -13 14 -14 -12 0 -16 7 -56 16 -88 l17 -58 113 0 c104 0 113 2 119 20 3 11
24 43 47 71 26 33 33 47 20 40 -38 -20 -40 -11 -15 57 13 37 26 80 28 95 5 36
60 134 128 227 56 77 65 101 23 61 -27 -26 -48 -11 -23 17 8 9 29 47 46 83 44
90 80 131 164 185 61 40 134 93 172 127 6 5 -7 6 -30 2 l-40 -7 39 40 c22 23
53 48 70 56 29 14 33 13 66 -12 50 -37 157 -128 211 -180 45 -42 46 -45 33
-71 -16 -30 -18 -98 -4 -156 8 -35 6 -44 -16 -77 -29 -42 -53 -102 -54 -136 0
-37 -17 -17 -31 38 -30 118 -36 -2 -10 -190 11 -74 11 -74 -22 -128 -34 -58
-95 -114 -142 -132 -27 -10 -28 -13 -12 -21 21 -12 88 -8 87 6 -1 6 -9 9 -18
7 -11 -1 -8 4 8 15 53 36 109 103 127 152 l19 51 21 -29 c28 -37 99 -71 149
-71 57 0 132 39 188 98 l50 52 26 -63 c22 -53 24 -63 10 -66 -43 -10 -139 -57
-184 -90 -28 -21 -64 -45 -81 -54 l-30 -16 48 -1 c27 0 47 5 47 11 0 5 5 7 10
4 6 -3 10 0 10 7 0 8 6 22 13 31 11 15 15 15 41 2 24 -13 27 -13 22 0 -9 25
13 27 51 5 19 -11 38 -18 42 -15 3 4 -2 11 -11 16 -10 6 -23 19 -29 31 -10 18
-9 20 5 15 9 -4 16 -2 16 3 0 6 18 9 41 8 36 -1 42 -5 60 -40 11 -21 24 -38
29 -38 6 0 19 -9 30 -20 16 -16 33 -20 91 -20 l70 0 -7 157 c-6 145 -5 165 16
243 13 47 38 111 58 143 72 121 221 265 331 320 l65 32 175 1 c158 0 182 3
230 23 106 44 155 74 217 135 l64 62 1 -46 c2 -89 17 8 18 122 2 158 -26 283
-90 409 -16 34 -29 62 -27 63 33 24 153 123 183 151 39 36 39 37 5 13 -220
-153 -307 -208 -400 -254 -60 -30 -117 -54 -126 -54 -10 0 -76 32 -148 72 -72
39 -192 103 -266 141 -179 93 -234 128 -303 195 -101 98 -170 209 -234 376
-19 50 -59 141 -89 203 -30 61 -54 121 -54 132 0 19 6 21 60 21 33 0 60 -2 60
-5 0 -2 -12 -11 -27 -20 l-28 -15 40 6 c22 3 54 10 70 15 17 4 58 10 92 12 33
2 67 8 75 14 7 6 28 18 46 27 21 11 32 23 28 31 -3 8 -1 17 4 20 21 13 9 24
-16 15 -61 -24 -194 -29 -321 -15 l-126 15 -66 56 c-51 44 -82 83 -140 177
-57 92 -72 124 -64 136 21 34 141 122 218 161 118 58 227 74 300 44 16 -6 13
1 -13 33 -18 24 -44 44 -60 47 -84 19 -319 -98 -429 -212 -23 -25 -43 -43 -43
-39 0 3 -12 73 -27 154 -24 131 -27 173 -27 368 -1 178 3 233 17 289 16 64
168 396 181 396 4 0 3 -44 0 -97 -13 -204 68 -402 201 -493 69 -48 99 -53 173
-34 67 18 122 65 122 105 0 32 -26 74 -54 87 l-26 12 20 -40 c11 -21 20 -45
20 -53 0 -24 -35 -47 -74 -47 -86 0 -192 96 -226 206 -49 159 -50 259 -5 401
28 90 68 143 107 143 27 0 87 -56 124 -116 13 -22 24 -34 24 -29 0 6 7 41 15
79 29 135 93 202 173 178 89 -27 194 -141 263 -287 119 -254 130 -608 22 -734
-52 -62 -111 -67 -173 -14 -27 22 -30 23 -30 6 0 -38 21 -92 38 -97 9 -3 33
-8 52 -11 78 -13 174 89 242 258 32 80 33 85 33 237 0 132 -3 167 -23 235 -29
100 -88 222 -147 299 -24 33 -43 61 -42 62 5 6 254 -87 325 -121 107 -51 204
-119 303 -213 113 -107 149 -162 224 -346 86 -210 147 -328 219 -421 l62 -81
-40 -143 c-45 -157 -55 -172 -124 -176 -21 -1 -56 -14 -79 -28 -128 -81 -233
-117 -446 -152 -22 -3 -35 -10 -31 -16 3 -6 -9 -26 -27 -45 -34 -35 -26 -45
16 -18 16 11 34 14 55 9 35 -8 36 -11 13 -38 -17 -19 -17 -20 3 -9 11 6 26 18
34 26 17 21 74 22 66 1 -3 -10 7 -7 32 10 20 13 57 27 82 31 25 4 54 13 65 20
36 25 48 17 24 -17 l-22 -31 29 15 c16 9 46 33 66 54 91 93 183 181 186 178 2
-1 -20 -88 -49 -191 -45 -161 -53 -202 -52 -274 0 -186 55 -305 167 -359 52
-26 203 -55 485 -96 57 -8 106 -17 109 -19 2 -3 -35 -48 -82 -101 -153 -172
-238 -319 -276 -478 -37 -155 -25 -257 52 -414 42 -87 116 -168 182 -200 20
-9 36 -19 36 -23 0 -3 -21 -22 -47 -42 -223 -170 -327 -397 -279 -609 30 -135
85 -223 175 -281 43 -27 50 -28 160 -27 l116 0 -46 15 c-101 31 -187 192 -165
308 5 27 18 45 52 71 66 50 132 71 283 89 139 17 219 40 373 107 l88 37 67
-14 c144 -30 166 -51 167 -156 1 -47 -4 -63 -29 -100 -17 -24 -52 -55 -80 -71
-44 -24 -59 -27 -119 -24 -65 3 -70 5 -103 41 -28 30 -34 43 -29 64 6 26 5 26
-25 -8 -26 -30 -30 -41 -26 -78 6 -56 48 -110 110 -141 39 -19 64 -24 145 -25
108 -1 161 16 235 75 21 17 40 29 43 26 8 -8 24 -120 24 -169 l0 -48 56 0 c49
0 55 2 49 18 -20 52 -27 121 -16 173 17 82 25 89 49 42 40 -78 135 -182 115
-125 -8 22 56 -56 70 -85 12 -27 32 -29 54 -8 14 14 13 21 -7 70 -38 93 -47
76 -11 -20 9 -25 0 -19 -53 37 -70 72 -135 190 -159 287 -14 53 -13 57 13 110
43 86 60 157 60 247 0 126 -37 204 -111 234 -16 7 -29 14 -29 17 0 2 22 50 49
106 28 56 55 130 62 165 16 83 6 228 -20 313 -30 96 -122 271 -187 356 -64 83
-210 217 -300 275 l-61 40 27 51 c15 29 36 73 45 100 l18 47 65 -97 c35 -54
81 -115 101 -137 26 -28 30 -35 14 -27 -34 17 -28 5 21 -50 24 -27 58 -74 75
-103 17 -30 38 -59 48 -65 16 -9 16 -10 1 -11 -9 0 -33 19 -52 42 -20 23 -36
37 -36 32 0 -15 170 -228 259 -324 83 -90 92 -104 45 -74 -13 9 -27 15 -29 12
-3 -2 24 -26 60 -52 75 -55 115 -102 173 -201 37 -63 99 -127 197 -199 l20
-15 -20 -1 c-11 0 12 -17 55 -40 65 -34 128 -85 118 -96 -2 -1 -69 19 -148 46
-80 27 -152 50 -161 50 -21 0 -77 -166 -60 -183 7 -7 12 -6 15 4 2 8 14 45 26
82 18 56 25 67 40 62 10 -3 47 -14 81 -24 108 -32 204 -69 202 -78 -1 -4 -6
-19 -12 -33 -7 -18 -10 -20 -10 -7 -1 26 -38 22 -46 -5 -11 -35 -54 -88 -71
-88 -20 0 -11 32 24 83 19 28 22 41 14 49 -28 28 -95 -78 -90 -140 3 -33 6
-37 35 -40 37 -4 93 40 113 88 7 17 14 29 16 27 4 -4 -43 -144 -110 -325 -46
-123 -53 -152 -38 -152 12 0 204 521 205 558 0 17 3 16 50 -17 68 -47 149
-139 230 -261 41 -63 87 -126 101 -139 l26 -24 0 62 c0 53 -4 69 -30 107 -46
65 -121 137 -195 184 -36 24 -65 45 -65 48 0 2 17 1 38 -2 l37 -6 -40 24 c-22
14 -77 51 -123 83 l-83 58 42 10 43 11 -69 22 c-124 41 -201 106 -303 259 -23
34 -46 65 -52 68 -25 15 -8 26 31 20 29 -5 39 -4 35 4 -4 6 -71 64 -149 130
-78 66 -164 140 -192 165 -27 24 -54 42 -58 39 -4 -3 -3 -11 4 -19 6 -7 15
-11 20 -8 5 3 9 0 9 -6 0 -21 -23 -5 -68 48 -42 49 -43 52 -21 51 13 0 18 -3
12 -6 -9 -3 -6 -13 9 -34 16 -21 25 -26 34 -18 7 6 18 9 26 8 60 -8 58 2 -10
48 -39 25 -73 53 -76 62 -4 9 -22 38 -41 66 -41 58 -42 65 -13 57 19 -4 16 2
-19 44 -22 27 -66 88 -98 136 -57 89 -86 119 -145 151 -24 13 -30 22 -25 35
21 52 46 178 52 254 8 111 -8 193 -55 282 -51 98 -122 169 -255 256 -96 63
-133 97 -155 142 -2 3 7 4 20 1 19 -5 14 4 -27 48 -27 29 -42 47 -32 40 17
-14 24 -3 8 15 -11 11 -61 103 -61 110 0 4 6 4 13 1 7 -3 -11 44 -40 104 -29
59 -53 111 -53 114 0 10 79 -54 159 -130 62 -58 121 -131 121 -149 0 -7 -44 6
-60 18 -8 6 10 -17 40 -51 30 -35 57 -63 60 -63 4 0 15 -7 26 -16 10 -8 13
-13 7 -9 -9 4 -11 1 -7 -10 4 -9 9 -13 12 -10 6 6 63 -86 91 -149 19 -44 19
-46 1 -36 -35 19 -33 10 12 -37 24 -27 104 -136 177 -243 72 -107 154 -223
182 -258 27 -35 47 -67 44 -72 -3 -4 11 -20 30 -35 20 -14 33 -31 29 -36 -3
-5 11 -31 32 -57 102 -127 183 -222 233 -275 30 -31 52 -57 48 -57 -4 0 -27 9
-50 21 l-42 21 54 -49 c69 -61 131 -107 131 -97 0 4 7 -1 16 -12 8 -10 12 -13
9 -6 -6 11 -3 12 14 3 11 -7 21 -15 21 -20 0 -4 6 -8 14 -8 17 0 113 -57 153
-90 l28 -23 -28 10 c-59 21 -60 8 -2 -23 42 -22 99 -71 190 -163 l130 -132
-54 19 c-30 11 -56 17 -59 15 -6 -7 65 -41 125 -60 29 -10 55 -22 58 -26 3 -5
-10 -3 -29 5 -41 17 -46 18 -46 6 0 -4 28 -21 63 -36 34 -15 88 -49 121 -74
l59 -46 -29 -5 -29 -6 33 -11 32 -12 0 80 c0 43 -2 79 -5 79 -3 0 -16 -7 -29
-15 -22 -15 -26 -14 -52 10 -16 15 -24 24 -18 21 7 -3 16 0 22 7 13 16 11 45
-2 42 -26 -5 -45 -18 -40 -26 3 -5 -5 -5 -18 0 -13 5 -22 14 -20 21 1 6 -2 8
-8 5 -7 -4 -22 3 -35 15 -23 22 -23 22 -5 53 43 73 45 246 4 331 -14 29 -13
29 20 -9 20 -22 52 -68 72 -102 37 -64 48 -77 37 -45 -16 45 -119 185 -172
235 -111 102 -298 216 -439 267 -34 13 -61 25 -58 27 11 11 208 -32 284 -62
47 -19 88 -33 89 -31 2 2 -32 19 -75 39 -86 39 -137 53 -338 91 -71 14 -141
30 -155 36 -22 10 -22 10 -1 6 12 -2 20 0 16 5 -3 5 -12 9 -20 9 -8 0 -12 5
-9 10 4 6 3 9 -2 8 -4 -1 -21 6 -38 16 -70 45 -80 50 -85 51 -3 0 -16 10 -29
22 -13 12 -29 20 -34 16 -6 -3 -7 -1 -3 6 5 7 -5 17 -28 26 -19 8 -38 20 -42
27 -5 8 0 7 12 -2 17 -14 18 -14 6 2 -8 10 -17 16 -22 15 -12 -4 -157 180
-213 271 -87 140 -109 207 -113 337 -1 61 0 97 4 80 4 -19 14 -31 27 -33 11
-2 32 -6 48 -9 20 -4 27 -1 27 11 0 9 4 16 9 16 5 0 12 7 15 16 3 8 2 13 -2
10 -8 -4 -4 205 3 213 3 2 5 -31 5 -75 0 -278 108 -537 296 -713 78 -73 182
-132 254 -145 24 -5 15 1 -30 20 -210 87 -374 280 -454 532 -14 46 -26 86 -26
90 0 4 14 -18 32 -48 55 -98 146 -175 323 -276 246 -139 529 -309 603 -360 78
-55 291 -267 363 -362 33 -44 49 -59 49 -46 0 11 -29 56 -64 99 l-64 80 31 5
c17 3 32 10 34 17 6 18 -120 157 -145 161 -27 4 -28 18 -3 32 28 14 38 70 16
86 -9 7 -14 17 -11 23 13 21 -17 107 -61 175 l-47 71 -7 -32 c-9 -45 -22 -58
-77 -78 -26 -10 -67 -29 -92 -41 -25 -13 -50 -24 -56 -24 -26 0 -264 294 -264
326 0 4 30 3 68 -1 130 -14 172 -7 342 53 141 50 315 103 359 109 37 5 41 8
41 34 0 19 -17 53 -49 97 -27 37 -59 87 -71 112 -110 220 -216 348 -336 406
-91 44 -108 44 -26 -1 106 -57 187 -142 256 -270 15 -28 38 -68 50 -91 12 -22
20 -46 18 -53 -3 -8 0 -11 5 -8 5 3 17 -9 26 -28 10 -22 13 -35 6 -35 -6 0 -9
-7 -5 -15 3 -8 1 -15 -3 -15 -5 0 -7 -8 -4 -18 4 -15 -1 -19 -26 -20 -17 0
-31 4 -31 9 0 5 -5 9 -11 9 -5 0 -8 -4 -5 -9 3 -5 -15 -12 -41 -16 -26 -4 -66
-18 -89 -31 -47 -28 -100 -96 -88 -115 4 -8 3 -9 -5 -5 -6 4 -19 2 -28 -6 -11
-9 -47 -13 -112 -13 -53 0 -138 -4 -188 -9 l-93 -9 -65 136 c-68 143 -74 162
-51 170 9 4 20 -8 31 -33 10 -21 35 -53 57 -72 22 -18 54 -45 72 -60 64 -56
62 -26 -6 81 -15 24 -25 48 -22 52 7 12 -24 80 -49 107 -21 23 -21 24 -2 21
26 -3 75 10 99 27 13 9 25 10 37 3 10 -5 33 -11 50 -13 23 -3 42 -16 67 -45
18 -23 39 -38 44 -35 7 5 8 2 3 -6 -4 -7 -3 -15 3 -19 6 -4 17 -33 25 -66 14
-57 15 -58 16 -21 l1 39 23 -21 c13 -12 26 -22 30 -22 12 0 -21 90 -58 156
-30 54 -34 66 -19 60 11 -5 33 -13 49 -18 17 -6 45 -22 63 -35 17 -13 32 -21
32 -16 0 4 7 -3 16 -15 8 -12 22 -22 29 -22 8 0 43 -27 77 -60 34 -32 64 -57
66 -55 9 9 -61 96 -132 163 l-76 72 52 0 c28 0 49 2 46 5 -2 3 -48 11 -100 19
-95 15 -262 71 -253 86 3 5 -3 6 -14 3 -10 -3 -22 0 -25 6 -4 6 -2 11 4 11 6
0 9 4 6 8 -3 5 8 7 23 4 21 -3 37 4 62 27 21 19 28 30 19 31 -17 0 -50 -19
-35 -21 6 0 -21 -8 -60 -17 -112 -25 -175 -22 -340 17 -36 8 -57 60 -37 92 10
15 9 19 -2 19 -11 0 -16 22 -21 88 -4 48 -9 95 -11 105 -5 15 4 17 78 17 52 1
92 6 108 15 23 13 27 12 41 -7 12 -16 27 -21 54 -20 l38 2 -21 -23 c-45 -48
-20 -57 52 -20 22 12 27 12 24 1 -2 -7 -60 -41 -128 -76 -127 -64 -132 -70
-25 -31 45 16 84 22 155 22 90 1 93 2 55 13 -22 7 -56 13 -75 14 -30 1 -32 3
-14 10 20 8 93 109 127 175 8 17 20 59 27 93 6 34 17 83 25 109 21 70 20 73
-27 73 -23 0 -38 -3 -35 -6 4 -4 -2 -19 -13 -34 -11 -16 -20 -33 -20 -38 0
-13 -25 -22 -63 -22 -57 -1 -146 -28 -198 -60 -44 -27 -154 -80 -165 -80 -2 0
-4 38 -4 83 0 117 -9 111 230 150 14 2 -16 5 -65 6 -70 1 -99 -3 -126 -17
l-36 -18 -13 90 c-18 116 -18 157 -1 228 l14 57 -79 86 c-43 48 -88 103 -99
124 -30 56 -139 227 -192 300 l-46 64 29 -7 c16 -4 38 -18 49 -32 11 -14 59
-68 107 -120 49 -53 104 -124 123 -158 64 -114 110 -146 210 -146 31 0 72 -7
93 -16 38 -17 204 -25 218 -11 4 3 1 14 -6 22 -12 14 -6 15 52 9 63 -6 69 -5
149 36 102 52 158 89 226 150 48 44 73 55 166 75 33 7 32 12 -16 95 -39 65
-147 178 -202 209 -22 12 -51 38 -64 56 -13 19 -27 32 -32 29 -5 -3 -6 2 -3
10 8 21 2 20 -24 -3 -25 -21 -29 -36 -8 -28 10 4 13 1 9 -9 -3 -7 0 -14 7 -14
10 0 10 -3 1 -14 -18 -21 41 -80 71 -70 16 5 20 3 16 -8 -4 -10 13 -23 61 -43
71 -30 120 -70 151 -122 23 -40 22 -40 -67 -30 -94 11 -160 32 -205 64 -27 19
-90 49 -140 67 -51 18 -118 44 -148 58 -31 15 -68 30 -84 34 -18 4 -31 16 -37
33 -9 26 -12 27 -62 20 -29 -3 -61 -10 -72 -14 -18 -8 -19 -7 -5 10 12 15 8
14 -30 -6 -25 -12 -51 -22 -59 -20 -7 1 -10 -2 -6 -8 3 -6 -2 -11 -13 -11 -11
0 -35 -3 -53 -6 -32 -5 -33 -5 -15 10 26 21 4 20 -37 -1 -44 -22 -157 -43
-157 -29 0 6 -4 5 -9 -2 -11 -17 -91 -29 -91 -13 0 6 4 11 8 11 5 0 9 6 10 13
4 56 50 147 73 147 5 0 9 5 9 11 0 6 -7 8 -16 5 -13 -5 -14 -4 -6 7 7 8 10 16
7 18 -2 3 11 3 30 1 23 -3 35 0 35 8 0 7 -8 9 -22 5 -19 -6 -21 -5 -10 6 15
16 16 33 0 23 -7 -4 -8 -3 -4 4 9 15 46 16 46 2 0 -5 7 -10 15 -10 8 0 15 5
15 10 0 6 -7 10 -15 10 -17 0 -20 26 -4 35 5 4 20 -1 31 -12 15 -13 22 -15 25
-5 3 6 16 12 30 12 18 0 24 4 20 15 -4 8 -2 17 3 20 4 3 10 0 12 -6 4 -12 58
-2 58 12 0 5 7 9 15 9 9 0 27 7 40 16 14 9 33 13 45 9 11 -3 20 -3 20 2 0 22
346 -15 402 -43 44 -22 81 -80 82 -125 0 -23 4 -35 9 -30 5 5 16 7 23 4 19 -7
-23 87 -59 132 -25 31 -77 62 -171 100 l-40 15 70 34 c101 49 135 92 213 272
25 59 71 217 71 247 0 4 -22 7 -49 7 l-50 0 -11 -57 c-15 -77 -65 -194 -107
-249 -43 -56 -112 -109 -171 -130 -26 -9 -56 -20 -67 -25 -37 -15 -92 -27
-116 -23 -112 15 -179 28 -179 35 0 4 6 14 14 21 8 8 16 23 18 34 2 12 10 18
22 16 14 -3 17 1 13 13 -4 9 5 33 20 56 23 36 28 39 39 25 6 -9 18 -15 25 -13
8 2 4 -1 -8 -7 -13 -5 -23 -16 -23 -23 0 -9 7 -10 23 -4 12 4 27 6 33 4 7 -2
10 6 6 23 -4 24 -2 26 17 21 12 -3 34 1 49 9 15 8 33 14 40 14 16 0 105 40
100 45 -1 2 -26 -3 -55 -10 -85 -22 -147 -29 -139 -16 4 6 1 11 -8 11 -8 0
-18 -4 -21 -10 -3 -5 -14 -10 -23 -10 -14 1 -12 5 7 21 13 11 21 22 17 26 -3
3 3 12 14 20 11 8 31 34 46 58 14 25 29 45 33 45 4 0 27 18 52 40 l44 40 -93
0 c-92 0 -93 0 -87 -22 4 -13 11 -27 16 -32 14 -15 11 -26 -8 -26 -14 0 -15
-2 -4 -9 11 -7 9 -15 -13 -43 -14 -19 -26 -39 -26 -44 0 -5 -11 -21 -25 -36
-14 -15 -25 -29 -25 -32 0 -3 -11 -16 -25 -30 -14 -14 -25 -32 -25 -40 0 -10
-6 -13 -15 -10 -17 7 -20 -7 -4 -23 13 -13 -5 -53 -23 -53 -6 0 -4 8 5 18 21
23 13 32 -31 32 -26 0 -33 3 -28 15 3 9 0 15 -9 15 -8 0 -15 5 -15 11 0 5 -5
7 -12 3 -8 -5 -9 -2 -5 9 4 10 0 20 -10 25 -23 13 -45 69 -30 76 8 3 8 5 -1 5
-7 1 -20 8 -29 16 -8 8 -19 13 -24 10 -5 -4 -9 3 -9 14 0 12 5 21 10 21 6 0
10 5 10 11 0 5 -4 7 -10 4 -6 -4 -10 17 -10 54 0 46 -3 61 -14 61 -18 0 -23
-15 -36 -105 -12 -90 -13 -200 0 -245 5 -19 30 -60 55 -90 25 -30 45 -64 45
-75 0 -28 -64 -133 -121 -201 -26 -31 -76 -105 -110 -165 -35 -59 -66 -109
-69 -109 -3 0 -11 9 -18 21 -12 18 -7 28 46 99 129 171 170 364 121 575 -30
128 -35 138 -97 199 -93 90 -104 96 -166 96 -31 0 -56 -2 -56 -5 0 -3 16 -28
35 -55 19 -27 35 -54 35 -59 0 -5 6 -14 14 -20 24 -20 89 -161 93 -204 6 -64
9 -80 17 -99 5 -10 6 -25 2 -33 -3 -8 -1 -15 4 -15 11 0 1 -32 -14 -42 -6 -4
-6 -11 2 -21 7 -7 9 -16 6 -19 -3 -3 -11 -50 -19 -104 -13 -96 -15 -100 -55
-138 l-42 -39 -20 44 c-23 52 -40 102 -62 184 -32 116 -79 254 -87 250 -4 -3
-5 4 -2 15 3 11 1 20 -4 20 -16 0 -40 54 -52 120 -13 73 -46 187 -61 210 -19
30 -18 3 1 -55 11 -33 17 -71 14 -83 -4 -15 -2 -21 5 -17 5 3 10 -1 10 -9 0
-22 1 -28 11 -53 5 -14 5 -23 -1 -23 -6 0 -10 6 -10 14 0 17 -33 16 -40 -1
-12 -28 -211 88 -282 165 -12 12 -25 22 -29 22 -5 0 -19 11 -33 25 -20 20 -35
25 -72 25 l-46 0 4 -66 c3 -57 8 -70 31 -89 26 -23 26 -24 20 -130 -5 -91 -8
-106 -22 -102 -9 3 -64 23 -123 46 -112 43 -302 95 -478 131 -197 41 -536 18
-662 -43 -39 -20 -49 -21 -64 -10 -10 7 -34 13 -54 13 -50 0 -172 -32 -244
-64 -32 -14 -62 -26 -66 -26 -5 0 -28 27 -53 60 -57 77 -145 148 -239 193 -40
19 -88 47 -107 61 -28 21 -46 26 -90 26 -49 -1 -54 -2 -38 -14 9 -7 17 -18 17
-25 0 -6 4 -11 9 -11 5 0 24 -20 42 -45 19 -24 39 -45 44 -45 15 -1 59 -74 47
-78 -16 -5 -3 -34 30 -64 19 -18 24 -28 16 -31 -10 -4 -10 -6 -1 -6 9 -1 10
-8 4 -24 -7 -18 -5 -28 9 -40 10 -8 21 -12 25 -9 3 4 3 -2 -1 -13 -5 -11 -9
-14 -12 -7 -2 7 -8 12 -14 12 -6 0 -3 -9 7 -20 11 -12 16 -29 13 -44 -3 -14
-1 -27 5 -29 5 -1 -23 -27 -64 -57 -41 -30 -96 -72 -123 -94 l-48 -40 -44 47
c-23 26 -63 88 -88 139 -49 104 -135 232 -166 248 -26 14 -26 -2 1 -26 38 -34
146 -216 118 -198 -9 5 -11 2 -6 -9 8 -21 -24 -33 -35 -12 -5 8 -18 15 -29 15
-11 0 -18 4 -14 10 6 10 -49 43 -58 34 -8 -9 -58 27 -51 37 5 8 -10 13 -29 10
-10 -2 -192 124 -219 151 -11 11 -21 18 -23 16 -12 -12 88 -93 230 -188 44
-29 82 -56 85 -60 3 -3 22 -17 44 -30 58 -35 123 -94 118 -108 -2 -7 3 -12 11
-12 21 0 48 -45 40 -66 -5 -13 -3 -16 9 -11 12 4 17 -2 21 -21 4 -21 -2 -35
-30 -64 -20 -20 -40 -35 -45 -32 -4 3 -8 0 -8 -5 0 -6 -13 -11 -30 -11 -16 0
-30 4 -30 9 0 10 -38 7 -48 -3 -2 -3 14 -13 37 -22 l42 -17 -37 -38 c-20 -21
-40 -37 -43 -37 -3 1 -19 -4 -36 -11 -46 -19 -125 -26 -125 -12 0 7 -4 9 -10
6 -5 -3 -23 1 -40 10 -16 8 -30 12 -30 8 0 -5 -4 -3 -8 4 -4 6 -20 13 -37 16
-63 10 -83 19 -93 43 -6 13 -17 22 -24 20 -7 -1 -10 -1 -6 1 5 3 4 13 -2 22
-5 10 -7 21 -4 23 2 3 -2 11 -11 18 -8 7 -15 17 -15 22 0 5 -7 16 -15 24 -23
23 -18 36 8 24 20 -11 20 -10 -2 8 -14 11 -31 18 -38 15 -22 -9 -14 13 10 25
12 7 15 11 7 9 -9 -1 -17 3 -19 8 -1 6 -9 14 -17 18 -8 5 -12 12 -9 18 4 5 2
9 -4 9 -6 0 -15 18 -21 40 -7 26 -15 38 -22 34 -8 -5 -9 -1 -5 10 4 10 -2 33
-15 55 -21 37 -21 41 -8 124 9 63 10 107 3 167 -9 80 -9 82 9 60 20 -25 24
-10 7 23 -19 36 -70 97 -81 97 -5 0 -1 -15 10 -32z m3260 -97 c60 -62 96 -86
112 -76 6 3 10 1 10 -4 0 -6 5 -11 11 -11 5 0 7 5 4 10 -3 6 -2 10 3 10 6 0
12 -7 16 -15 3 -8 9 -14 13 -13 4 1 34 -8 67 -20 56 -22 121 -75 111 -92 -5
-8 24 -37 33 -32 3 1 7 -5 8 -14 1 -8 9 -23 17 -32 31 -36 73 -137 113 -272 2
-8 -20 10 -49 40 -86 88 -96 91 -34 10 31 -41 60 -79 65 -85 15 -19 24 -36 32
-65 8 -27 0 -22 -83 48 -151 128 -313 234 -463 304 -35 16 -66 34 -69 39 -3 5
-1 71 5 146 7 76 12 148 11 161 0 12 2 22 5 22 3 0 31 -26 62 -59z m-1950
-155 c39 -38 72 -73 72 -77 0 -11 -111 -71 -118 -64 -7 6 -6 5 -16 94 -4 36
-14 77 -22 92 -30 58 -14 50 84 -45z m1427 10 c412 -101 792 -311 1075 -596
163 -164 346 -419 356 -496 2 -20 7 -41 10 -45 8 -13 -9 -11 -31 5 -11 7 -60
31 -110 52 -49 21 -102 46 -116 56 -23 15 -31 16 -51 5 -14 -7 -23 -17 -21
-23 2 -6 -4 -17 -14 -25 -17 -13 -17 -13 -3 5 14 18 14 19 -8 7 -26 -14 -67
-11 -101 8 -23 13 -22 14 45 54 38 23 75 40 83 39 8 -2 10 1 5 9 -5 8 -3 10 7
7 193 -81 239 -101 262 -119 16 -11 31 -19 33 -16 9 9 -57 49 -143 87 -83 37
-86 39 -135 116 -56 89 -155 215 -166 212 -4 -1 -52 44 -107 99 -108 108 -263
223 -416 308 -167 94 -488 214 -669 250 -47 10 -87 19 -89 21 -2 2 43 4 100 4
76 0 131 -7 204 -24z m-335 -75 c58 -13 152 -38 209 -56 58 -19 108 -32 112
-29 4 2 9 -1 11 -7 2 -6 16 -11 31 -11 15 0 24 -4 21 -9 -3 -5 0 -10 5 -10 6
-1 25 -3 41 -5 55 -6 59 -7 54 -16 -3 -5 -10 -5 -16 -2 -6 4 -8 2 -5 -4 4 -5
17 -8 30 -6 12 2 16 1 8 -2 -9 -5 -4 -11 19 -20 17 -8 37 -11 43 -7 5 3 7 1 4
-4 -4 -7 20 -25 56 -43 163 -85 360 -213 497 -323 91 -74 280 -266 280 -285 0
-9 6 -12 18 -8 41 16 -26 -35 -93 -69 -65 -34 -70 -35 -82 -19 -7 10 -13 30
-13 46 0 21 -5 28 -19 28 -10 0 -49 11 -86 25 -53 20 -73 24 -100 16 -33 -9
-34 -8 -86 65 -29 41 -54 74 -55 74 0 0 -9 -10 -20 -21 -19 -21 -19 -22 4 -15
12 4 22 3 22 -2 0 -4 18 -33 41 -63 22 -30 43 -66 46 -81 6 -31 23 -28 23 3 0
18 5 20 53 15 28 -3 73 -10 98 -16 43 -10 48 -14 57 -51 5 -21 6 -36 1 -33 -5
3 -6 -9 -3 -26 8 -40 -2 -38 -45 8 -20 20 -40 38 -46 39 -5 1 -19 5 -29 9 -13
5 -17 4 -12 -4 7 -12 -3 -15 -76 -27 -20 -3 -38 -11 -40 -17 -3 -7 -12 -9 -22
-5 -13 5 -17 15 -14 32 11 53 -82 101 -180 93 -42 -4 -60 -10 -74 -28 -18 -22
-18 -22 -18 -2 0 24 42 58 118 96 28 15 52 29 52 32 0 20 -30 50 -94 93 l-73
50 -46 -42 c-56 -52 -117 -133 -117 -156 0 -23 -61 -42 -163 -49 l-78 -5 6
-136 c4 -75 9 -145 12 -156 2 -11 7 -28 9 -37 11 -38 -47 -18 -153 52 -57 39
-138 89 -179 111 -41 22 -74 42 -74 44 0 2 21 -3 48 -11 96 -29 90 -30 140 18
26 24 73 64 105 87 33 24 68 58 79 77 16 27 26 34 51 34 17 0 44 11 63 25 58
45 140 205 105 205 -7 0 -26 -7 -43 -16 -18 -9 -45 -20 -60 -25 l-28 -8 34 41
c19 22 46 68 59 101 30 74 26 93 -36 187 -24 36 -52 80 -61 99 -14 26 -22 32
-39 28 -12 -3 -56 -9 -98 -12 -70 -6 -78 -5 -83 11 -3 11 -26 41 -51 67 -50
55 -33 53 -224 21 -145 -24 -105 -30 59 -9 128 16 116 18 155 -29 34 -42 45
-63 25 -51 -5 3 -10 1 -10 -5 0 -6 8 -10 18 -8 11 2 18 -4 20 -18 6 -40 -27
-21 -69 42 -24 35 -47 60 -51 58 -4 -3 5 -24 20 -47 46 -68 47 -71 24 -58 -32
17 -44 14 -37 -9 4 -12 1 -27 -5 -35 -10 -12 -9 -15 9 -15 14 0 21 -6 21 -19
0 -11 5 -23 10 -26 20 -12 8 -51 -26 -78 -29 -25 -34 -26 -33 -10 1 27 13 55
24 53 5 -1 11 4 13 10 3 8 -3 10 -17 5 -18 -5 -21 -2 -21 19 0 19 -5 26 -19
26 -27 0 -51 -37 -51 -77 0 -21 -7 -37 -22 -47 -12 -9 -24 -13 -27 -10 -3 4 4
13 15 21 19 12 21 19 13 51 -5 22 -4 38 1 40 6 2 10 8 10 14 0 6 -7 8 -14 5
-10 -4 -13 -1 -9 9 5 14 9 16 36 18 6 1 19 8 28 17 9 9 23 19 30 21 8 3 12 8
8 11 -3 4 -24 -3 -47 -14 -33 -17 -45 -19 -56 -10 -8 7 -21 11 -28 9 -13 -3
-18 3 -18 22 0 5 21 22 47 37 30 18 42 29 32 31 -37 7 -120 -63 -104 -88 3 -5
-8 -16 -24 -25 -47 -24 -46 -36 1 -15 27 12 46 15 54 9 6 -5 14 -5 18 -1 4 4
3 -4 -4 -18 -10 -23 -66 -66 -81 -62 -4 1 -6 -6 -5 -16 0 -10 -5 -16 -14 -13
-8 2 -21 4 -27 4 -15 0 -27 32 -18 47 3 5 1 10 -5 10 -18 0 -23 -30 -11 -57
10 -23 10 -25 -2 -14 -12 9 -16 8 -21 -4 -3 -9 -2 -13 3 -10 5 3 12 1 16 -5 3
-5 1 -10 -5 -10 -7 0 -10 -7 -6 -15 6 -17 -9 -21 -19 -4 -5 7 -12 6 -23 -4
-47 -40 -49 -23 -5 43 16 25 23 49 23 85 0 70 13 85 85 92 48 5 55 8 34 14
-32 8 -106 -4 -122 -20 -6 -6 -13 -43 -15 -82 -4 -60 -8 -72 -28 -85 -12 -9
-28 -31 -34 -49 -11 -32 -13 -33 -38 -23 -15 7 -35 18 -44 26 -31 26 -40 5
-37 -82 4 -80 4 -81 -21 -82 -30 -2 -95 47 -115 87 -8 15 -15 45 -16 66 0 34
-1 36 -11 16 -14 -29 -3 -83 25 -124 l23 -34 -112 -64 c-62 -35 -127 -76 -146
-93 -38 -33 -26 -28 52 23 30 20 93 55 140 79 l84 42 34 -18 34 -18 -38 -13
c-56 -19 -100 -68 -140 -150 l-34 -73 -43 0 c-38 0 -191 -28 -249 -45 -22 -7
-22 -6 -4 7 15 12 16 17 6 23 -9 5 -11 4 -6 -3 5 -8 -2 -12 -18 -12 -16 0 -24
5 -21 13 3 6 -8 18 -24 25 -40 18 -45 40 -25 114 43 156 203 313 412 403 44
19 125 43 183 54 57 10 90 20 73 20 -131 4 -424 -105 -515 -192 -32 -31 -33
-31 -16 -4 42 67 50 77 58 71 5 -3 6 3 2 12 -4 12 -3 15 6 10 6 -4 10 -3 9 2
-2 5 6 18 17 28 12 11 14 15 5 9 -13 -9 -13 -8 -1 8 7 9 20 17 29 17 8 0 12 3
9 7 -7 7 22 32 38 32 6 0 1 -6 -9 -14 -11 -8 -15 -15 -9 -15 15 0 34 25 25 35
-4 5 2 5 13 1 11 -4 16 -4 12 0 -4 4 8 18 25 31 38 28 45 29 27 6 -14 -19 43
29 72 59 9 10 20 14 24 10 5 -4 5 -1 1 6 -4 6 -16 12 -27 12 -11 0 -17 -4 -14
-10 3 -6 -1 -7 -10 -4 -23 9 -6 24 80 67 61 31 154 57 250 71 82 11 324 -2
425 -23z m-803 -57 c3 -9 -3 -22 -18 -32 -13 -9 -40 -31 -59 -48 -32 -29 -37
-31 -55 -18 -27 20 -75 10 -170 -37 -73 -36 -280 -178 -271 -186 2 -2 47 24
100 58 100 62 221 123 266 133 23 5 23 4 -2 -6 -16 -7 -28 -16 -28 -21 0 -4
-4 -6 -9 -3 -12 8 -41 -4 -41 -16 0 -5 6 -6 13 -2 8 5 8 2 -2 -9 -9 -12 -10
-17 -2 -17 7 0 9 -5 5 -12 -5 -7 -2 -9 9 -5 9 3 18 0 21 -9 3 -8 13 -14 21
-14 9 0 14 4 11 9 -3 5 1 14 8 20 28 24 24 -7 -6 -43 -17 -20 -57 -83 -89
-139 l-59 -102 0 47 c0 60 -18 78 -73 77 -25 -1 -32 -3 -17 -6 72 -11 70 -9
70 -68 0 -32 -12 -93 -29 -147 -16 -51 -32 -106 -36 -122 -6 -29 -6 -29 -30
22 -13 28 -33 56 -45 62 -32 17 -96 5 -155 -29 -66 -38 -202 -157 -300 -264
-80 -86 -94 -92 -95 -39 0 23 81 147 223 342 38 52 56 82 39 65 -17 -16 -82
-100 -145 -187 l-115 -156 -16 65 -16 65 32 46 c157 233 411 472 677 639 46
29 87 50 92 47 5 -3 9 0 9 7 0 7 2 10 5 7 3 -3 40 5 83 18 93 28 190 32 199 8z
m-420 -46 c-3 -8 -6 -5 -6 6 -1 11 2 17 5 13 3 -3 4 -12 1 -19z m346 -83 c-15
-19 -29 -32 -32 -29 -4 4 48 64 56 64 2 0 -9 -16 -24 -35z m1422 25 c-3 -5
-12 -10 -18 -10 -7 0 -6 4 3 10 19 12 23 12 15 0z m-365 -15 c0 -8 5 -15 11
-15 6 0 9 6 6 13 -3 9 5 13 28 14 28 1 32 -2 27 -19 -2 -11 -11 -22 -18 -25
-8 -3 -14 -16 -14 -30 0 -20 -4 -23 -20 -18 -16 5 -20 2 -20 -14 0 -12 -4 -21
-10 -21 -10 0 -15 27 -12 63 1 12 -4 17 -15 15 -21 -4 -30 31 -11 43 21 14 48
10 48 -6z m1850 -14 l44 -18 -52 -12 c-65 -14 -96 -29 -152 -76 -77 -64 -82
-61 -36 23 58 105 99 122 196 83z m-2973 3 c-3 -3 -12 -4 -19 -1 -8 3 -5 6 6
6 11 1 17 -2 13 -5z m999 -29 c9 -38 -2 -41 -21 -6 -14 27 -14 31 0 31 8 0 17
-11 21 -25z m84 -63 c0 -10 -7 -3 -16 16 -9 17 -20 32 -25 32 -5 0 -9 6 -9 13
0 6 12 -1 25 -16 14 -15 25 -36 25 -45z m-1102 38 c-7 -10 -14 -17 -17 -15 -4
4 18 35 25 35 2 0 -1 -9 -8 -20z m807 -76 c0 -23 -5 -30 -23 -32 l-24 -4 22
22 c18 18 19 24 8 37 -11 14 -11 15 2 11 9 -3 15 -17 15 -34z m-2125 16 c0 -5
-4 -10 -10 -10 -5 0 -10 5 -10 10 0 6 5 10 10 10 6 0 10 -4 10 -10z m2093 -4
c4 -10 1 -13 -8 -9 -8 3 -12 9 -9 14 7 12 11 11 17 -5z m275 -97 c-13 -23 -35
-55 -50 -72 -16 -16 -28 -33 -28 -38 0 -5 -7 -9 -16 -9 -14 0 -15 2 -3 17 8
10 9 14 2 10 -6 -4 -14 -3 -18 3 -3 5 1 10 10 10 13 0 16 6 11 26 -6 24 -5 26
18 20 20 -5 25 -2 28 16 2 16 9 22 21 20 10 -2 17 3 17 12 0 12 10 21 28 25 2
1 -7 -18 -20 -40z m-305 1 c7 0 7 -4 -2 -9 -16 -10 -41 -4 -41 11 0 6 7 7 16
4 9 -3 21 -6 27 -6z m467 -20 c-6 -11 -13 -20 -16 -20 -2 0 0 9 6 20 6 11 13
20 16 20 2 0 0 -9 -6 -20z m-727 -30 c34 -19 68 -30 92 -30 l39 0 -22 -20
c-12 -12 -22 -27 -22 -35 0 -8 -6 -15 -14 -15 -22 0 -29 -19 -15 -36 15 -18
22 -67 8 -59 -5 4 -9 1 -9 -4 0 -17 -35 -13 -52 7 -42 48 -95 222 -68 222 5 0
34 -13 63 -30z m401 -39 c3 -4 -8 -6 -22 -5 -35 3 -34 3 -28 13 6 9 43 4 50
-8z m-70 -6 c-4 -8 -10 -12 -15 -9 -11 6 -2 24 11 24 5 0 7 -7 4 -15z m-156
-23 c8 -24 7 -28 -9 -29 -11 -1 -19 1 -19 5 0 4 -3 17 -6 30 -9 33 22 28 34
-6z m-238 -73 c0 -6 -4 -7 -10 -4 -5 3 -10 11 -10 16 0 6 5 7 10 4 6 -3 10
-11 10 -16z m3260 0 c0 -5 -4 -9 -10 -9 -5 0 -10 7 -10 16 0 8 5 12 10 9 6 -3
10 -10 10 -16z m-3290 -40 c0 -6 -8 -8 -19 -4 -11 3 -22 1 -25 -4 -4 -5 3 -12
14 -16 11 -3 20 -13 20 -21 0 -8 6 -14 13 -14 6 0 -8 -11 -33 -24 -25 -12 -45
-29 -45 -37 0 -17 45 -20 92 -6 29 9 36 7 73 -26 45 -41 40 -40 94 -27 44 10
82 -3 69 -23 -4 -7 0 -7 10 2 19 15 19 15 21 -49 1 -43 0 -46 -39 -62 -49 -21
-147 -23 -200 -3 -22 8 -49 14 -60 14 -11 -1 14 -12 55 -25 88 -28 154 -30
230 -5 54 17 56 17 107 -5 79 -35 403 -231 403 -244 0 -3 -18 -16 -40 -30 -22
-13 -40 -30 -40 -37 0 -7 19 -24 43 -39 23 -14 54 -40 69 -57 15 -18 28 -26
28 -20 0 7 -25 37 -55 68 l-55 55 32 20 c61 38 98 38 98 0 0 -10 6 -20 13 -23
6 -2 9 -8 5 -12 -4 -4 -15 6 -25 22 -23 38 -32 42 -44 21 -12 -21 0 -51 17
-44 19 7 59 -16 58 -34 0 -20 15 -40 32 -40 8 0 23 -8 34 -17 18 -16 18 -19 5
-40 -9 -13 -17 -36 -19 -51 -1 -16 -8 -37 -14 -47 -10 -18 -11 -17 -22 10 -24
58 -45 95 -53 95 -5 0 -5 -6 1 -12 5 -7 16 -33 23 -58 7 -25 19 -55 27 -68 17
-26 61 -51 80 -45 7 3 12 -4 12 -16 0 -12 -2 -21 -4 -21 -3 0 -47 26 -98 59
-260 163 -733 429 -744 418 -2 -2 46 -33 108 -67 123 -69 547 -323 669 -402
42 -26 79 -57 82 -67 2 -10 17 -21 34 -24 34 -7 172 -115 252 -197 131 -134
251 -353 279 -510 9 -48 8 -52 -4 -35 -8 10 -14 23 -14 28 0 4 -4 5 -10 2 -5
-3 -10 1 -10 9 0 22 -106 225 -136 261 -16 19 -2 -18 41 -105 48 -99 64 -141
60 -160 -4 -20 -3 -22 6 -10 9 12 10 11 6 -8 -3 -12 -1 -20 4 -16 5 3 9 1 9
-4 0 -5 3 -24 7 -42 5 -27 3 -32 -8 -25 -8 5 -7 0 4 -12 13 -15 17 -38 17
-106 0 -96 -25 -192 -86 -326 -19 -42 -38 -95 -41 -118 -6 -45 16 -129 66
-251 25 -62 26 -70 10 -62 -21 12 -122 138 -153 192 -27 49 -42 49 -17 1 37
-73 120 -181 173 -225 29 -25 134 -99 233 -163 99 -65 189 -124 200 -131 11
-8 72 -48 135 -90 159 -106 335 -282 413 -414 138 -233 175 -417 121 -600 -19
-65 -82 -194 -131 -268 -59 -88 -200 -196 -372 -284 -75 -39 -89 -43 -61 -21
89 72 87 78 -7 18 -177 -115 -274 -150 -473 -175 -52 -7 -122 -21 -156 -31
-73 -22 -150 -85 -163 -132 l-8 -32 -8 28 c-4 15 -11 27 -15 27 -5 0 -11 10
-13 23 -4 20 -4 20 -6 -3 0 -15 4 -31 11 -38 7 -7 9 -12 4 -12 -18 0 -37 32
-42 74 -4 29 -12 46 -20 46 -8 0 -14 7 -14 15 0 8 -7 15 -15 15 -29 0 -17
-144 19 -245 l8 -20 -17 20 c-9 11 -32 50 -51 87 -41 82 -44 142 -13 244 44
142 125 246 293 374 112 86 175 122 306 175 167 69 214 108 281 235 21 40 24
57 23 155 0 78 -5 122 -17 150 l-17 40 8 -40 c4 -22 7 -85 7 -140 0 -86 -3
-107 -25 -150 -40 -83 -126 -165 -204 -195 l-28 -10 21 32 c107 162 145 387
102 593 -12 55 -30 117 -40 137 -10 21 -17 38 -16 38 1 0 24 -28 50 -63 62
-80 71 -88 52 -52 -51 102 -189 249 -288 308 -95 55 -110 59 -509 117 -256 38
-323 99 -349 323 -8 61 -7 100 3 152 18 96 116 463 165 615 104 327 113 396
65 518 -60 151 -151 256 -322 371 -147 98 -581 311 -752 367 -97 33 -160 60
-189 82 -75 56 -121 76 -183 76 -62 1 -84 -13 -139 -88 -35 -48 -36 -39 -5 60
14 43 22 82 19 87 -4 6 -1 7 7 2 10 -6 12 -4 7 8 -3 9 1 18 10 21 9 4 13 9 10
12 -3 3 6 17 21 31 l27 24 -26 -16 c-35 -21 -83 -90 -73 -106 4 -7 3 -10 -3
-6 -6 4 -14 -1 -18 -11 -6 -15 -8 -15 -16 5 -5 15 -2 41 12 80 29 85 64 132
114 154 39 17 52 18 112 9 37 -6 103 -20 147 -31 94 -24 114 -18 24 7 -140 40
12 20 232 -31 14 -3 5 3 -20 14 -71 30 -244 62 -370 68 l-116 6 -68 -63 c-62
-59 -67 -61 -60 -34 9 40 39 98 58 113 9 7 14 17 11 21 -13 20 191 86 328 106
38 5 47 4 47 -9 0 -15 33 -30 123 -57 64 -20 51 -5 -18 19 -88 31 -93 39 -65
104 30 70 74 128 113 149 36 19 87 24 87 7z m1363 -95 c11 -20 9 -22 -60 -52
-70 -30 -134 -31 -165 -2 -18 17 -20 23 -10 45 7 16 17 23 24 19 7 -5 8 -3 3
5 -4 8 6 27 30 50 l36 38 67 -43 c36 -24 70 -51 75 -60z m-1329 55 c-3 -5 -10
-7 -15 -3 -5 3 -7 10 -3 15 3 5 10 7 15 3 5 -3 7 -10 3 -15z m2591 5 c98 -21
245 -78 258 -100 4 -8 14 -14 22 -14 7 0 17 -9 20 -20 3 -11 11 -20 17 -20 5
0 18 -10 28 -22 29 -36 36 -12 11 38 -12 26 -20 48 -18 50 6 7 151 7 167 0 50
-20 97 -32 108 -29 6 3 12 -2 12 -11 0 -9 3 -15 8 -14 4 1 31 -10 61 -25 30
-14 79 -29 108 -33 l53 -6 -24 -19 c-13 -11 -27 -19 -30 -19 -18 0 -212 -83
-239 -102 -18 -13 -34 -23 -37 -24 -3 0 -22 -8 -43 -18 -21 -9 -64 -19 -97
-22 -50 -4 -66 -1 -107 21 -103 54 -169 95 -193 118 -37 36 -80 85 -80 90 0 3
-15 21 -32 40 -18 19 -47 50 -65 70 -17 20 -33 34 -35 31 -3 -2 -22 5 -44 17
-34 17 -35 19 -11 16 15 -2 27 0 27 5 0 5 18 8 40 7 21 -2 42 0 46 4 4 4 15 5
23 3 9 -3 30 -8 46 -12z m-3366 -53 c22 -22 41 -101 41 -167 0 -37 -3 -44 -17
-42 -13 2 -17 -3 -15 -16 2 -11 -1 -15 -7 -11 -6 3 -11 -1 -11 -10 0 -9 3 -14
8 -12 4 3 8 -40 9 -95 2 -93 0 -99 -15 -85 -32 27 -48 31 -27 7 11 -13 14 -20
6 -15 -10 5 -12 3 -8 -11 3 -11 9 -37 13 -59 7 -38 6 -39 -12 -25 -16 13 -15
10 4 -23 32 -55 27 -69 -6 -16 -39 61 -117 127 -159 135 -18 4 -37 4 -40 0 -4
-3 4 -6 16 -6 62 0 124 -64 187 -193 54 -111 59 -150 13 -94 -41 50 -82 70
-125 63 -46 -9 -118 -86 -156 -166 -17 -36 -39 -76 -48 -90 -24 -34 -147 -277
-188 -369 -27 -63 -34 -72 -47 -61 -9 7 -17 11 -19 9 -15 -15 -93 -243 -112
-324 -2 -11 25 39 60 110 67 135 80 149 46 51 -35 -104 -72 -289 -77 -398 -10
-179 19 -301 100 -420 34 -50 44 -58 44 -33 0 8 -3 15 -6 15 -4 0 -12 10 -20
23 -14 22 -13 22 12 -2 15 -14 24 -31 22 -43 -3 -11 3 -21 13 -25 9 -4 21 -12
25 -20 4 -7 15 -13 24 -13 14 0 13 3 -3 21 -19 22 -19 22 4 10 16 -9 21 -18
17 -32 -5 -14 0 -22 19 -30 14 -7 23 -15 21 -20 -4 -6 58 -23 92 -24 28 -1
117 -81 135 -122 22 -50 37 -158 38 -271 0 -105 -14 -134 -123 -250 -142 -150
-158 -182 -25 -51 165 164 168 169 168 289 l0 95 21 -45 c53 -117 109 -270
115 -316 12 -100 -22 -154 -236 -364 -139 -137 -190 -209 -190 -270 0 -56 78
-177 206 -318 58 -64 78 -79 172 -124 138 -66 191 -102 208 -144 17 -41 18
-165 2 -219 l-12 -40 -7 40 c-3 22 -7 33 -8 25 -14 -124 -59 -256 -93 -276
-10 -6 -10 -4 0 9 8 9 10 22 6 28 -4 7 -3 9 3 6 12 -7 25 31 17 45 -8 12 -26
-2 -21 -16 3 -7 -1 -13 -8 -13 -7 0 -11 9 -8 21 2 12 -7 -4 -20 -34 -45 -101
-68 -150 -71 -150 -2 0 5 33 14 73 10 40 20 98 24 128 l6 54 -24 -70 c-22 -66
-23 -68 -30 -40 -4 17 -9 35 -10 40 -2 6 -6 -16 -10 -49 -20 -158 -104 -300
-193 -326 -65 -20 -108 -6 -170 53 -29 29 -60 70 -69 92 l-16 40 26 -24 c14
-14 28 -22 31 -19 3 3 -1 11 -10 18 -24 20 -18 33 7 16 41 -29 152 -12 199 30
11 10 26 38 34 63 l14 46 0 -47 c1 -52 -27 -139 -55 -169 -22 -25 -9 -24 26 1
68 49 95 176 62 287 -48 155 -166 281 -517 550 -154 118 -192 174 -216 320
-10 61 -9 86 5 165 35 190 121 316 315 460 155 115 207 164 235 220 14 28 23
54 20 57 -3 3 -9 -1 -14 -8 -6 -11 -12 -7 -23 16 -33 63 -118 124 -242 173
-147 58 -332 159 -379 206 -55 55 -99 142 -123 242 -26 111 -26 505 0 642 18
93 75 331 81 338 2 1 16 -3 31 -10 23 -10 26 -16 21 -42 -47 -232 -51 -273
-51 -486 1 -295 24 -394 116 -494 40 -44 66 -61 147 -96 200 -87 261 -119 305
-159 68 -63 100 -116 124 -210 20 -76 22 -80 18 -33 -10 93 -41 157 -113 233
-56 60 -82 78 -181 127 -64 31 -141 67 -171 80 -42 17 -51 25 -42 34 15 15 16
42 1 33 -6 -4 -9 -1 -8 6 2 8 -11 36 -29 63 -43 67 -89 181 -106 263 -33 162
-29 289 17 469 l22 88 64 43 c42 30 61 38 56 26 -37 -93 -76 -268 -74 -332 l1
-26 8 25 c7 23 8 23 11 -10 2 -34 2 -34 9 10 5 35 7 38 9 15 1 -23 3 -27 11
-15 5 8 10 11 11 5 2 -26 70 276 71 315 0 25 3 50 7 55 3 6 7 19 8 30 2 11 10
47 18 79 16 60 13 88 -4 45 -17 -42 -12 4 9 96 11 47 20 102 20 122 0 38 40
119 113 228 23 33 33 54 24 47 -9 -8 -39 -49 -67 -93 -28 -43 -52 -79 -54 -79
-2 0 8 51 21 113 26 126 63 248 105 351 15 38 28 78 28 90 0 33 235 258 352
337 98 67 163 84 197 50z m781 -10 c-8 -5 -33 -11 -55 -14 l-40 -6 30 14 c33
15 92 21 65 6z m1074 -47 c3 -8 2 -12 -4 -9 -6 3 -10 10 -10 16 0 14 7 11 14
-7z m1341 -10 c18 -7 128 -144 121 -151 -8 -8 -27 8 -21 17 3 5 1 11 -5 15 -5
3 -10 0 -10 -7 -1 -17 -70 61 -70 79 0 7 -3 13 -8 13 -4 0 -13 9 -20 20 -13
22 -12 23 13 14z m-3085 -34 c13 -24 12 -24 -5 -10 -17 14 -17 13 -11 -10 6
-19 5 -21 -3 -10 -9 12 -11 10 -12 -10 0 -14 -3 -19 -6 -13 -4 12 16 88 22 81
1 -2 8 -14 15 -28z m1830 -31 c-6 -10 -8 -30 -4 -44 5 -19 1 -33 -13 -48 -29
-32 -46 -83 -40 -116 6 -28 -17 -64 -32 -51 -3 3 -6 -4 -6 -15 0 -11 -6 -19
-13 -17 -8 1 -12 -6 -11 -20 4 -44 -1 -58 -16 -52 -8 4 -12 10 -9 15 3 5 1 9
-5 9 -19 0 -21 -19 -4 -29 10 -6 13 -11 6 -11 -21 0 -50 40 -57 78 -9 57 -7
72 9 72 10 0 15 -10 15 -30 0 -16 5 -30 10 -30 6 0 10 3 11 8 0 4 2 16 4 27 2
11 7 46 11 78 6 52 5 57 -13 57 -11 0 -29 -11 -41 -23 -50 -54 -50 -154 0
-235 17 -26 24 -41 17 -34 -17 16 -29 15 -29 -2 0 -8 -4 -17 -9 -21 -12 -7
-61 15 -61 27 0 5 -4 7 -10 3 -25 -16 -52 87 -65 251 -5 65 -4 82 8 87 7 3 19
2 26 -2 21 -14 60 -1 54 18 -3 12 -1 12 11 -3 14 -17 16 -18 16 -3 0 9 5 17
10 17 6 0 10 6 10 13 0 7 10 14 22 14 16 2 19 0 9 -6 -9 -6 -10 -11 -2 -15 6
-4 11 -2 11 4 0 7 8 9 19 5 10 -3 23 1 30 8 9 12 7 13 -14 9 -14 -2 -25 -2
-25 2 0 11 66 24 122 24 53 0 57 -2 48 -19z m-2540 -9 c0 -11 -4 -20 -9 -20
-5 0 -7 9 -4 20 3 11 7 20 9 20 2 0 4 -9 4 -20z m2731 -10 c21 -6 49 -24 63
-41 29 -34 34 -54 11 -45 -33 12 -13 -5 23 -19 60 -26 120 -95 81 -95 -6 0 -7
-5 -2 -12 8 -15 13 -38 7 -38 -9 0 -42 78 -36 86 4 5 3 6 -2 1 -11 -9 -48 22
-40 34 3 5 -1 6 -8 4 -8 -3 -25 6 -38 20 -23 25 -84 36 -92 16 -4 -12 -139
-83 -146 -77 -3 3 -11 -3 -19 -14 -39 -56 -37 20 2 80 13 19 31 51 41 71 16
35 19 37 67 38 28 0 68 -4 88 -9z m-1971 -10 c0 -5 -10 -14 -21 -21 -13 -6
-19 -7 -15 -1 3 6 1 12 -6 15 -7 2 -5 3 4 2 10 -2 21 1 24 6 7 12 14 11 14 -1z
m-770 -31 c0 -5 -4 -9 -8 -9 -5 0 -9 7 -9 15 0 8 4 12 9 9 4 -3 8 -9 8 -15z
m701 -12 c-10 -9 -11 -8 -5 6 3 10 9 15 12 12 3 -3 0 -11 -7 -18z m-731 -32
c0 -8 -4 -15 -10 -15 -5 0 -7 7 -4 15 4 8 8 15 10 15 2 0 4 -7 4 -15z m667
-17 c-3 -7 -5 -2 -5 12 0 14 2 19 5 13 2 -7 2 -19 0 -25z m2366 -5 c4 -2 5 -9
2 -14 -3 -5 0 -6 8 -3 21 8 67 -50 60 -76 -6 -22 -38 -44 -52 -35 -5 3 -7 14
-4 25 4 14 0 20 -11 20 -9 0 -16 3 -16 8 0 4 -4 13 -9 21 -8 12 -13 12 -24 3
-11 -10 -17 -9 -28 4 -10 13 -10 17 1 24 8 5 11 12 7 16 -3 4 -13 1 -21 -5 -9
-8 -16 -8 -20 -2 -16 25 71 36 107 14z m448 -7 c24 -13 72 -33 106 -44 82 -27
152 -69 166 -100 10 -21 8 -27 -13 -44 -13 -11 -30 -16 -39 -12 -9 3 -25 8
-36 11 l-20 4 20 -12 c65 -38 115 -110 94 -135 -9 -11 -8 -14 5 -14 11 0 16
-9 16 -30 0 -28 -2 -29 -20 -18 -11 7 -20 16 -20 19 0 4 -15 10 -32 14 -23 5
-27 9 -15 12 19 5 22 18 7 28 -17 10 0 26 21 20 13 -4 19 -2 19 9 0 9 -4 16
-10 16 -5 0 -15 12 -23 26 -13 25 -14 25 -32 8 -17 -17 -17 -18 4 -28 11 -5
21 -13 21 -19 0 -5 -7 -4 -15 3 -14 11 -14 10 -7 -11 11 -29 -7 -52 -29 -38
-11 7 -11 9 4 9 20 0 20 1 5 35 -10 22 -16 25 -37 20 -14 -4 -27 -10 -29 -15
-3 -8 -61 2 -81 14 -18 11 -13 26 7 19 16 -7 16 -6 0 10 -19 20 -14 43 14 69
16 13 25 14 49 6 41 -14 50 -2 10 15 -17 7 -28 17 -24 22 5 5 -9 -3 -29 -18
-20 -15 -42 -27 -49 -27 -7 0 -4 6 7 15 17 13 15 13 -21 4 -22 -6 -44 -17 -48
-25 -4 -8 -14 -14 -22 -14 -7 0 -16 -6 -19 -12 -3 -7 -4 -1 -1 14 4 20 0 30
-15 38 -11 6 -25 8 -31 4 -18 -11 1 39 20 54 9 7 14 14 11 16 -4 2 60 105 66
106 1 0 21 -11 45 -24z m-639 -23 c42 -46 51 -66 37 -95 -9 -23 -9 -23 -7 2 2
18 -8 36 -39 67 -24 23 -43 36 -43 29 0 -7 9 -21 20 -31 27 -24 25 -35 -5 -35
-18 0 -26 -7 -31 -25 -5 -21 -9 -23 -25 -14 -26 14 -24 38 8 71 15 15 22 28
16 28 -15 0 -78 -53 -79 -67 -2 -30 -5 -34 -14 -28 -15 9 -12 48 6 73 16 24
79 61 104 62 9 0 32 -17 52 -37z m-424 -21 c-12 -48 -43 -56 -34 -9 7 34 24
59 36 52 4 -3 4 -22 -2 -43z m-2551 21 c-4 -3 -2 -12 3 -18 11 -13 9 -49 -3
-61 -3 -4 -12 5 -18 20 -7 14 -17 26 -23 26 -6 0 0 9 14 20 24 19 40 27 27 13z
m123 -23 c0 -5 -4 -10 -10 -10 -5 0 -10 5 -10 10 0 6 5 10 10 10 6 0 10 -4 10
-10z m703 -15 c-3 -9 -8 -14 -10 -11 -3 3 -2 9 2 15 9 16 15 13 8 -4z m1937
-22 c-11 -21 -20 -57 -20 -80 0 -38 -3 -43 -22 -43 -31 0 -42 -10 -46 -39 -1
-17 2 -22 13 -18 8 4 17 2 20 -3 4 -6 1 -10 -5 -10 -6 0 -9 -4 -6 -8 4 -7 -9
-8 -45 -3 -7 1 -29 48 -29 62 0 6 4 8 9 4 5 -3 12 -1 16 5 3 5 1 10 -4 10 -36
0 17 78 85 127 26 18 49 33 51 33 2 0 -6 -17 -17 -37z m1130 -7 c0 -6 -7 -2
-15 8 -8 11 -15 25 -15 30 0 6 7 2 15 -8 8 -11 15 -25 15 -30z m-941 -37 c-14
-27 -29 -33 -29 -11 0 22 5 29 24 29 11 0 12 -5 5 -18z m974 1 c14 -11 29 -29
32 -40 3 -10 12 -20 19 -22 7 -2 31 -24 54 -50 28 -33 39 -53 35 -68 -8 -29
-19 -25 -32 11 -6 18 -15 28 -21 24 -7 -4 -14 2 -17 15 -4 13 -11 19 -20 15
-10 -3 -13 -1 -10 7 5 15 -17 40 -27 31 -3 -4 -6 -2 -6 3 0 6 6 16 13 23 10
10 9 11 -3 7 -10 -3 -23 7 -37 29 -25 40 -18 45 20 15z m-3896 -22 c-3 -8 -6
-5 -6 6 -1 11 2 17 5 13 3 -3 4 -12 1 -19z m796 -3 c-3 -9 -8 -14 -10 -11 -3
3 -2 9 2 15 9 16 15 13 8 -4z m2151 -9 c-6 -16 -24 -23 -24 -8 0 10 22 33 27
28 2 -2 1 -11 -3 -20z m-164 -16 c0 -5 -2 -10 -4 -10 -3 0 -8 5 -11 10 -3 6
-1 10 4 10 6 0 11 -4 11 -10z m298 -65 c-3 -23 -4 -24 -14 -8 -7 13 -8 28 0
53 10 34 10 35 14 8 2 -16 2 -39 0 -53z m-3247 26 c-7 -12 -7 -22 -2 -26 15
-9 -70 -116 -88 -113 -35 7 -23 46 36 111 55 61 78 73 54 28z m3004 5 c31 -31
32 -34 14 -39 -15 -4 -25 3 -38 24 -10 16 -21 26 -25 22 -4 -4 -4 0 0 10 8 23
9 22 49 -17z m125 25 c0 -14 -18 -23 -31 -15 -8 4 -7 9 2 15 18 11 29 11 29 0z
m304 -9 c3 -5 -1 -9 -9 -9 -8 0 -12 4 -9 9 3 4 7 8 9 8 2 0 6 -4 9 -8z m-3149
-32 c-4 -12 -9 -19 -12 -17 -3 3 -2 15 2 27 4 12 9 19 12 17 3 -3 2 -15 -2
-27z m3235 -50 c6 0 10 -7 10 -15 0 -8 -5 -15 -11 -15 -5 0 -7 5 -4 10 3 6 1
10 -4 10 -6 0 -11 -7 -11 -15 0 -20 -8 -19 -39 8 -27 23 -37 74 -13 70 6 -2
12 3 12 9 0 7 11 -4 25 -25 14 -20 30 -37 35 -37z m99 39 c-28 -22 -49 -24
-49 -6 0 19 5 22 41 23 l33 2 -25 -19z m151 1 c0 -5 -4 -10 -10 -10 -5 0 -10
5 -10 10 0 6 5 10 10 10 6 0 10 -4 10 -10z m-2863 -37 c-3 -10 -5 -4 -5 12 0
17 2 24 5 18 2 -7 2 -21 0 -30z m2293 24 c0 -8 -6 -14 -14 -14 -8 0 -12 6 -9
14 3 7 9 13 14 13 5 0 9 -6 9 -13z m-3162 -40 c2 -33 -12 -75 -55 -165 -14
-29 -23 -55 -20 -58 5 -6 8 -2 69 112 30 56 37 64 38 42 0 -15 -7 -33 -15 -42
-8 -8 -15 -22 -15 -31 0 -8 -6 -18 -14 -21 -8 -3 -17 -27 -21 -56 -9 -67 -31
-118 -51 -118 -8 0 -12 -4 -9 -10 3 -5 1 -10 -4 -10 -6 0 -10 -3 -10 -7 3 -21
-2 -33 -16 -33 -15 0 -19 -10 -16 -42 1 -10 -3 -18 -8 -18 -14 0 -13 52 2 205
12 119 13 121 57 180 36 49 81 105 84 105 1 0 2 -15 4 -33z m3719 27 c-3 -3
-12 -4 -19 -1 -8 3 -5 6 6 6 11 1 17 -2 13 -5z m-1177 -39 c4 3 13 -2 20 -10
11 -13 10 -14 -11 -7 -12 5 -24 14 -25 21 -1 6 0 7 3 1 2 -5 8 -8 13 -5z
m-1633 -17 c-3 -8 -6 -5 -6 6 -1 11 2 17 5 13 3 -3 4 -12 1 -19z m1749 -13
c-4 -19 -3 -35 2 -35 5 0 19 -23 31 -51 21 -51 21 -51 1 -46 -13 3 -24 -1 -30
-13 -13 -23 -13 -33 -1 -25 6 3 9 -7 8 -22 -1 -16 -8 -28 -14 -28 -6 0 -15 -3
-19 -7 -4 -5 -2 -8 5 -8 8 0 11 -8 8 -20 -3 -10 0 -21 7 -24 8 -3 8 -7 -1 -13
-7 -5 -16 -20 -22 -33 l-10 -25 0 25 c0 14 -3 75 -7 137 -7 120 0 188 18 177
7 -4 8 -2 4 5 -7 11 9 41 21 41 3 0 2 -16 -1 -35z m735 18 c13 -15 12 -15 -8
-4 -24 12 -29 21 -14 21 5 0 15 -7 22 -17z m209 3 c0 -11 -19 -15 -25 -6 -3 5
1 10 9 10 9 0 16 -2 16 -4z m-2429 -21 c88 -30 199 -138 263 -255 35 -64 27
-64 -14 -1 -17 27 -38 55 -47 63 -19 15 -20 16 40 -75 61 -93 115 -222 134
-320 18 -96 13 -231 -11 -292 l-15 -40 6 44 c4 29 2 42 -4 38 -6 -4 -8 3 -5
18 7 41 -8 160 -19 144 -8 -11 -9 -10 -8 6 1 11 -1 27 -4 35 -3 8 -11 42 -18
75 -49 253 -256 526 -389 513 -43 -4 -48 0 -27 21 10 11 8 11 -10 2 -24 -12
-83 -80 -83 -96 -1 -5 -7 -23 -15 -40 l-14 -30 6 30 c10 49 50 121 83 149 37
30 83 34 151 11z m1825 7 c9 -6 16 -42 8 -42 -1 0 -9 11 -18 25 -16 25 -12 32
10 17z m-426 -24 c0 -6 -6 -5 -15 2 -8 7 -15 14 -15 16 0 2 7 1 15 -2 8 -4 15
-11 15 -16z m1254 3 c4 -5 -3 -7 -14 -4 -23 6 -26 13 -6 13 8 0 17 -4 20 -9z
m-1299 -11 c3 -6 -1 -7 -9 -4 -18 7 -21 14 -7 14 6 0 13 -4 16 -10z m1585 -92
c-12 -5 -10 -8 8 -14 18 -5 22 -13 20 -33 -2 -14 -9 -25 -15 -23 -7 1 -13 -5
-13 -13 0 -8 -4 -15 -9 -15 -6 0 -9 12 -8 28 2 22 -2 27 -19 26 -14 0 -20 4
-17 13 3 7 13 13 22 13 14 0 14 2 1 10 -12 7 -12 12 -2 22 6 6 12 30 13 53 l1
40 16 -50 c15 -44 16 -51 2 -57z m-4255 35 c-8 -21 -17 -72 -20 -113 -6 -71
-8 -75 -31 -76 -23 -2 -24 1 -24 52 0 41 8 70 30 114 17 33 37 60 44 60 12 0
12 -5 1 -37z m3971 12 c-36 -19 -42 -19 -26 0 7 8 22 15 34 15 18 0 17 -2 -8
-15z m144 1 c0 -3 -4 -8 -10 -11 -5 -3 -10 -1 -10 4 0 6 5 11 10 11 6 0 10 -2
10 -4z m-1137 -36 c22 -8 27 -14 22 -30 -5 -15 -2 -19 12 -18 10 2 18 -1 18
-7 0 -5 -4 -9 -9 -7 -5 2 -6 -4 -3 -11 4 -11 0 -13 -14 -10 -11 3 -19 10 -18
17 3 24 -3 60 -8 49 -6 -16 -43 -17 -43 -2 0 5 4 8 9 4 5 -3 12 -1 15 4 4 5
-4 11 -16 13 -12 2 -23 9 -26 16 -3 11 0 11 14 3 11 -6 32 -15 47 -21z m-2016
-24 l38 -34 -51 5 c-49 4 -52 3 -87 -36 -23 -26 -43 -63 -57 -108 -38 -122
-42 -202 -16 -343 4 -23 -2 -15 -15 23 -27 74 -36 67 -14 -9 61 -210 233 -359
348 -303 22 10 22 10 2 -6 -11 -9 -31 -19 -44 -22 -31 -8 -118 20 -167 53
l-39 26 29 -31 c16 -17 48 -40 70 -51 23 -11 33 -20 23 -20 -69 0 -188 106
-240 213 -44 90 -57 153 -57 271 0 169 33 268 120 358 60 62 101 66 157 14z
m1763 4 c0 -5 -4 -10 -10 -10 -5 0 -10 5 -10 10 0 6 5 10 10 10 6 0 10 -4 10
-10z m1400 -40 c-6 -11 -12 -20 -14 -20 -2 0 -2 9 1 20 3 11 9 20 15 20 5 0 4
-9 -2 -20z m-1276 -5 c-4 -8 -10 -12 -15 -9 -11 6 -2 24 11 24 5 0 7 -7 4 -15z
m-2704 -5 c0 -5 -2 -10 -4 -10 -3 0 -8 5 -11 10 -3 6 -1 10 4 10 6 0 11 -4 11
-10z m3943 -25 c-3 -9 -8 -14 -10 -11 -3 3 -2 9 2 15 9 16 15 13 8 -4z m117
-4 c0 -11 -4 -22 -9 -25 -5 -3 -8 5 -7 19 1 29 16 34 16 6z m-513 -13 c-3 -8
-6 -5 -6 6 -1 11 2 17 5 13 3 -3 4 -12 1 -19z m-2620 -10 c-3 -8 -6 -5 -6 6
-1 11 2 17 5 13 3 -3 4 -12 1 -19z m-922 2 c3 -5 1 -10 -4 -10 -7 0 -11 -23
-11 -54 0 -46 -3 -54 -20 -59 -18 -4 -20 -2 -14 16 4 12 11 25 16 28 6 4 7 16
3 28 -12 38 12 79 30 51z m4132 -12 c-3 -8 -6 -5 -6 6 -1 11 2 17 5 13 3 -3 4
-12 1 -19z m-1042 2 c-3 -5 -12 -10 -18 -10 -7 0 -6 4 3 10 19 12 23 12 15 0z
m855 4 c0 -8 -19 -13 -24 -6 -3 5 1 9 9 9 8 0 15 -2 15 -3z m179 -49 c0 -5 -4
-3 -9 5 -5 8 -9 22 -9 30 0 16 17 -16 18 -35z m-189 10 c0 -9 -6 -12 -16 -8
-13 5 -13 7 -2 14 17 11 18 11 18 -6z m-300 -15 c0 -5 -5 -10 -11 -10 -5 0 -7
5 -4 10 3 6 8 10 11 10 2 0 4 -4 4 -10z m-38 -7 c-19 -8 38 -41 61 -35 9 2 17
13 17 23 0 30 16 22 35 -17 22 -47 8 -65 -32 -38 -15 10 -31 19 -35 19 -3 0
-10 3 -14 8 -4 4 -16 7 -26 7 -10 0 -18 2 -18 4 0 2 -3 11 -6 20 -4 11 -1 16
12 15 12 0 14 -2 6 -6z m68 3 c0 -3 -4 -8 -10 -11 -5 -3 -10 -1 -10 4 0 6 5
11 10 11 6 0 10 -2 10 -4z m145 -6 c3 -6 -1 -7 -9 -4 -18 7 -21 14 -7 14 6 0
13 -4 16 -10z m-36 -31 c-20 -12 2 -17 81 -21 72 -3 84 -17 40 -49 -21 -15
-32 -17 -65 -9 -45 10 -79 44 -72 72 3 10 1 18 -4 18 -5 0 -9 5 -9 10 0 7 7 7
21 -1 17 -9 19 -13 8 -20z m343 -62 c-3 -55 -8 -84 -13 -75 -5 7 -9 25 -9 40
0 28 20 132 25 126 1 -2 0 -43 -3 -91z m-1338 52 c-3 -5 -10 -7 -15 -3 -5 3
-7 10 -3 15 3 5 10 7 15 3 5 -3 7 -10 3 -15z m81 12 c3 -5 1 -12 -5 -16 -5 -3
-10 1 -10 9 0 18 6 21 15 7z m-158 -13 c-2 -7 -10 -12 -16 -10 -6 1 -14 -5
-17 -13 -4 -8 -14 -15 -23 -15 -11 0 -7 7 14 25 33 27 49 32 42 13z m40 -44
c-9 -9 -28 6 -21 18 4 6 10 6 17 -1 6 -6 8 -13 4 -17z m80 0 c-9 -9 -28 6 -21
18 4 6 10 6 17 -1 6 -6 8 -13 4 -17z m-712 -93 c21 -23 36 -41 32 -41 -3 0
-15 10 -26 21 -20 22 -20 22 -18 1 0 -11 4 -20 7 -20 17 3 62 -26 89 -59 41
-49 157 -284 171 -346 15 -71 45 -144 75 -183 15 -20 25 -37 23 -40 -2 -2 -31
18 -64 44 -71 57 -94 98 -174 302 -34 87 -81 185 -106 223 -25 37 -42 72 -39
78 4 5 3 8 -2 7 -5 -2 -40 26 -79 61 l-69 63 70 -35 c39 -19 88 -54 110 -76z
m-2136 83 c6 4 11 2 11 -3 0 -6 -9 -11 -20 -11 -12 0 -20 7 -20 18 0 13 2 14
9 3 5 -7 14 -10 20 -7z m2834 -14 l72 -1 32 -79 c17 -44 29 -80 27 -80 -16 0
-80 41 -144 93 -93 75 -100 82 -77 73 10 -3 51 -6 90 -6z m642 -1 c4 7 12 7
25 -1 17 -11 17 -14 4 -40 -18 -35 -47 -51 -62 -36 -15 15 -15 48 -1 48 8 0 9
4 0 13 -14 17 -2 30 15 16 8 -7 14 -7 19 0z m1115 6 c0 -11 -53 -55 -82 -69
-45 -21 -178 -66 -196 -66 -28 0 -1 15 46 26 l47 12 -40 1 -40 1 65 37 c36 20
85 42 110 49 46 13 90 18 90 9z m-970 -9 c0 -3 -4 -8 -10 -11 -5 -3 -10 -1
-10 4 0 6 5 11 10 11 6 0 10 -2 10 -4z m40 -52 c0 -8 4 -13 9 -10 15 10 60
-19 64 -41 5 -27 -13 -31 -20 -5 -3 14 -11 18 -28 15 -25 -5 -57 30 -48 53 6
17 23 8 23 -12z m-313 -30 c-4 -4 -14 1 -22 12 -22 29 -18 41 7 17 12 -13 19
-26 15 -29z m73 36 c0 -5 -4 -10 -10 -10 -5 0 -10 5 -10 10 0 6 5 10 10 10 6
0 10 -4 10 -10z m190 -15 c13 -14 19 -25 14 -25 -8 1 -50 50 -41 50 2 0 14
-11 27 -25z m-3763 1 c-4 -10 0 -12 14 -9 26 7 24 -10 -5 -44 l-24 -28 -27 25
-26 25 28 22 c32 26 48 29 40 9z m2463 -113 c0 -6 -21 7 -41 24 -9 8 -20 13
-25 11 -5 -2 -10 1 -11 5 -1 4 -12 17 -25 28 -13 12 5 2 40 -22 34 -23 62 -44
62 -46z m1469 68 c10 -18 6 -31 -10 -31 -3 0 -9 11 -11 25 -6 29 7 33 21 6z
m301 -66 c0 -142 -44 -292 -118 -404 -20 -29 -71 -92 -114 -138 -43 -46 -90
-101 -106 -121 -34 -47 -53 -61 -70 -55 -9 4 -12 -1 -9 -18 2 -13 2 -18 0 -11
-7 19 -19 14 -20 -8 -1 -11 2 -18 8 -15 5 4 9 0 9 -7 0 -8 5 -6 11 5 6 10 8
26 4 35 -3 9 -3 13 1 9 4 -4 13 -2 20 4 7 6 4 -12 -9 -44 l-21 -54 -26 41
c-35 54 -45 75 -27 54 13 -16 15 -16 36 8 12 14 20 32 17 40 -3 9 -1 12 4 9 6
-4 10 10 10 33 0 68 69 243 126 317 28 38 84 149 84 169 0 24 16 28 52 12 18
-8 27 -15 20 -15 -7 -1 -10 -6 -7 -11 8 -13 -4 -52 -15 -45 -8 5 4 -62 13 -71
5 -5 47 99 47 116 0 6 7 10 15 10 8 0 17 10 19 23 22 103 25 127 16 158 -7 24
-6 35 3 41 24 15 27 7 27 -67z m-647 30 c33 -29 35 -40 5 -24 -13 7 -25 13
-28 13 -3 1 -4 5 -2 9 1 5 -7 6 -18 2 -15 -5 -18 -3 -14 9 8 22 24 19 57 -9z
m387 9 c0 -8 -4 -12 -10 -9 -5 3 -10 10 -10 16 0 5 5 9 10 9 6 0 10 -7 10 -16z
m287 -61 c-3 -10 -5 -2 -5 17 0 19 2 27 5 18 2 -10 2 -26 0 -35z m-4227 27 c0
-5 -2 -10 -4 -10 -3 0 -8 5 -11 10 -3 6 -1 10 4 10 6 0 11 -4 11 -10z m3500 0
c0 -5 -4 -10 -10 -10 -5 0 -10 5 -10 10 0 6 5 10 10 10 6 0 10 -4 10 -10z
m240 6 c0 -3 -4 -8 -10 -11 -5 -3 -10 -1 -10 4 0 6 5 11 10 11 6 0 10 -2 10
-4z m-1260 -51 c19 -19 32 -35 29 -35 -3 0 -20 16 -39 35 -19 19 -32 35 -29
35 3 0 20 -16 39 -35z m-2449 -8 c-8 -8 -11 -7 -11 4 0 20 13 34 18 19 3 -7
-1 -17 -7 -23z m3469 13 c-9 -6 -10 -10 -3 -10 6 0 15 5 18 10 3 6 10 10 16
10 16 0 10 -15 -13 -29 -19 -12 -23 -11 -35 5 -12 16 -11 19 4 25 23 8 32 1
13 -11z m-918 -125 c9 10 58 -79 85 -152 25 -70 29 -131 12 -199 -12 -47 -31
-72 -23 -30 3 18 -7 35 -42 72 -56 57 -75 98 -120 255 -19 66 -38 129 -44 139
-25 47 -4 39 58 -23 37 -37 71 -65 74 -62z m1218 113 c0 -4 -7 -8 -15 -8 -8 0
-15 4 -15 8 0 5 7 9 15 9 8 0 15 -4 15 -9z m35 -18 c-3 -11 0 -22 9 -27 20
-11 24 -37 6 -38 -8 0 -14 -6 -13 -11 1 -6 -5 -11 -13 -11 -8 0 -13 6 -10 14
3 7 1 13 -3 13 -5 0 -12 -6 -14 -12 -3 -8 -6 -5 -6 6 -1 15 4 17 24 12 28 -7
32 0 10 24 -15 17 -10 64 7 54 5 -3 6 -14 3 -24z m-250 -10 c-3 -5 -10 -10
-16 -10 -5 0 -9 5 -9 10 0 6 7 10 16 10 8 0 12 -4 9 -10z m185 -30 c12 -7 10
-9 -8 -7 -12 0 -22 5 -22 9 0 11 12 10 30 -2z m-3730 -10 c0 -5 -4 -10 -10
-10 -5 0 -10 5 -10 10 0 6 5 10 10 10 6 0 10 -4 10 -10z m3923 -7 c15 -3 27
-12 27 -19 0 -21 -49 -127 -69 -149 -10 -11 -20 -24 -22 -30 -25 -66 -146
-222 -190 -246 -15 -8 -23 -3 -43 28 l-25 38 29 93 c25 75 30 109 30 187 0 52
2 95 4 95 3 0 21 -10 42 -22 l37 -22 -6 -80 c-4 -70 -22 -144 -52 -221 -15
-37 44 25 80 85 38 65 54 110 59 171 5 55 35 111 56 103 8 -3 27 -8 43 -11z
m-1392 -10 c13 -16 12 -17 -3 -4 -17 13 -22 21 -14 21 2 0 10 -8 17 -17z
m-2581 -38 c-8 -10 -8 -15 1 -20 6 -4 15 -2 19 5 9 15 30 4 30 -16 0 -17 -23
-17 -67 -1 l-32 12 21 33 c18 29 23 31 30 17 6 -10 6 -21 -2 -30z m96 -46 c3
-6 14 -9 24 -6 37 9 28 -22 -17 -62 -25 -22 -49 -41 -53 -41 -8 0 5 94 15 110
8 13 22 13 31 -1z m345 -20 c-5 -13 -10 -19 -10 -12 -1 15 10 45 15 40 3 -2 0
-15 -5 -28z m3784 -383 c36 -228 125 -400 297 -574 l72 -73 -104 57 c-181 98
-226 132 -290 219 -99 134 -136 282 -112 452 10 68 58 190 70 178 3 -3 0 -11
-6 -17 -7 -7 -12 -16 -12 -21 0 -6 12 3 26 18 17 19 25 37 24 59 -1 17 -1 45
0 61 2 17 7 -36 11 -116 4 -80 15 -189 24 -243z m223 -81 c75 -199 159 -364
257 -500 52 -71 69 -103 44 -78 -6 6 -19 9 -28 6 -14 -4 -14 -3 -1 6 10 7 11
11 3 11 -20 0 -38 -41 -22 -51 7 -4 16 -6 20 -3 4 2 10 -3 13 -12 12 -30 -75
29 -164 114 -105 98 -173 187 -228 297 -59 120 -77 180 -76 265 0 88 27 332
31 280 11 -138 27 -152 38 -33 l7 78 38 -150 c21 -82 51 -186 68 -230z m-199
200 c-1 -53 -3 -63 -9 -40 -12 46 -12 143 0 125 5 -8 9 -46 9 -85z m222 78
c16 -3 29 -10 29 -15 0 -6 7 -8 15 -4 8 3 22 3 31 -1 12 -4 8 -10 -17 -21 -19
-8 -42 -14 -51 -14 -11 0 -15 -5 -11 -14 3 -8 1 -14 -3 -14 -12 0 -35 51 -28
61 3 5 0 9 -6 9 -6 0 -19 8 -28 17 -16 15 -15 16 12 9 15 -4 41 -10 57 -13z
m-47 -61 c11 -22 11 -29 1 -39 -10 -10 -14 -6 -20 15 -3 15 -8 35 -12 46 -8
26 14 11 31 -22z m-3943 -362 c21 -116 29 -178 24 -210 -4 -25 -8 -57 -8 -72
-2 -23 -4 -25 -15 -14 -9 9 -14 46 -16 112 -1 54 -9 133 -18 174 -9 41 -19
120 -22 175 l-5 100 15 -50 c8 -27 28 -124 45 -215z m-66 115 c21 -147 25
-299 8 -316 -15 -15 -52 64 -60 130 -5 41 24 317 33 309 1 -2 10 -57 19 -123z
m3000 75 c-3 -4 3 -14 13 -21 15 -13 16 -12 3 4 -9 11 -10 17 -2 17 10 0 15
-14 12 -34 -1 -5 11 -23 27 -40 60 -66 62 -71 12 -46 -25 12 -60 33 -77 47
-30 22 -33 29 -33 75 l0 51 25 -23 c13 -12 22 -26 20 -30z m363 -35 c-3 -3 -9
2 -12 12 -6 14 -5 15 5 6 7 -7 10 -15 7 -18z m-292 -22 c-7 -7 -26 7 -26 19 0
6 6 6 15 -2 9 -7 13 -15 11 -17z m-146 -28 c0 -19 -4 -35 -8 -35 -4 0 -6 16
-4 35 2 19 6 35 8 35 2 0 4 -16 4 -35z m-4060 21 c0 -3 -4 -8 -10 -11 -5 -3
-10 -1 -10 4 0 6 5 11 10 11 6 0 10 -2 10 -4z m138 -7 c104 -11 122 -18 165
-58 24 -22 37 -26 77 -24 45 2 51 -1 84 -37 56 -63 92 -145 99 -225 5 -66 3
-73 -34 -147 -32 -65 -43 -78 -63 -78 -18 0 -26 7 -31 28 -14 57 -142 151
-228 167 -21 4 -37 11 -37 17 0 5 -5 6 -10 3 -16 -10 -40 14 -41 39 0 18 -1
19 -7 3 -7 -16 -8 -16 -24 0 -35 37 -45 42 -58 30 -10 -9 -12 -8 -7 6 4 9 3
17 -1 17 -4 0 -8 61 -10 135 -2 117 0 135 13 135 9 0 59 -5 113 -11z m4053
-73 c185 -92 340 -207 403 -299 83 -120 105 -255 70 -425 -19 -93 -72 -234
-85 -227 -5 4 -6 0 -3 -8 5 -15 -38 -111 -54 -121 -8 -5 -122 70 -122 81 0 3
10 19 22 35 27 38 68 136 67 163 0 11 -13 -11 -30 -50 -16 -38 -43 -85 -59
-103 l-30 -32 -97 67 c-54 37 -100 68 -101 69 -2 1 10 31 27 66 34 69 52 146
50 217 -1 39 -3 34 -15 -38 -14 -84 -55 -191 -81 -212 -11 -9 -19 -7 -38 11
-38 36 -115 204 -128 279 -12 65 -12 65 -17 26 -5 -39 -6 -38 -27 43 l-21 83
32 79 c17 44 36 80 42 80 19 0 127 -84 155 -121 32 -42 69 -114 80 -154 8 -28
8 -28 5 6 -10 91 -104 224 -189 269 -41 22 -44 26 -34 47 5 13 13 23 16 23 12
0 164 -81 228 -122 117 -74 204 -201 234 -343 12 -56 17 -69 18 -45 2 81 -44
198 -107 270 -30 36 -34 58 -4 28 6 -6 14 -9 17 -6 12 12 -336 238 -366 238
-13 0 -12 8 12 81 11 35 22 70 25 77 5 17 6 17 105 -32z m419 19 c0 -14 -4
-25 -9 -25 -4 0 -6 11 -3 25 2 14 6 25 8 25 2 0 4 -11 4 -25z m-37 -29 c-3
-19 -1 -36 6 -40 7 -5 9 -1 5 8 -3 9 -2 16 4 16 14 0 22 -26 22 -74 0 -23 6
-66 14 -96 8 -30 13 -56 12 -57 -6 -6 -77 125 -88 159 -9 32 -8 44 7 78 10 22
19 40 21 40 1 0 0 -15 -3 -34z m-526 -8 c-3 -7 -5 -2 -5 12 0 14 2 19 5 13 2
-7 2 -19 0 -25z m-4047 12 c0 -5 -4 -10 -10 -10 -5 0 -10 5 -10 10 0 6 5 10
10 10 6 0 10 -4 10 -10z m-5 -80 c3 -5 1 -10 -4 -10 -6 0 -11 5 -11 10 0 6 2
10 4 10 3 0 8 -4 11 -10z m5855 0 c0 -5 -5 -10 -11 -10 -5 0 -7 5 -4 10 3 6 8
10 11 10 2 0 4 -4 4 -10z m40 -40 c0 -5 -5 -10 -11 -10 -5 0 -7 5 -4 10 3 6 8
10 11 10 2 0 4 -4 4 -10z m-40 -40 c0 -5 -5 -10 -11 -10 -5 0 -7 5 -4 10 3 6
8 10 11 10 2 0 4 -4 4 -10z m-5766 -239 c44 -19 45 -21 35 -47 -9 -26 -9 -27
8 -13 26 22 64 21 84 -2 10 -12 23 -18 29 -14 17 10 38 -19 44 -61 3 -21 3
-31 0 -21 -5 16 -17 22 -38 18 -4 -1 -15 4 -23 11 -19 15 -36 -8 -23 -32 12
-22 1 -60 -16 -60 -7 0 -16 -11 -20 -25 -6 -24 -24 -35 -24 -15 0 6 -6 5 -14
-2 -8 -7 -12 -16 -10 -20 2 -4 -1 -10 -7 -13 -12 -8 -56 35 -51 50 2 5 0 7 -3
3 -4 -4 -21 0 -38 8 -21 11 -43 14 -73 9 -40 -6 -45 -4 -55 18 -9 21 -8 30 11
55 l22 29 -31 60 -30 61 37 15 c47 21 125 15 186 -12z m71 -11 c3 -5 1 -10 -4
-10 -6 0 -11 5 -11 10 0 6 2 10 4 10 3 0 8 -4 11 -10z m386 -232 c-16 -53 -33
-114 -36 -135 -6 -35 -4 -33 18 18 45 106 80 149 121 149 23 0 20 -14 -21
-110 -32 -74 -37 -97 -41 -185 -5 -117 12 -204 58 -295 40 -79 47 -77 10 3
-36 76 -50 145 -50 247 0 95 9 147 22 128 6 -8 7 -3 4 17 -3 17 -1 37 4 45 8
12 10 11 8 -5 -2 -11 2 -21 7 -22 6 -1 9 5 7 14 -2 10 1 12 9 7 8 -4 10 -3 5
4 -4 7 -2 20 4 29 10 16 11 16 5 -2 -4 -12 6 -5 27 18 l33 38 45 -31 c25 -17
44 -35 42 -41 -1 -6 3 -7 9 -4 11 8 89 -23 89 -35 0 -4 -20 -53 -44 -108 -85
-191 -96 -288 -45 -390 28 -56 58 -91 104 -117 16 -10 16 -11 -1 -25 -17 -14
-18 -13 -6 1 10 14 10 18 -4 23 -9 3 -20 3 -25 0 -5 -3 -8 0 -7 7 2 6 -1 13
-7 15 -6 2 -11 -17 -13 -43 -1 -26 -4 -48 -6 -51 -3 -2 -13 16 -24 40 -20 45
-52 81 -52 58 0 -10 -3 -10 -15 0 -12 10 -15 10 -15 -1 0 -9 -3 -10 -8 -4 -4
6 -17 12 -29 12 -18 1 -20 -1 -10 -12 6 -7 16 -10 21 -7 5 3 6 0 2 -7 -5 -7
-1 -20 8 -30 21 -23 56 -122 56 -158 l0 -28 -21 35 c-31 51 -74 95 -162 162
-176 134 -244 296 -218 516 20 170 67 320 134 430 l32 54 3 -64 c2 -48 -4 -86
-27 -160z m5346 57 c0 -63 -4 -115 -7 -115 -4 0 -12 -18 -19 -41 -14 -47 0
-54 -129 61 -97 86 -97 86 23 122 70 21 115 50 115 75 0 7 4 13 9 13 6 0 9
-48 8 -115z m-1908 -17 c42 -99 57 -160 20 -78 -22 49 -69 169 -69 178 0 12
10 -8 49 -100z m-3739 32 c0 -5 -4 -10 -10 -10 -5 0 -10 5 -10 10 0 6 5 10 10
10 6 0 10 -4 10 -10z m-23 -42 c-3 -8 -6 -5 -6 6 -1 11 2 17 5 13 3 -3 4 -12
1 -19z m5713 -38 c0 -5 -4 -10 -10 -10 -5 0 -10 5 -10 10 0 6 5 10 10 10 6 0
10 -4 10 -10z m0 -80 c0 -5 -5 -10 -11 -10 -5 0 -7 5 -4 10 3 6 8 10 11 10 2
0 4 -4 4 -10z m-1876 -16 c4 -10 1 -14 -6 -12 -15 5 -23 28 -10 28 5 0 13 -7
16 -16z m1836 -24 c0 -5 -4 -10 -10 -10 -5 0 -10 5 -10 10 0 6 5 10 10 10 6 0
10 -4 10 -10z m-4812 -81 l22 -9 -35 -46 c-121 -158 -149 -320 -73 -427 29
-40 12 -56 -40 -38 -91 33 -135 99 -133 203 1 83 23 155 84 270 l51 96 50 -20
c28 -11 61 -24 74 -29z m-1078 15 c15 -12 20 -14 40 -14 6 0 10 -5 10 -11 0
-6 -7 -9 -15 -5 -17 6 -19 -2 -5 -24 9 -13 11 -13 20 0 9 13 13 12 28 -6 27
-33 63 -49 73 -33 7 11 9 10 9 -4 0 -23 18 -13 30 17 8 19 9 19 9 -8 1 -23 4
-26 15 -17 11 9 15 5 20 -20 3 -17 10 -28 16 -24 6 4 8 11 5 16 -4 5 -1 9 5 9
7 0 9 -7 6 -16 -4 -12 -2 -15 9 -10 39 14 -11 -62 -82 -127 -28 -26 -69 -39
-118 -38 -10 0 -25 -5 -33 -11 -14 -12 -95 -13 -144 -3 -22 5 -29 12 -27 28 0
12 0 24 -1 27 -19 51 -13 130 16 200 14 36 31 71 37 78 12 15 56 13 77 -4z
m114 -25 c-3 -5 -10 -7 -15 -3 -5 3 -7 10 -3 15 3 5 10 7 15 3 5 -3 7 -10 3
-15z m1065 -30 l48 -20 -1 -62 c-1 -50 5 -73 27 -116 15 -30 26 -55 25 -56 -2
-1 -40 -32 -85 -69 -46 -38 -88 -64 -94 -61 -6 4 -24 28 -41 54 -19 29 -27 37
-23 21 4 -14 19 -40 32 -58 14 -19 21 -37 17 -40 -5 -4 -21 -18 -36 -31 l-27
-23 -20 33 c-45 73 -48 185 -8 280 l14 34 1 -54 c1 -67 12 -81 12 -15 0 27 9
68 20 92 22 49 68 112 82 112 5 0 31 -9 57 -21z m-1024 1 c3 -5 1 -10 -4 -10
-6 0 -11 5 -11 10 0 6 2 10 4 10 3 0 8 -4 11 -10z m125 -50 c0 -5 -2 -10 -4
-10 -3 0 -8 5 -11 10 -3 6 -1 10 4 10 6 0 11 -4 11 -10z m1007 -22 c44 -49 56
-106 29 -143 -12 -17 -16 -17 -31 -5 -37 31 -57 108 -39 154 8 22 17 20 41 -6z
m-917 -113 l0 -30 -63 0 -64 0 27 37 c15 20 33 51 40 69 l13 31 24 -38 c12
-22 23 -52 23 -69z m5065 55 c76 -22 170 -56 210 -74 147 -68 279 -178 319
-266 29 -64 28 -194 -3 -272 -12 -32 -26 -60 -29 -62 -11 -7 -61 40 -141 134
-91 105 -175 179 -265 233 -61 36 -141 119 -141 147 0 4 -4 12 -9 17 -5 5 -6
3 -2 -4 10 -19 1 -16 -15 4 -10 11 -10 14 -1 9 6 -4 12 -2 12 3 0 6 0 14 0 19
0 4 -9 7 -19 7 -11 0 -26 7 -33 15 -11 12 -11 12 5 1 28 -22 22 12 -10 49 -19
23 -23 34 -14 39 10 6 9 12 -4 25 -23 22 -16 21 140 -24z m-1393 -212 c27 -16
45 -34 42 -39 -3 -5 -14 1 -26 13 -18 21 -19 21 -14 3 6 -19 5 -19 -8 -2 -14
18 -16 16 -45 -24 -17 -23 -31 -47 -31 -53 0 -7 3 -7 8 -1 9 13 42 16 42 4 0
-19 21 -8 32 16 6 14 15 25 20 25 10 0 -29 -60 -46 -72 -6 -4 -11 -13 -11 -20
-1 -7 -20 -52 -43 -101 -46 -97 -87 -219 -96 -287 -7 -57 -2 -46 29 65 14 50
46 131 70 180 44 91 138 235 154 235 13 0 88 -120 106 -169 27 -78 21 -108
-54 -258 -77 -152 -97 -214 -86 -269 8 -47 45 -84 85 -84 16 0 30 -3 30 -6 0
-3 -12 -25 -26 -50 -23 -40 -30 -44 -64 -44 -88 0 -182 62 -221 145 -21 46
-26 31 -5 -19 35 -83 122 -145 205 -146 42 0 43 -1 28 -18 -9 -10 -55 -38
-102 -61 -101 -51 -129 -51 -233 0 -81 40 -141 98 -184 181 -32 62 -33 65 -32
188 0 108 4 136 27 205 41 124 126 257 272 424 88 101 83 100 177 39z m-3654
25 c12 -3 22 -9 22 -12 0 -4 14 -29 32 -55 25 -39 29 -50 17 -57 -8 -5 -19 -9
-25 -9 -15 0 -94 -86 -94 -103 0 -7 -11 -28 -25 -47 l-25 -34 3 65 c1 35 -1
76 -6 91 -7 26 -5 27 35 30 42 3 43 4 50 48 7 40 5 47 -20 74 -22 24 -23 28
-7 21 11 -4 30 -10 43 -12z m4973 0 c13 -16 12 -17 -3 -4 -10 7 -18 15 -18 17
0 8 8 3 21 -13z m-5134 -44 c-33 -31 -44 -34 -66 -20 -19 12 -6 28 29 36 16 4
32 10 35 15 3 5 12 7 20 4 11 -4 6 -13 -18 -35z m-77 -28 c13 -26 13 -31 -5
-31 -8 0 -15 -7 -15 -15 0 -8 -8 -19 -19 -24 -16 -9 -19 -6 -24 26 -4 21 -2
42 5 50 16 19 46 16 58 -6z m3889 -15 c0 -7 -2 -6 -6 2 -2 6 -11 12 -19 12 -9
0 -12 5 -9 10 8 13 35 -6 34 -24z m-3689 -1 c0 -10 -10 -15 -27 -15 -26 0 -26
1 -7 15 25 19 34 19 34 0z m1567 -105 c58 -63 155 -132 308 -219 82 -47 90
-54 102 -94 26 -86 63 -290 63 -345 -1 -55 -1 -56 -16 -32 l-15 25 5 -35 c15
-94 19 -223 8 -216 -7 4 -12 13 -12 20 0 7 -7 21 -15 32 -13 17 -14 11 -8 -58
8 -102 -9 -163 -50 -185 -38 -19 -158 -139 -219 -218 -58 -77 -118 -189 -119
-223 0 -23 -4 -20 -24 23 -13 27 -35 59 -49 70 -26 21 -26 22 -11 61 9 21 30
67 47 102 25 49 32 79 36 141 6 108 -15 154 -98 215 -33 25 -70 48 -81 51 -18
6 -15 12 29 63 72 84 119 159 151 243 37 97 46 154 31 210 -16 60 -50 101
-123 150 -34 23 -64 44 -66 45 -2 2 4 15 13 28 20 31 21 57 1 30 -22 -29 -17
-5 10 51 14 28 28 67 31 88 4 20 8 37 11 37 2 0 29 -27 60 -60z m-1390 28 c25
-24 29 -43 11 -54 -7 -5 -9 -2 -5 8 4 12 1 14 -14 11 -12 -3 -18 -11 -15 -19
3 -9 -1 -14 -12 -14 -38 -1 -115 -93 -106 -127 8 -31 -14 -93 -33 -93 -9 0
-13 -3 -10 -7 4 -3 2 -12 -4 -20 -9 -9 -8 -13 0 -13 17 0 -50 -87 -77 -99 -32
-15 -32 -15 -20 19 9 26 12 29 26 18 13 -11 14 -11 7 2 -10 16 -8 66 2 84 4 6
6 23 4 38 -1 16 2 28 9 28 6 0 10 6 7 13 -2 6 1 21 6 32 6 11 12 26 13 34 2 7
8 19 14 25 8 8 12 5 16 -12 4 -12 11 -22 16 -22 6 0 7 7 4 15 -3 9 1 18 9 22
9 3 20 25 26 49 13 50 40 75 71 66 14 -3 19 -1 14 6 -7 12 0 32 11 32 4 0 17
-10 30 -22z m1175 -51 c-27 -28 -28 -44 -4 -71 17 -21 17 -21 -5 -2 -13 11
-23 26 -23 34 0 15 37 62 48 62 3 0 -4 -10 -16 -23z m-1440 -62 c-8 -30 -20
-55 -26 -55 -6 0 -5 -4 3 -9 11 -7 12 -13 4 -23 -6 -7 -14 -28 -18 -47 -4 -19
-16 -48 -26 -65 -10 -17 -32 -59 -50 -93 -17 -35 -35 -63 -39 -63 -4 0 -15 30
-24 67 l-17 66 50 50 c40 39 51 58 57 94 3 24 13 50 20 58 8 7 14 16 14 20 0
15 37 54 51 55 15 0 15 -5 1 -55z m1547 -120 c113 -77 134 -100 152 -167 17
-62 0 -139 -55 -253 -43 -87 -155 -235 -178 -235 -31 0 -208 133 -228 171 -9
16 -3 22 47 48 64 33 81 46 103 76 13 18 12 18 -10 -1 -14 -12 -56 -38 -94
-58 -80 -41 -86 -38 -86 37 0 60 -18 104 -64 155 -40 43 -42 50 -23 75 11 16
18 15 95 -17 89 -37 99 -43 150 -90 17 -16 32 -25 32 -20 0 16 -82 90 -122
112 -21 10 -35 22 -32 25 3 3 -3 3 -15 0 -13 -3 -21 -1 -21 6 0 7 5 9 10 6 17
-11 11 1 -12 21 -21 19 -21 19 -16 -3 7 -26 8 -26 -27 -13 l-26 10 32 45 c49
69 55 72 84 43 13 -14 55 -37 92 -53 85 -35 94 -43 131 -113 63 -121 63 -196
-2 -270 -24 -28 -26 -33 -9 -24 46 25 103 137 103 203 0 64 -42 125 -120 177
-34 23 -66 42 -71 42 -5 0 -8 3 -7 8 5 16 -24 53 -38 48 -8 -3 -14 1 -14 9 0
18 -16 20 -26 3 -4 -7 -3 -8 4 -4 7 4 12 1 12 -9 0 -12 6 -15 23 -10 15 4 18
3 9 -3 -11 -7 -8 -11 9 -15 13 -4 21 -9 18 -12 -8 -7 -121 45 -117 54 2 4 33
34 70 68 l67 62 33 -32 c19 -18 80 -63 137 -102z m3306 25 c21 -22 37 -40 34
-40 -3 0 -23 18 -44 40 -21 22 -37 40 -34 40 3 0 23 -18 44 -40z m-844 -113
c11 -93 -5 -226 -37 -307 -14 -35 -20 -40 -48 -40 -17 0 -36 4 -42 8 -38 25
-45 114 -15 192 19 49 123 241 129 236 1 -2 7 -42 13 -89z m-1832 -72 c14 -29
21 -65 21 -101 0 -46 20 -150 47 -239 5 -18 4 -19 -12 -5 -17 14 -18 13 -12
-20 13 -71 19 -163 12 -206 -5 -38 -13 -50 -53 -79 -26 -19 -52 -35 -59 -35
-7 0 -3 28 14 83 20 65 24 96 21 149 -3 42 -1 69 5 71 12 4 -6 174 -29 276
-15 66 -12 93 5 47 6 -14 12 -26 14 -26 1 0 1 29 -1 65 -2 36 -2 65 1 65 3 0
14 -20 26 -45z m-668 -36 c23 -33 39 -107 28 -134 -7 -17 -8 -17 -8 6 -1 35
-20 87 -48 131 -13 21 -23 40 -23 44 0 10 29 -17 51 -47z m4319 31 c0 -5 -5
-10 -11 -10 -5 0 -7 5 -4 10 3 6 8 10 11 10 2 0 4 -4 4 -10z m-4726 -72 c-4
-7 -2 -8 4 -4 21 13 72 -82 72 -133 l0 -46 -40 55 c-22 30 -44 69 -48 85 -10
34 -4 68 9 59 5 -3 6 -10 3 -16z m1419 -64 c84 -22 119 -47 163 -113 23 -35
49 -87 59 -116 18 -60 17 -166 -2 -173 -8 -2 -13 7 -13 25 -1 34 -47 139 -80
183 -13 17 -58 61 -99 97 -42 36 -87 79 -100 95 l-24 30 24 -7 c13 -5 46 -14
72 -21z m200 2 c38 -16 63 -38 100 -87 24 -32 27 -45 27 -110 0 -85 -14 -121
-24 -65 -10 51 -79 184 -121 234 -39 44 -35 51 18 28z m-320 -96 c21 -23 41
-39 45 -36 3 4 -1 12 -10 19 -8 6 -26 28 -39 47 l-24 35 40 -31 c22 -17 75
-48 117 -68 78 -37 107 -65 142 -134 30 -59 21 -183 -14 -202 -15 -8 -19 -4
-25 28 -10 57 -39 113 -81 157 -21 22 -37 44 -36 48 1 5 -2 6 -8 2 -18 -11
-120 96 -146 152 -25 56 -32 83 -11 47 7 -12 29 -41 50 -64z m-54 -110 c35
-67 56 -155 47 -202 -8 -43 -70 -118 -98 -118 -15 0 -18 4 -13 18 4 9 12 31
17 47 6 17 18 36 26 42 14 11 14 23 3 95 -7 46 -23 110 -36 143 -12 33 -25 69
-29 80 -10 33 50 -44 83 -105z m-1938 71 c-11 -19 -96 -101 -159 -153 l-44
-36 -41 19 c-30 13 -41 23 -39 36 5 25 39 59 73 73 16 7 29 18 29 24 0 6 4 5
9 -3 11 -17 32 -5 29 16 -2 10 5 17 20 18 12 1 22 -2 22 -6 0 -5 10 -4 23 0
12 5 21 15 19 22 -2 10 0 10 11 0 12 -9 16 -7 20 10 5 19 8 20 21 10 11 -9 13
-18 7 -30z m219 -151 c-6 -11 -13 -20 -16 -20 -2 0 0 9 6 20 6 11 13 20 16 20
2 0 0 -9 -6 -20z m-114 -26 c15 6 16 4 7 -5 -14 -14 -43 -5 -43 13 0 10 3 9 9
-1 6 -9 16 -11 27 -7z m3040 -94 c31 -11 67 -20 78 -20 18 0 16 -3 -11 -21
-31 -20 -33 -20 -69 -3 -20 10 -62 42 -93 71 l-56 54 47 -31 c26 -17 73 -40
104 -50z m-2811 60 c3 -6 -1 -7 -9 -4 -18 7 -21 14 -7 14 6 0 13 -4 16 -10z
m3988 -142 c-12 -20 -14 -48 -3 -48 6 0 10 -5 10 -11 0 -5 -6 -7 -12 -4 -7 4
-5 0 5 -8 18 -15 24 -32 7 -22 -5 3 -10 1 -10 -4 0 -6 6 -11 13 -11 6 0 36
-11 65 -25 l52 -24 0 -76 c0 -55 -7 -98 -26 -153 -22 -68 -81 -178 -90 -169
-2 1 4 23 12 47 8 24 18 81 21 126 8 107 -19 201 -75 264 l-39 44 31 42 c17
24 35 43 39 43 5 1 5 -5 0 -11z m-51 -118 c36 -28 70 -114 76 -192 6 -80 -10
-168 -45 -258 -24 -60 -82 -155 -90 -147 -2 2 4 24 12 48 19 52 21 113 6 152
-18 45 -80 116 -127 143 -34 20 -146 52 -189 54 -5 0 22 18 61 38 74 40 196
126 228 161 24 26 37 26 68 1z m-3518 -120 c45 -61 72 -200 46 -240 -7 -12
-13 -11 -36 10 -42 40 -74 116 -74 182 0 31 -4 59 -9 62 -5 3 -9 0 -8 -7 0 -6
-1 -30 -2 -52 -4 -60 -19 -15 -20 57 -1 85 5 95 41 61 16 -15 44 -48 62 -73z
m100 -200 c5 -58 -10 -36 -17 24 -3 34 -2 44 4 33 5 -9 11 -35 13 -57z m-174
43 c0 -5 25 -35 56 -68 53 -57 55 -61 42 -85 -18 -33 -73 -60 -125 -60 -53 0
-62 15 -29 49 39 41 31 50 -9 11 l-35 -34 0 31 c0 45 66 163 92 163 4 0 8 -3
8 -7z m-786 -22 c3 -5 -1 -14 -8 -20 -12 -10 -13 -8 -9 8 6 23 9 25 17 12z
m4269 -39 c43 -43 67 -92 67 -132 0 -13 -2 -13 -10 0 -7 12 -13 9 -34 -13 -14
-16 -26 -32 -26 -37 0 -5 -9 -14 -21 -20 -12 -7 -18 -18 -15 -26 3 -7 2 -13
-3 -11 -4 1 -20 -13 -35 -30 -35 -41 -142 -93 -192 -93 -106 0 -209 112 -178
194 5 12 11 9 28 -17 11 -17 41 -42 66 -55 40 -20 55 -22 139 -18 60 3 101 11
117 21 28 18 30 25 8 25 -9 0 -12 -5 -8 -12 4 -7 4 -10 -1 -6 -4 4 -20 1 -36
-7 -47 -25 -47 -16 1 12 25 15 50 26 55 24 5 -1 7 1 3 4 -4 4 4 27 17 50 29
49 33 120 10 165 -22 43 -6 37 48 -18z m-4520 -82 c-6 -80 16 -202 38 -216 5
-3 9 -10 9 -15 0 -6 -4 -8 -9 -5 -5 4 -7 -2 -5 -11 6 -26 -7 -40 -43 -47 -35
-8 -32 -13 -47 93 -6 37 11 138 34 214 11 37 22 67 24 67 2 0 2 -36 -1 -80z
m197 46 c0 -2 -8 -10 -17 -17 -16 -13 -17 -12 -4 4 13 16 21 21 21 13z m1017
-68 c-3 -7 -5 -2 -5 12 0 14 2 19 5 13 2 -7 2 -19 0 -25z m3513 -9 c0 -11 -4
-17 -10 -14 -5 3 -10 1 -10 -6 0 -7 -3 -10 -6 -7 -5 5 16 48 23 48 2 0 3 -9 3
-21z m-5063 -261 c-3 -8 -6 -5 -6 6 -1 11 2 17 5 13 3 -3 4 -12 1 -19z m341
-44 c-11 -24 -13 -25 -25 -8 -19 26 -16 34 12 34 23 0 24 -2 13 -26z"/>
<path d="M4630 5089 c0 -5 5 -7 10 -4 6 3 10 8 10 11 0 2 -4 4 -10 4 -5 0 -10
-5 -10 -11z"/>
<path d="M3190 5960 c-13 -8 -13 -10 2 -10 9 0 20 5 23 10 8 13 -5 13 -25 0z"/>
<path d="M2864 5935 c-12 -8 -27 -35 -34 -60 -14 -52 -33 -68 -100 -85 -44
-12 -120 -46 -120 -55 0 -2 15 2 34 10 19 8 56 19 83 25 26 6 56 13 65 16 16
5 16 2 3 -43 -22 -72 -17 -84 11 -30 14 27 31 82 38 123 7 42 21 83 31 94 21
24 17 26 -11 5z"/>
<path d="M3245 5910 c-3 -5 1 -10 9 -10 9 0 16 5 16 10 0 6 -4 10 -9 10 -6 0
-13 -4 -16 -10z"/>
<path d="M3050 5790 c0 -5 5 -10 11 -10 5 0 7 5 4 10 -3 6 -8 10 -11 10 -2 0
-4 -4 -4 -10z"/>
<path d="M4425 5140 c-3 -5 1 -10 9 -10 9 0 16 5 16 10 0 6 -4 10 -9 10 -6 0
-13 -4 -16 -10z"/>
<path d="M2197 5753 c-4 -3 -7 -14 -7 -24 0 -13 5 -17 18 -12 15 6 15 5 3 -10
-7 -9 -18 -14 -24 -10 -6 4 -7 1 -2 -6 5 -9 15 -5 36 15 21 20 26 30 17 35 -7
4 -19 2 -27 -4 -12 -10 -14 -9 -8 6 7 18 5 21 -6 10z"/>
<path d="M3530 4750 c0 -5 5 -10 10 -10 6 0 10 5 10 10 0 6 -4 10 -10 10 -5 0
-10 -4 -10 -10z"/>
<path d="M3230 4513 c368 -267 560 -456 633 -623 35 -78 60 -197 52 -247 -3
-23 -48 -127 -100 -231 -155 -313 -187 -435 -166 -619 24 -202 133 -344 319
-413 66 -25 204 -57 306 -70 39 -5 82 -13 96 -16 18 -5 22 -4 15 4 -5 6 -59
21 -120 32 -201 40 -280 88 -398 242 -141 185 -200 420 -147 589 11 35 58 143
105 238 47 96 85 182 85 190 0 18 41 -64 47 -93 5 -30 11 -31 34 -5 40 46 74
169 50 183 -6 4 -11 17 -10 29 1 20 2 20 9 -3 l8 -25 1 27 c1 15 -3 30 -9 33
-5 3 -10 24 -10 45 0 21 -5 42 -10 45 -6 4 -8 10 -6 14 7 10 -76 177 -121 243
-41 62 -166 194 -216 230 -17 12 -27 17 -23 10 4 -7 1 -12 -8 -12 -21 0 -30
-18 -16 -35 8 -10 9 -15 2 -15 -6 0 -14 5 -17 11 -4 6 -13 8 -21 5 -7 -3 -62
31 -121 76 -59 45 -137 100 -173 123 -73 46 -108 65 -70 38z m420 -223 c0 -5
-2 -10 -4 -10 -3 0 -8 5 -11 10 -3 6 -1 10 4 10 6 0 11 -4 11 -10z m-16 -50
c40 -43 29 -45 -14 -4 -19 19 -30 34 -25 34 6 0 23 -14 39 -30z m97 -1472 c50
-134 210 -330 314 -384 29 -16 53 -30 51 -31 -4 -5 -139 43 -177 62 -102 52
-193 154 -230 260 -23 67 -34 199 -24 291 l8 69 18 -103 c9 -57 27 -130 40
-164z"/>
<path d="M3755 3840 c-3 -5 -2 -18 4 -27 7 -14 9 -12 8 10 -2 30 -3 31 -12 17z"/>
<path d="M3783 3778 c5 -34 0 -36 -13 -5 -7 17 -9 10 -10 -33 -1 -30 -4 -75
-8 -100 -4 -25 -5 -65 -2 -90 l5 -45 19 45 c23 54 33 194 17 230 l-11 25 3
-27z"/>
<path d="M4221 3484 c0 -11 3 -14 6 -6 3 7 2 16 -1 19 -3 4 -6 -2 -5 -13z"/>
<path d="M4068 3312 c-83 -129 -126 -262 -100 -308 9 -16 11 -9 12 34 0 57 34
142 104 261 38 66 40 71 29 71 -5 0 -25 -26 -45 -58z"/>
<path d="M3491 2514 c0 -11 3 -14 6 -6 3 7 2 16 -1 19 -3 4 -6 -2 -5 -13z"/>
<path d="M4948 1735 c11 -16 32 -55 47 -85 26 -50 27 -60 21 -133 -18 -215
-150 -421 -380 -597 -83 -63 -103 -73 -185 -95 -253 -68 -397 -166 -471 -319
-41 -86 -32 -99 10 -15 53 105 81 139 153 190 93 65 188 100 394 143 340 72
463 140 536 294 30 63 32 74 32 177 -1 98 -4 121 -33 204 -37 106 -79 191
-118 236 l-26 30 20 -30z m116 -265 c37 -125 30 -256 -17 -349 -29 -56 -54
-73 -71 -47 -6 10 -21 31 -33 46 -29 36 -29 52 3 100 41 62 84 196 84 265 0
69 11 64 34 -15z m-108 -408 c-8 -7 -106 9 -106 18 0 4 10 20 22 35 l22 28 33
-38 c18 -21 31 -40 29 -43z m23 -28 c9 -8 -49 -47 -124 -84 -63 -31 -235 -90
-262 -90 -3 0 21 19 53 43 33 24 84 67 114 95 l55 51 80 -6 c44 -3 82 -7 84
-9z"/>
<path d="M3860 5299 c0 -5 5 -7 10 -4 6 3 10 8 10 11 0 2 -4 4 -10 4 -5 0 -10
-5 -10 -11z"/>
<path d="M1951 4944 c0 -11 3 -14 6 -6 3 7 2 16 -1 19 -3 4 -6 -2 -5 -13z"/>
<path d="M1399 4593 c-13 -16 -12 -17 4 -4 16 13 21 21 13 21 -2 0 -10 -8 -17
-17z"/>
<path d="M845 3210 c5 -217 39 -331 123 -413 35 -34 150 -92 161 -81 2 2 2 5
0 7 -2 2 -33 27 -68 57 -135 115 -185 223 -207 450 l-13 135 4 -155z"/>
<path d="M1110 2876 c0 -2 7 -7 16 -10 8 -3 12 -2 9 4 -6 10 -25 14 -25 6z"/>
<path d="M1605 2790 c21 -24 26 -25 19 -6 -3 8 -13 17 -22 21 -13 5 -13 2 3
-15z"/>
<path d="M1640 2761 c0 -6 5 -13 10 -16 6 -4 7 -11 4 -17 -4 -7 -2 -8 4 -4 9
5 9 13 2 27 -11 20 -20 25 -20 10z"/>
<path d="M1690 2675 c0 -5 5 -17 10 -25 5 -8 10 -10 10 -5 0 6 -5 17 -10 25
-5 8 -10 11 -10 5z"/>
<path d="M1165 1768 c-130 -149 -148 -315 -46 -429 l39 -44 23 20 c13 12 19
14 14 5 -5 -10 -5 -12 3 -5 8 7 3 35 -14 95 -14 47 -28 117 -31 155 -5 71 5
114 51 218 9 20 14 37 12 37 -2 0 -25 -24 -51 -52z m5 -442 c0 -3 -4 -8 -10
-11 -5 -3 -10 -1 -10 4 0 6 5 11 10 11 6 0 10 -2 10 -4z"/>
<path d="M1341 1716 c-23 -38 -49 -86 -57 -108 -17 -49 -18 -156 -2 -211 12
-41 94 -139 132 -159 20 -10 20 -10 4 8 -24 28 -91 184 -92 216 -1 16 -4 28
-8 28 -5 0 -8 7 -8 16 0 8 5 12 10 9 6 -3 10 4 11 17 0 19 4 15 19 -17 18 -39
19 -39 13 -7 -3 17 -3 32 0 32 3 0 14 -15 26 -32 11 -18 21 -27 21 -20 0 8 6
12 12 10 7 -3 20 3 29 11 21 20 75 142 71 159 -2 7 2 20 8 27 9 11 7 12 -8 8
-11 -2 -23 0 -26 6 -4 6 -19 11 -34 11 -34 1 -67 24 -56 41 4 7 3 10 -4 5 -5
-3 -12 -1 -14 6 -2 6 -23 -19 -47 -56z m21 -395 c12 -19 17 -31 10 -27 -18 11
-60 87 -67 121 -5 23 -2 20 15 -14 11 -25 30 -61 42 -80z"/>
<path d="M1570 1135 c0 -2 30 -21 68 -41 224 -123 288 -176 303 -253 l7 -36 1
38 c2 85 -63 147 -248 234 -72 34 -131 60 -131 58z"/>
<path d="M1901 524 c0 -11 3 -14 6 -6 3 7 2 16 -1 19 -3 4 -6 -2 -5 -13z"/>
<path d="M3575 5020 c-3 -5 -1 -10 4 -10 6 0 11 5 11 10 0 6 -2 10 -4 10 -3 0
-8 -4 -11 -10z"/>
<path d="M4390 5016 c0 -8 5 -18 10 -21 6 -3 10 1 10 9 0 8 -4 18 -10 21 -5 3
-10 -1 -10 -9z"/>
<path d="M5040 4929 c0 -5 5 -7 10 -4 6 3 10 8 10 11 0 2 -4 4 -10 4 -5 0 -10
-5 -10 -11z"/>
<path d="M1010 4490 c0 -5 5 -10 11 -10 5 0 7 5 4 10 -3 6 -8 10 -11 10 -2 0
-4 -4 -4 -10z"/>
<path d="M4981 3894 c0 -11 3 -14 6 -6 3 7 2 16 -1 19 -3 4 -6 -2 -5 -13z"/>
<path d="M4996 3864 c-3 -9 -4 -19 -1 -24 2 -4 -4 -15 -15 -25 -18 -16 -30 -8
-13 9 4 3 8 16 10 27 3 19 2 19 -16 2 -28 -28 -43 -62 -35 -85 4 -14 2 -18 -5
-14 -7 5 -9 1 -5 -8 3 -9 10 -13 15 -10 18 10 74 100 77 122 3 26 -3 29 -12 6z
m-41 -50 c-7 -15 -11 -34 -8 -43 5 -13 3 -14 -7 -4 -10 10 -10 18 0 42 7 17
16 31 21 31 4 0 2 -12 -6 -26z"/>
<path d="M1015 3929 c-10 -15 3 -25 16 -12 7 7 7 13 1 17 -6 3 -14 1 -17 -5z"/>
<path d="M390 2886 c0 -9 -4 -14 -10 -11 -6 3 -7 -1 -4 -9 3 -9 1 -16 -5 -16
-17 0 -13 -14 9 -28 19 -12 20 -11 14 13 -4 14 -2 25 4 25 6 0 9 7 8 15 -3 22
-16 31 -16 11z"/>
<path d="M350 2805 c0 -8 7 -15 15 -15 9 0 12 6 9 15 -4 8 -10 15 -15 15 -5 0
-9 -7 -9 -15z"/>
<path d="M920 2047 c0 -5 9 -20 20 -34 11 -14 20 -22 20 -17 -1 12 -39 61 -40
51z"/>
<path d="M190 2495 c7 -8 16 -12 21 -9 13 8 1 24 -18 24 -13 0 -13 -3 -3 -15z"/>
<path d="M157 2479 c7 -9 9 -20 5 -25 -4 -4 1 -2 11 5 9 7 17 16 17 19 0 3 -3
2 -7 -1 -3 -4 -13 -1 -22 6 -14 10 -14 10 -4 -4z"/>
<path d="M3899 1686 c12 -14 12 -16 -1 -11 -32 12 -76 -165 -64 -255 8 -61 25
-111 36 -105 5 3 10 -1 12 -7 3 -7 5 1 5 19 0 29 -2 31 -14 15 -11 -13 -14
-13 -10 -2 2 8 10 49 17 90 7 42 20 80 28 88 11 8 12 12 3 12 -9 0 -11 9 -6
33 4 17 11 34 15 37 4 3 7 21 7 41 -1 25 -8 41 -22 50 -18 11 -19 11 -6 -5z"/>
<path d="M3890 1280 c-11 -7 -11 -10 -2 -10 7 0 11 -4 7 -9 -3 -5 -2 -12 3
-15 4 -2 8 6 8 20 0 13 0 24 0 24 -1 0 -8 -5 -16 -10z"/>
<path d="M645 1931 c-3 -5 -1 -12 5 -16 5 -3 10 1 10 9 0 18 -6 21 -15 7z"/>
<path d="M565 1770 c-3 -5 -1 -10 4 -10 6 0 11 5 11 10 0 6 -2 10 -4 10 -3 0
-8 -4 -11 -10z"/>
<path d="M980 6390 c109 -14 244 -14 265 -2 16 9 -20 11 -155 10 -136 -1 -161
-2 -110 -8z"/>
<path d="M1270 6396 c0 -2 7 -7 16 -10 8 -3 12 -2 9 4 -6 10 -25 14 -25 6z"/>
<path d="M1310 6390 c0 -10 35 -14 100 -10 67 3 50 16 -25 18 -44 1 -75 -2
-75 -8z"/>
<path d="M5890 6389 c0 -5 -5 -7 -12 -3 -7 5 -8 3 -3 -6 4 -7 2 -16 -6 -22
-12 -8 -12 -9 0 -6 19 5 47 48 32 48 -6 0 -11 -5 -11 -11z"/>
<path d="M5759 6248 c-7 -13 -17 -27 -23 -31 -6 -4 0 -7 14 -5 18 2 24 8 22
22 -3 14 1 18 16 14 11 -3 19 0 19 8 0 22 -35 16 -48 -8z"/>
<path d="M5120 6240 c0 -5 5 -10 11 -10 5 0 7 5 4 10 -3 6 -8 10 -11 10 -2 0
-4 -4 -4 -10z"/>
<path d="M5683 6213 c-15 -5 -17 -23 -4 -23 5 0 11 7 15 15 3 8 4 15 3 14 -1
0 -8 -3 -14 -6z"/>
<path d="M5160 6194 c0 -8 5 -12 10 -9 6 4 8 11 5 16 -9 14 -15 11 -15 -7z"/>
<path d="M5367 6093 c-10 -9 -8 -33 2 -33 5 0 11 9 14 20 5 20 -3 26 -16 13z"/>
<path d="M1990 5950 c0 -5 5 -10 10 -10 6 0 10 5 10 10 0 6 -4 10 -10 10 -5 0
-10 -4 -10 -10z"/>
<path d="M5320 5950 c0 -5 5 -10 10 -10 6 0 10 5 10 10 0 6 -4 10 -10 10 -5 0
-10 -4 -10 -10z"/>
<path d="M5400 5950 c0 -5 5 -10 10 -10 6 0 10 5 10 10 0 6 -4 10 -10 10 -5 0
-10 -4 -10 -10z"/>
<path d="M5240 5710 c0 -5 5 -10 11 -10 5 0 7 5 4 10 -3 6 -8 10 -11 10 -2 0
-4 -4 -4 -10z"/>
<path d="M5320 5710 c0 -5 5 -10 11 -10 5 0 7 5 4 10 -3 6 -8 10 -11 10 -2 0
-4 -4 -4 -10z"/>
<path d="M5200 5670 c0 -5 5 -10 11 -10 5 0 7 5 4 10 -3 6 -8 10 -11 10 -2 0
-4 -4 -4 -10z"/>
<path d="M5160 5630 c0 -5 5 -10 11 -10 5 0 7 5 4 10 -3 6 -8 10 -11 10 -2 0
-4 -4 -4 -10z"/>
<path d="M5558 4443 c12 -2 30 -2 40 0 9 3 -1 5 -23 4 -22 0 -30 -2 -17 -4z"/>
<path d="M5633 4443 c9 -2 25 -2 35 0 9 3 1 5 -18 5 -19 0 -27 -2 -17 -5z"/>
<path d="M2725 3626 c-148 -24 -170 -39 -200 -135 -7 -23 -6 -23 37 7 72 49
164 72 337 82 84 5 179 7 210 5 31 -2 110 -7 176 -9 115 -5 118 -4 75 9 -134
43 -487 66 -635 41z"/>
<path d="M6236 3435 c4 -8 8 -15 10 -15 2 0 4 7 4 15 0 8 -4 15 -10 15 -5 0
-7 -7 -4 -15z"/>
<path d="M5525 3310 c-3 -5 -1 -10 4 -10 6 0 11 5 11 10 0 6 -2 10 -4 10 -3 0
-8 -4 -11 -10z"/>
<path d="M2909 3245 c-25 -8 -54 -24 -64 -35 -22 -25 -13 -26 23 -2 l26 17
-17 -25 c-28 -40 -19 -42 16 -4 21 23 48 39 82 49 47 12 48 13 15 13 -19 1
-56 -6 -81 -13z"/>
<path d="M3086 3069 c-82 -12 -179 -38 -191 -51 -7 -8 -3 -9 15 -4 14 4 70 16
125 27 55 11 114 24 130 28 27 8 28 9 5 9 -14 0 -52 -4 -84 -9z"/>
<path d="M2019 3009 c38 -8 50 -14 40 -20 -10 -6 -8 -9 9 -9 13 0 33 -5 45
-11 19 -10 18 -7 -5 17 -22 23 -37 28 -85 30 l-58 3 54 -10z"/>
<path d="M2065 2810 l-30 -8 35 0 c19 0 46 4 60 8 24 8 24 8 -5 8 -16 0 -43
-4 -60 -8z"/>
<path d="M5170 2586 c0 -2 8 -10 18 -17 15 -13 16 -12 3 4 -13 16 -21 21 -21
13z"/>
<path d="M2381 2510 c0 -9 -10 -33 -21 -55 l-20 -39 33 -42 c42 -57 57 -57 17
0 -31 42 -31 45 -15 69 9 15 15 38 12 54 -2 15 -5 21 -6 13z"/>
<path d="M4881 2474 c0 -11 3 -14 6 -6 3 7 2 16 -1 19 -3 4 -6 -2 -5 -13z"/>
<path d="M2788 2043 c24 -3 32 -8 28 -19 -7 -18 2 -17 44 6 l35 19 -70 -1
c-38 -1 -55 -3 -37 -5z"/>
<path d="M2588 2023 c-30 -8 -20 -21 21 -28 32 -5 43 -3 60 14 l21 21 -42 -1
c-24 -1 -51 -3 -60 -6z"/>
<path d="M5671 1071 c-10 -6 -9 -19 4 -65 l17 -57 -27 -25 c-27 -25 -29 -44
-7 -52 16 -5 152 131 152 152 0 25 -38 19 -56 -9 -19 -29 -30 -25 -39 14 -8
35 -26 53 -44 42z"/>
<path d="M5570 904 c0 -17 22 -14 28 4 2 7 -3 12 -12 12 -9 0 -16 -7 -16 -16z"/>
<path d="M3605 831 c-138 -56 -194 -82 -270 -124 -110 -62 -132 -78 -162 -122
-35 -52 -28 -52 26 -2 77 72 177 130 411 239 36 17 32 23 -5 9z"/>
<path d="M5536 829 c-3 -8 -20 -52 -37 -99 -70 -190 -152 -458 -144 -471 3 -5
23 -13 43 -18 50 -14 56 -14 60 -2 2 5 -15 15 -37 22 -23 7 -41 15 -41 18 0
19 95 311 144 445 24 66 33 103 27 109 -7 7 -12 6 -15 -4z"/>
<path d="M5603 818 c-18 -29 -53 -125 -53 -145 0 -31 24 -29 38 3 15 32 29 24
42 -26 6 -24 17 -40 26 -40 21 0 29 28 17 61 -9 23 -8 31 8 45 10 9 19 29 19
44 0 48 -74 93 -97 58z m53 -49 c10 -17 -13 -36 -27 -22 -12 12 -4 33 11 33 5
0 12 -5 16 -11z"/>
<path d="M5755 713 c-30 -67 -37 -118 -16 -118 15 0 71 124 71 157 0 38 -31
17 -55 -39z"/>
<path d="M2787 704 c17 -21 44 -66 61 -99 33 -63 43 -55 16 11 -20 49 -59 100
-86 115 -18 10 -17 5 9 -27z"/>
<path d="M5495 579 c-18 -54 -15 -70 10 -49 12 10 15 10 15 -4 0 -19 53 -43
58 -27 5 16 22 13 22 -4 0 -18 26 -20 32 -2 4 10 4 41 -1 85 -2 26 -32 10 -52
-30 l-22 -43 -10 28 c-7 22 -5 32 7 46 18 19 12 33 -10 24 -8 -3 -14 1 -14 11
0 33 -19 14 -35 -35z"/>
<path d="M5667 553 c-3 -5 -8 -28 -12 -52 -6 -34 -4 -42 6 -39 8 3 19 -2 25
-10 14 -19 29 -10 59 39 29 45 30 49 12 49 -8 0 -20 -11 -27 -25 -18 -33 -26
-26 -29 25 -1 19 -25 28 -34 13z"/>
<path d="M6369 526 c26 -28 31 -31 31 -17 0 5 -12 17 -27 26 l-28 18 24 -27z"/>
<path d="M25 480 c3 -5 11 -10 16 -10 6 0 7 5 4 10 -3 6 -11 10 -16 10 -6 0
-7 -4 -4 -10z"/>
<path d="M5450 470 c0 -6 6 -13 14 -16 11 -4 13 -16 9 -41 -5 -28 -3 -35 8
-31 8 2 15 17 17 32 3 25 7 27 30 21 35 -9 34 -8 22 -39 -13 -36 -13 -46 3
-46 8 0 19 18 26 41 11 38 9 53 -7 54 -4 1 -21 9 -39 18 -35 19 -83 23 -83 7z"/>
<path d="M5757 444 c-4 -4 -7 -14 -7 -23 0 -11 3 -12 11 -4 6 6 10 16 7 23 -2
6 -7 8 -11 4z"/>
<path d="M5612 413 c-17 -32 -24 -83 -12 -83 6 0 13 7 16 15 5 12 10 13 20 4
8 -6 14 -17 14 -25 0 -16 17 -27 30 -19 6 4 4 17 -6 36 -14 28 -14 32 0 48 20
22 10 34 -15 20 -15 -7 -19 -6 -19 6 0 20 -17 19 -28 -2z"/>
<path d="M5705 293 c-35 -120 -30 -111 -59 -106 -25 5 -27 33 -2 33 6 0 11 14
12 30 1 33 -12 38 -42 16 -14 -11 -16 -17 -7 -27 22 -22 4 -40 -33 -33 -50 9
-43 -13 9 -27 23 -6 57 -12 76 -13 l33 -1 29 95 c30 99 35 130 21 130 -5 0
-21 -44 -37 -97z"/>
<path d="M5445 351 c-3 -5 3 -11 12 -13 14 -3 10 -8 -16 -22 -26 -14 -31 -20
-20 -27 8 -5 23 -8 34 -8 12 0 15 3 7 6 -10 4 -10 9 4 24 9 10 14 25 11 34 -7
17 -23 20 -32 6z"/>
<path d="M156 317 c3 -10 9 -15 12 -12 3 3 0 11 -7 18 -10 9 -11 8 -5 -6z"/>
<path d="M5486 314 c-12 -32 -5 -44 40 -64 42 -20 76 -20 45 -1 -10 7 -9 10 3
14 24 9 20 47 -4 47 -25 0 -27 -20 -2 -20 13 -1 11 -4 -8 -15 -35 -20 -36 -19
-32 20 4 30 1 35 -16 35 -11 0 -23 -7 -26 -16z m34 -8 c0 -15 -18 -31 -26 -23
-7 7 7 37 17 37 5 0 9 -6 9 -14z"/>
<path d="M25 280 c-3 -5 -1 -10 4 -10 6 0 11 5 11 10 0 6 -2 10 -4 10 -3 0 -8
-4 -11 -10z"/>
<path d="M2326 273 c-3 -10 -15 -62 -26 -116 -11 -54 -24 -106 -30 -117 -14
-26 -13 -40 3 -40 8 0 19 15 25 32 6 18 20 60 31 92 24 68 24 69 12 61 -6 -3
-7 17 -4 50 6 54 0 73 -11 38z"/>
<path d="M0 260 c0 -10 7 -23 16 -28 9 -5 14 -15 10 -21 -4 -6 -12 -9 -17 -6
-19 12 -8 -51 16 -90 26 -42 35 -28 10 15 -17 29 -18 40 -7 40 5 0 15 -11 22
-25 20 -38 24 -22 5 19 -10 20 -15 43 -11 51 3 8 -5 25 -19 39 -23 23 -25 23
-25 6z"/>
<path d="M5490 220 c0 -5 7 -10 15 -10 8 0 15 5 15 10 0 6 -7 10 -15 10 -8 0
-15 -4 -15 -10z"/>
<path d="M171 194 c0 -11 3 -14 6 -6 3 7 2 16 -1 19 -3 4 -6 -2 -5 -13z"/>
<path d="M100 174 c0 -8 5 -12 10 -9 6 3 10 10 10 16 0 5 -4 9 -10 9 -5 0 -10
-7 -10 -16z"/>
<path d="M70 170 c0 -5 5 -10 10 -10 6 0 10 5 10 10 0 6 -4 10 -10 10 -5 0
-10 -4 -10 -10z"/>
<path d="M1900 90 c0 -5 5 -10 10 -10 6 0 10 5 10 10 0 6 -4 10 -10 10 -5 0
-10 -4 -10 -10z"/>
<path d="M1946 63 c-11 -11 -6 -23 9 -23 8 0 15 4 15 9 0 13 -16 22 -24 14z"/>
<path d="M1740 50 c0 -5 5 -10 11 -10 5 0 7 5 4 10 -3 6 -8 10 -11 10 -2 0 -4
-4 -4 -10z"/>
<path d="M1897 14 c6 -15 23 -19 23 -5 0 5 -7 11 -14 14 -10 4 -13 1 -9 -9z"/>
<path d="M1986 23 c-11 -11 -6 -23 9 -23 8 0 15 4 15 9 0 13 -16 22 -24 14z"/>
<path d="M1740 10 c0 -5 5 -10 10 -10 6 0 10 5 10 10 0 6 -4 10 -10 10 -5 0
-10 -4 -10 -10z"/>
<path d="M1810 10 c-11 -7 -4 -10 25 -9 31 0 36 2 20 9 -26 11 -28 11 -45 0z"/>
</g>
</svg>
