<?xml version="1.0" encoding="UTF-8"?>
<svg version="1.1" xmlns="http://www.w3.org/2000/svg" width="642" height="642">
<path d="M0 0 C1.75766406 3.51532811 1.45861668 7.26446706 0.46582031 11.02148438 C-0.25804928 13.12420072 -1.04712973 15.18610016 -1.875 17.25 C-2.27912109 18.30960937 -2.27912109 18.30960937 -2.69140625 19.390625 C-3.90291087 22.51098812 -5.13689388 25.20534083 -7 28 C-7.56120851 29.5064018 -8.07998972 31.02907729 -8.5625 32.5625 C-9.27618593 34.81449343 -9.94322352 36.88644704 -11 39 C-9.42798828 38.45859375 -9.42798828 38.45859375 -7.82421875 37.90625 C-6.44539349 37.43726182 -5.06648275 36.9685249 -3.6875 36.5 C-2.99720703 36.26152344 -2.30691406 36.02304687 -1.59570312 35.77734375 C1.38931489 34.76791737 3.82658914 34 7 34 C6.69964844 33.46632813 6.39929688 32.93265625 6.08984375 32.3828125 C3.05129883 26.42932448 2.01159312 21.51061223 4 15 C6.56275232 11.69539832 8.04938402 10.31687199 12 9 C18.15841333 8.49521202 21.03218348 8.97843425 26 13 C28 15 28 15 28.23046875 17.75 C28.21628906 18.8225 28.20210937 19.895 28.1875 21 C28.17783203 22.60875 28.17783203 22.60875 28.16796875 24.25 C28 27 28 27 27 29 C35.30698284 26.83312834 35.30698284 26.83312834 42.375 22.25 C45 20 45 20 48.25 19.5625 C51 20 51 20 53 22 C53.5 24.8125 53.5 24.8125 53 28 C51.17444371 29.99993778 49.20235499 31.38194327 47 33 C46.67 33.66 46.34 34.32 46 35 C44.07421875 36.03515625 44.07421875 36.03515625 41.6875 37.0625 C40.90761719 37.40410156 40.12773437 37.74570312 39.32421875 38.09765625 C35.26344087 39.67419354 31.84812272 40.08327872 27.46899414 40.18847656 C20.65171501 40.38877438 15.74338491 41.08920749 9.7734375 44.59375 C6.04142292 46.48603908 2.2010625 47.60047834 -1.8125 48.75 C-2.54267334 48.96043945 -3.27284668 49.17087891 -4.02514648 49.38769531 C-7.66283774 50.41183048 -11.29125073 51.28334122 -15 52 C-20.55342326 68.5168502 -25.55921385 84.89625278 -29 102 C-29.18111328 102.87897949 -29.36222656 103.75795898 -29.54882812 104.66357422 C-33.68485329 124.2442125 -33.68485329 124.2442125 -29 143 C-25.08831887 145.72451153 -21.47771434 145.12480261 -16.93359375 144.59375 C-12.04907919 143.60513986 -8.21748128 141.59282261 -4 139 C-3.11828125 138.54753906 -2.2365625 138.09507812 -1.328125 137.62890625 C4.71248758 133.90267039 6.63182554 130.05775641 8.27416992 123.37695312 C8.85514297 120.6555158 9.36639526 117.92856845 9.8671875 115.19140625 C10.83840209 110.21555638 12.16852481 105.26230469 15 101 C17.28645576 99.55807841 18.36054621 98.92249045 21.0625 99.25 C23 100 23 100 26 102 C26.65094445 107.78452912 25.13251846 112.66115094 23.5 118.125 C21.3869996 125.65805127 19.50862512 133.14542564 21 141 C22.13832384 142.96743277 22.13832384 142.96743277 24 144 C26.07735648 144.00054978 26.07735648 144.00054978 28.25 143.3125 C29.03761719 143.10496094 29.82523438 142.89742187 30.63671875 142.68359375 C31.80654297 142.34521484 31.80654297 142.34521484 33 142 C33.70769531 141.80535156 34.41539062 141.61070312 35.14453125 141.41015625 C36.76788915 140.95720303 38.38476966 140.48113244 40 140 C40 139.34 40 138.68 40 138 C41.64453125 136.30859375 41.64453125 136.30859375 43.8125 134.4375 C44.52019531 133.81746094 45.22789062 133.19742188 45.95703125 132.55859375 C48 131 48 131 51 130 C51.97540459 127.1895293 51.97540459 127.1895293 52.5625 123.75 C52.81257812 122.48800781 53.06265625 121.22601563 53.3203125 119.92578125 C54.13031938 115.24729325 54.75956442 110.55937257 55.27734375 105.83984375 C56.1578502 102.37969139 57.50866576 100.53255117 60 98 C63.18224791 97.48044932 65.01815949 97.47635173 67.875 99 C71.13343403 104.7927716 68.39559844 112.91917821 67 119 C67.66 119 68.32 119 69 119 C69.309375 118.38125 69.61875 117.7625 69.9375 117.125 C70.625 115.75 71.3125 114.375 72 113 C72.66 113 73.32 113 74 113 C74 112.34 74 111.68 74 111 C76.47739727 108.44883408 79.24581705 106.24491893 82 104 C83.1446875 103.0409375 83.1446875 103.0409375 84.3125 102.0625 C88.80368256 100.2869162 93.25521307 100.23655308 98 101 C102.71952748 104.37109106 104.48277927 108.15528601 105.5 113.75 C105.665 114.4925 105.83 115.235 106 116 C106.66 116.33 107.32 116.66 108 117 C108.3403125 115.948125 108.3403125 115.948125 108.6875 114.875 C111.51970723 108.6711175 116.34949901 103.97324378 122.3125 100.75 C127.37258116 99.33788433 131.44381855 99.44212363 136.3125 101.1875 C140.45489979 103.98121149 142.02506318 107.21236383 143 112 C143.80943789 122.97447182 142.14320722 134.09870262 141 145 C145.95 144.01 145.95 144.01 151 143 C151 142.34 151 141.68 151 141 C152.423125 140.6596875 152.423125 140.6596875 153.875 140.3125 C157.10434483 139.34206485 157.10434483 139.34206485 158.140625 136.87109375 C159.15310323 133.48849602 159.52085249 130.26256509 159.875 126.75 C161.15951313 115.9496039 164.758509 108.40035256 173 101.26953125 C179.53984369 96.35297019 185.66787896 95.41607896 193.7109375 96.296875 C198.5806064 97.14504556 202.68753611 98.50331038 207 101 C207 101.66 207 102.32 207 103 C207.59425781 103.24363281 208.18851562 103.48726563 208.80078125 103.73828125 C213.17528083 106.24798527 216.25045212 111.34031396 217.60546875 116.1484375 C217.875 118.0625 217.875 118.0625 218 121 C219.6490302 120.38348417 221.29415841 119.75652258 222.9375 119.125 C223.85402344 118.77695312 224.77054687 118.42890625 225.71484375 118.0703125 C228.14941056 117.2180914 228.14941056 117.2180914 229 115 C229.66 115 230.32 115 231 115 C231 114.34 231 113.68 231 113 C231.66 112.34 232.32 111.68 233 111 C232.566875 110.56171875 232.13375 110.1234375 231.6875 109.671875 C227.10803848 104.45637716 226.38031271 100.59994127 226.59375 93.734375 C227.18194919 89.77534199 228.08196699 87.71402567 231.25 85.25 C234.46897611 83.78682904 236.49804318 83.6274514 240 84 C243.41757301 85.31139429 244.84076788 86.80912414 246.6875 89.9375 C247.31205078 90.97197266 247.31205078 90.97197266 247.94921875 92.02734375 C250.11522297 96.09363421 250.08554446 99.46614355 250 104 C250.83337891 103.76023437 250.83337891 103.76023437 251.68359375 103.515625 C254.19335385 102.95696002 256.49268333 102.79651252 259.0625 102.75 C259.91972656 102.72421875 260.77695312 102.6984375 261.66015625 102.671875 C264 103 264 103 265.78125 104.32421875 C267.89202887 107.2265397 267.38911441 109.49797033 267 113 C266.11081748 115.56318341 265.08251458 118.03768724 264.0234375 120.53515625 C260.95326432 127.92935196 260.4717668 135.01507958 261 143 C261.33 143.66 261.66 144.32 262 145 C268.78736062 145.48289522 272.63971779 145.28822577 278 141 C278.66 141 279.32 141 280 141 C280.14695312 139.76765625 280.29390625 138.5353125 280.4453125 137.265625 C281.72439726 127.49815846 282.96159993 118.13486171 289 110 C291.19140625 108.69140625 291.19140625 108.69140625 293 108 C293 107.34 293 106.68 293 106 C293.66 106 294.32 106 295 106 C295 105.34 295 104.68 295 104 C296.6029053 103.18501438 298.20737278 102.37310073 299.8125 101.5625 C300.70582031 101.11003906 301.59914063 100.65757812 302.51953125 100.19140625 C309.05715401 97.05128823 315.93894504 97.04655665 322.8125 99.1875 C326.34422867 101.19573787 329.05818353 103.20168678 332 106 C332 106.66 332 107.32 332 108 C332.66 108 333.32 108 334 108 C338.13745016 115.07370511 338.50899226 121.32140083 338.49584961 129.34692383 C338.4845942 134.31499556 338.4845942 134.31499556 341.03125 138.44921875 C342.00578125 139.21685547 342.00578125 139.21685547 343 140 C343 140.66 343 141.32 343 142 C344.98 141.505 344.98 141.505 347 141 C348.485 135.555 348.485 135.555 350 130 C350.66 130 351.32 130 352 130 C352.09410156 129.40703125 352.18820312 128.8140625 352.28515625 128.203125 C353.41728045 124.71395534 355.69046381 123.28071816 358.609375 121.20703125 C362.71750118 119.13283029 366.53266972 119.23615596 371 120 C375.5926563 121.79712638 377.74740081 124.66166082 380 129 C380.51333504 133.79112705 380.00163185 137.61547308 378 142 C375.625 144.625 375.625 144.625 373 147 C372.0409375 148.051875 372.0409375 148.051875 371.0625 149.125 C367.73777162 152.14748034 364.52857973 154 360 154 C362.56833081 161.07110652 365.189466 167.83729899 369.08203125 174.29296875 C370 176 370 176 370 178 C370.99 178.33 371.98 178.66 373 179 C373.928125 180.3303125 373.928125 180.3303125 374.875 181.6875 C379.70200898 187.79095208 388.51437651 190.15458774 395.625 192.6875 C398.74189937 193.89962753 399.98501617 194.48280135 402 197 C401.92883814 200.41576935 401.726677 202.27823298 399.265625 204.72265625 C394.99393779 207.13100404 390.50228616 205.24791627 386 204 C378.91679425 201.50271592 370.99066463 197.77141278 366 192 C366 191.34 366 190.68 366 190 C365.01 189.67 364.02 189.34 363 189 C363 188.34 363 187.68 363 187 C362.0409375 186.6596875 362.0409375 186.6596875 361.0625 186.3125 C359 185 359 185 358.25 182.375 C358.12625 181.199375 358.12625 181.199375 358 180 C357.34 180 356.68 180 356 180 C351.35175751 172.55913752 348 164.89265215 348 156 C347.12988281 155.85304688 347.12988281 155.85304688 346.2421875 155.703125 C338.67362417 154.2543571 333.91566993 150.87172818 328 146 C327.938125 146.8353125 327.938125 146.8353125 327.875 147.6875 C326.52636494 151.2517498 324.03329722 152.816026 321 155 C320.01 155 319.02 155 318 155 C318 155.66 318 156.32 318 157 C310.86278453 160.29409945 303.25878749 161.74154651 295.59375 159.203125 C292.0882103 157.50267664 289.09034297 155.3651967 286 153 C285.32453125 153.34933594 284.6490625 153.69867188 283.953125 154.05859375 C283.06109375 154.51363281 282.1690625 154.96867188 281.25 155.4375 C280.36828125 155.88996094 279.4865625 156.34242188 278.578125 156.80859375 C274.29887058 158.78612799 270.77427698 159.15779144 266.0625 159.1875 C265.04285156 159.20167969 264.02320313 159.21585938 262.97265625 159.23046875 C259.92840333 158.99444914 257.75262357 158.28252995 255 157 C255 156.34 255 155.68 255 155 C254.401875 154.7525 253.80375 154.505 253.1875 154.25 C250.22433011 152.55676006 248.54028713 150.58732634 247.43359375 147.3359375 C245.55043315 137.19062182 246.90429059 126.72937243 250 117 C245.53468674 117.63048443 244.13885281 118.75236093 241.34765625 122.3203125 C236.85660655 127.9178527 232.72731212 130.20568314 225.8125 132.25 C220.74189125 133.81684798 220.74189125 133.81684798 217.20703125 137.53515625 C216.237225 140.02444233 215.49889857 142.37823713 215 145 C214.34 145 213.68 145 213 145 C212.938125 145.8353125 212.938125 145.8353125 212.875 146.6875 C211.51022892 150.294395 209.08919824 151.73038496 206 154 C205.34 154 204.68 154 204 154 C204 154.66 204 155.32 204 156 C194.2057718 160.58018187 187.45426237 161.08562532 177.1640625 157.8515625 C175 157 175 157 172 155 C172 154.34 172 153.68 172 153 C171.34 153 170.68 153 170 153 C169.38125 152.34 168.7625 151.68 168.125 151 C166.0008924 148.5430902 166.0008924 148.5430902 162 149 C162 149.66 162 150.32 162 151 C152.54867115 155.98239066 145.72271052 158.5965404 135 157 C135 156.34 135 155.68 135 155 C134.401875 154.79375 133.80375 154.5875 133.1875 154.375 C130.09768718 152.43283194 129.38919486 150.34741021 128 147 C126.72841952 135.80188807 128.65842175 124.12791248 130 113 C127.53422529 113.36077884 127.53422529 113.36077884 125 114 C123.79996657 115.81601365 123.79996657 115.81601365 123 118 C121.5 120.25 121.5 120.25 120 122 C119.34 122 118.68 122 118 122 C117.855625 122.61875 117.71125 123.2375 117.5625 123.875 C117 126 117 126 116 128 C115.34 128 114.68 128 114 128 C113.86948242 128.58555664 113.73896484 129.17111328 113.60449219 129.77441406 C112.64316616 133.31377112 110.90052195 136.4914895 109.25 139.75 C108.71137329 140.82036499 108.71137329 140.82036499 108.16186523 141.91235352 C102.02818599 153.97181401 102.02818599 153.97181401 99 157 C93.66554622 157.46386555 93.66554622 157.46386555 91.32421875 155.83203125 C86.83710845 149.62420018 90.34502807 136.79005906 91.2878418 129.44506836 C91.89899374 124.58681783 92.0885485 119.89783911 92 115 C91.21625 115.495 90.4325 115.99 89.625 116.5 C87 118 87 118 85 118 C85 118.66 85 119.32 85 120 C83.35570171 121.68873879 81.68615782 123.35305515 80 125 C79.443125 125.763125 78.88625 126.52625 78.3125 127.3125 C77.879375 127.869375 77.44625 128.42625 77 129 C76.34 129 75.68 129 75 129 C75 129.99 75 130.98 75 132 C74.34 132 73.68 132 73 132 C72.83177734 132.84304688 72.83177734 132.84304688 72.66015625 133.703125 C71.90942661 136.31513108 70.78832624 138.39471322 69.4375 140.75 C68.98246094 141.54921875 68.52742187 142.3484375 68.05859375 143.171875 C67.70925781 143.77515625 67.35992187 144.3784375 67 145 C66.34 145 65.68 145 65 145 C64.9175 145.70125 64.835 146.4025 64.75 147.125 C63.7542489 150.94204588 61.80840551 154.19159449 59 157 C53.7030303 157.46060606 53.7030303 157.46060606 51.1875 155.8125 C49.72461964 153.57968261 49.35494045 151.62655933 49 149 C48.52691406 149.32613281 48.05382812 149.65226563 47.56640625 149.98828125 C38.23668494 156.15353568 30.20995557 157.80736522 19 157 C18.01 156.67 17.02 156.34 16 156 C16 155.34 16 154.68 16 154 C15.401875 153.938125 14.80375 153.87625 14.1875 153.8125 C11.09660471 152.66445318 10.4119656 150.89452948 9 148 C9 147.34 9 146.68 9 146 C8.34 146 7.68 146 7 146 C6.67 146.99 6.34 147.98 6 149 C-2.90091304 155.10348323 -14.09512661 159.70354022 -25 159 C-29.10704702 157.99632884 -33.20917646 156.89541177 -37 155 C-37.62648437 155.433125 -38.25296875 155.86625 -38.8984375 156.3125 C-39.71570313 156.869375 -40.53296875 157.42625 -41.375 158 C-42.18710938 158.556875 -42.99921875 159.11375 -43.8359375 159.6875 C-46 161 -46 161 -48 161 C-48 162.32 -48 163.64 -48 165 C-38.83340119 167.36026197 -30.16715362 169.43362711 -20.63671875 169.53125 C-17.18772735 170.14440403 -16.10356232 171.23264691 -14 174 C-12.98046875 176.59375 -12.98046875 176.59375 -12.1875 179.5 C-8.48488207 191.40645766 -1.37731638 202.76660502 8.359375 210.640625 C10 212 10 212 12.3125 214.4375 C21.13789556 222.85241204 32.32693795 228.21909062 43.03515625 233.8203125 C43.76089844 234.201875 44.48664063 234.5834375 45.234375 234.9765625 C45.88631836 235.31768066 46.53826172 235.65879883 47.20996094 236.01025391 C48.85711354 236.9209954 50.43394037 237.95596025 52 239 C52.92604949 242.57190516 53.45331917 244.92336696 52 248.375 C48.97684643 250.83131227 46.89771043 250.88188756 43 251 C39.50967264 249.86047879 36.31995986 248.24448878 33.0625 246.5625 C32.18787109 246.12873047 31.31324219 245.69496094 30.41210938 245.24804688 C28.26626164 244.18098598 26.12999381 243.09827308 24 242 C24 241.34 24 240.68 24 240 C23.21625 239.814375 22.4325 239.62875 21.625 239.4375 C16.56948069 237.4327251 12.1687768 234.49320428 8 231 C8 230.34 8 229.68 8 229 C7.13181641 228.58814453 7.13181641 228.58814453 6.24609375 228.16796875 C-0.49145074 224.66444561 -4.80620865 220.23077572 -9 214 C-9.99 213.34 -10.98 212.68 -12 212 C-12 211.01 -12 210.02 -12 209 C-12.99 208.67 -13.98 208.34 -15 208 C-17 205 -17 205 -17 202 C-17.66 202 -18.32 202 -19 202 C-20.13011652 199.7941576 -21.25415788 197.58554973 -22.375 195.375 C-22.69210938 194.75753906 -23.00921875 194.14007813 -23.3359375 193.50390625 C-23.6453125 192.89160156 -23.9546875 192.27929688 -24.2734375 191.6484375 C-24.58394043 191.03814697 -24.89444336 190.42785645 -25.21435547 189.79907227 C-26 188 -26 188 -26.65625 184.67578125 C-27.69051898 181.90749295 -27.69051898 181.90749295 -29.80322266 181.20703125 C-32.2365704 180.6032801 -34.64526743 180.18146323 -37.125 179.8125 C-43.43134259 178.75981083 -49.06892592 177.43132945 -55 175 C-55.33 176.65 -55.66 178.3 -56 180 C-56.66 180 -57.32 180 -58 180 C-58 180.66 -58 181.32 -58 182 C-64.4 183.23076923 -64.4 183.23076923 -67.4375 182.0625 C-67.953125 181.711875 -68.46875 181.36125 -69 181 C-69 180.34 -69 179.68 -69 179 C-70.953125 179.06510417 -72.90625 179.13020833 -74.859375 179.1953125 C-77 179 -77 179 -78.85205078 177.94116211 C-81.52196237 176.77129292 -82.70425568 177.05759805 -85.5078125 177.74609375 C-91.26834791 179.06221461 -97.04871903 180.08150647 -102.875 181.0625 C-103.87402344 181.23587891 -104.87304688 181.40925781 -105.90234375 181.58789062 C-116.11891536 183.30822946 -126.26586968 184.17767354 -136.625 184.125 C-137.39328125 184.12886719 -138.1615625 184.13273438 -138.953125 184.13671875 C-144.68372508 184.12713581 -150.30909163 183.65658575 -156 183 C-156.51463053 207.0477608 -155.70030784 228.44953824 -142 249 C-142 249.66 -142 250.32 -142 251 C-141.01 251.33 -140.02 251.66 -139 252 C-139 252.66 -139 253.32 -139 254 C-138.34 254 -137.68 254 -137 254 C-136.360625 254.680625 -135.72125 255.36125 -135.0625 256.0625 C-125.93549676 265.48565969 -116.0178141 268.12715213 -103.4375 268.4375 C-93.0389698 268.47538763 -83.21020311 266.12045727 -74.16796875 260.828125 C-71 259 -71 259 -69 259 C-69 258.34 -69 257.68 -69 257 C-68.21625 256.7525 -67.4325 256.505 -66.625 256.25 C-63.49213817 254.75816103 -63.43877167 254.02674928 -62 251 C-60.87000485 249.39028993 -59.7011076 247.80736832 -58.5 246.25 C-57.8915625 245.45078125 -57.283125 244.6515625 -56.65625 243.828125 C-56.1096875 243.22484375 -55.563125 242.6215625 -55 242 C-54.34 242 -53.68 242 -53 242 C-52.87238281 241.41734375 -52.74476562 240.8346875 -52.61328125 240.234375 C-52.01203166 238.04383509 -51.2309448 236.2620609 -50.1875 234.25 C-49.08269491 232.11617067 -47.99559381 229.9904561 -46.98828125 227.80859375 C-43.63033511 220.60161843 -43.63033511 220.60161843 -40 219 C-36.75 219.3125 -36.75 219.3125 -34 220 C-34 220.66 -34 221.32 -34 222 C-33.34 222 -32.68 222 -32 222 C-30.69391256 227.76171146 -31.47773049 231.52346748 -33.9375 236.75 C-34.25380371 237.44593262 -34.57010742 238.14186523 -34.89599609 238.85888672 C-37.85993905 245.14476476 -41.61602766 250.61213483 -46 256 C-46.51046875 256.66128906 -47.0209375 257.32257813 -47.546875 258.00390625 C-48.63721134 259.3860679 -49.80883117 260.70372804 -51 262 C-51.66 262 -52.32 262 -53 262 C-53.66 263.32 -54.32 264.64 -55 266 C-55.66 266 -56.32 266 -57 266 C-57.33 266.99 -57.66 267.98 -58 269 C-58.99 269 -59.98 269 -61 269 C-61 269.66 -61 270.32 -61 271 C-67.16085215 275.6323074 -73.94995579 278.59545465 -81.25 280.875 C-81.89839844 281.07778564 -82.54679687 281.28057129 -83.21484375 281.48950195 C-100.15089559 286.45995834 -117.84133411 284.77521179 -133.37890625 276.5 C-134.67634766 275.7575 -134.67634766 275.7575 -136 275 C-136.93714844 274.484375 -137.87429687 273.96875 -138.83984375 273.4375 C-139.90912109 272.7259375 -139.90912109 272.7259375 -141 272 C-141 271.34 -141 270.68 -141 270 C-141.58523437 269.91234375 -142.17046875 269.8246875 -142.7734375 269.734375 C-146.97545295 268.3484471 -149.42477208 264.45093514 -152 261 C-153.4375 258 -153.4375 258 -154 256 C-154.66 256 -155.32 256 -156 256 C-173.94404087 225.7623822 -173.92225151 192.49760149 -167 159 C-166.83935059 158.16549316 -166.67870117 157.33098633 -166.51318359 156.47119141 C-164.07861319 143.9393477 -160.16194675 131.86071148 -156.1875 119.75 C-155.94314209 118.99649261 -155.69878418 118.24298523 -155.44702148 117.46664429 C-151.04887952 103.9790457 -145.26712775 91.42387904 -138.86735535 78.78387451 C-138.07614249 77.15660093 -137.37644014 75.48564034 -136.6875 73.8125 C-134.24797323 67.99210732 -131.02703223 62.52818174 -128 57 C-127.4328125 55.95070313 -126.865625 54.90140625 -126.28125 53.8203125 C-122.26320423 46.39480634 -122.26320423 46.39480634 -120 43 C-117.8359375 42.70703125 -117.8359375 42.70703125 -115.375 42.8125 C-114.55773437 42.83957031 -113.74046875 42.86664063 -112.8984375 42.89453125 C-112.27195313 42.92933594 -111.64546875 42.96414063 -111 43 C-110.67 43.99 -110.34 44.98 -110 46 C-109.34 46 -108.68 46 -108 46 C-107.5936988 50.97718971 -108.15162824 53.92577295 -110.84375 58.15625 C-112.81842975 61.30506366 -114.36243133 64.66637807 -116 68 C-116.66 68 -117.32 68 -118 68 C-119.77988855 74.6110146 -120.01643635 79.87111854 -118.8125 86.5625 C-118.67231445 87.3575293 -118.53212891 88.15255859 -118.38769531 88.97167969 C-115.43206239 105.01746804 -109.73079001 119.5454858 -99 132 C-98.23816406 132.97646484 -98.23816406 132.97646484 -97.4609375 133.97265625 C-92.13845818 140.5667624 -84.62664437 147.18667782 -77 151 C-71.96513479 151.37295298 -69.90591169 151.02393163 -66 148 C-61.97749297 147.40090321 -60.49827337 147.65337505 -57.125 150 C-56.42375 150.66 -55.7225 151.32 -55 152 C-54.37351562 151.566875 -53.74703125 151.13375 -53.1015625 150.6875 C-52.28429687 150.130625 -51.46703125 149.57375 -50.625 149 C-49.81289062 148.443125 -49.00078125 147.88625 -48.1640625 147.3125 C-46 146 -46 146 -44 146 C-44.23396484 144.79730469 -44.23396484 144.79730469 -44.47265625 143.5703125 C-49.71769443 112.93373187 -38.73786116 81.00879004 -30 52 C-30.96099609 52.02175293 -30.96099609 52.02175293 -31.94140625 52.04394531 C-45.37642224 52.21914112 -60.76793193 49.34232302 -71 40 C-71.66841257 36.65793716 -71.57006762 35.03953508 -69.9375 32.0625 C-67.49377022 30.72239012 -65.70825674 30.84343819 -63.00390625 31.3515625 C-60.71436754 32.09242688 -58.87620326 33.13902527 -56.8125 34.375 C-47.01005431 40.09447084 -36.07416216 40.56126953 -25 41 C-24.88374268 40.31607178 -24.76748535 39.63214355 -24.64770508 38.92749023 C-23.44784583 33.5043797 -21.35254582 28.34277224 -19.44458008 23.13500977 C-18.69220854 21.07538965 -17.95233439 19.01155638 -17.21289062 16.94726562 C-16.72992862 15.62211789 -16.24622842 14.29723891 -15.76171875 12.97265625 C-15.111427 11.18226929 -15.111427 11.18226929 -14.44799805 9.35571289 C-10.93117204 1.20552348 -8.93179244 -1.78635849 0 0 Z M15 20 C15 21.65 15 23.3 15 25 C15.66 24.67 16.32 24.34 17 24 C17 22.68 17 21.36 17 20 C16.34 20 15.68 20 15 20 Z M-131 96 C-147.18304008 132.28861294 -147.18304008 132.28861294 -154 171 C-129.45302259 173.91235325 -105.7533341 170.25999326 -82 164 C-82 163.34 -82 162.68 -82 162 C-83.50365787 161.0026759 -85.05686702 160.08002525 -86.625 159.1875 C-91.70883804 156.04883994 -96.05965662 152.49851818 -100.4375 148.4375 C-101.32332764 147.62478638 -101.32332764 147.62478638 -102.22705078 146.7956543 C-104.94507321 144.22811466 -107.27479766 141.76023697 -109.28515625 138.59765625 C-109.85105469 137.74042969 -110.41695312 136.88320313 -111 136 C-111.66 136 -112.32 136 -113 136 C-113.27328125 135.25363281 -113.5465625 134.50726563 -113.828125 133.73828125 C-114.91995727 131.18703318 -116.08607684 129.38369966 -117.75 127.1875 C-123.98221251 118.07536533 -127.10754908 106.55490862 -130 96 C-130.33 96 -130.66 96 -131 96 Z M188 109 C187.34 109.66 186.68 110.32 186 111 C186.08656807 114.89556331 186.74712753 116.68210318 189.1875 119.75 C194.5831659 124.06653272 199.36516172 124.22878753 206 124 C204.89990529 119.19101454 203.83462818 115.11301701 199.8125 112 C195.92521994 109.60973631 192.53627702 109.07688605 188 109 Z M297 122 C294.40594617 128.17631865 293.45532845 136.82501511 295.828125 143.23828125 C297.0394015 145.30472801 297.0394015 145.30472801 300 147 C305.60403334 147.45934699 309.21080212 147.22750292 314 144 C319.6796917 138.37710522 325.08099851 131.877906 325.25 123.625 C325.18407463 118.54874663 323.75653466 115.88664834 320.3125 112.1875 C310.86344483 107.33528248 302.17474336 114.3900833 297 122 Z M174 121 C172.22662759 126.32011724 172.24444107 131.75073059 174.4375 136.875 C174.953125 137.90625 175.46875 138.9375 176 140 C176.33 140.66 176.66 141.32 177 142 C177.66 142 178.32 142 179 142 C179 142.66 179 143.32 179 144 C183.55451637 146.66605836 186.72769177 147.72721493 192 147 C196.15305688 145.00009622 199.96171648 142.49777702 203 139 C203 138.34 203 137.68 203 137 C202.09378906 136.85304688 201.18757813 136.70609375 200.25390625 136.5546875 C190.50332036 134.75934153 182.9292426 132.4225803 177 124.125 C176.34 123.09375 175.68 122.0625 175 121 C174.67 121 174.34 121 174 121 Z M366 132 C363.49962266 134.17424117 362.56371414 135.73045798 362 139 C363.65 137.35 365.3 135.7 367 134 C366.67 133.34 366.34 132.68 366 132 Z M-71 163.25 C-72.22364017 165.8802933 -72.22364017 165.8802933 -71.5625 168.25 C-70.03022246 170.26446481 -70.03022246 170.26446481 -67.0625 170.9375 C-64.07942474 171.25299053 -64.07942474 171.25299053 -62.0625 169.9375 C-60.48654477 167.06369928 -61.19498967 165.08587291 -62 162 C-63.10796961 160.68879347 -63.10796961 160.68879347 -65.875 160.625 C-69.14965389 160.66771065 -69.14965389 160.66771065 -71 163.25 Z " fill="#E9EAEA" transform="translate(172,249)"/>
<path d="M0 0 C0.76176544 -0.00979385 1.52353088 -0.01958771 2.30838013 -0.02967834 C42.13874444 -0.43553337 78.0230185 7.60744443 113.8203125 25.23828125 C115.15449219 25.89376953 115.15449219 25.89376953 116.515625 26.5625 C118.28945553 27.44323467 120.05620628 28.33822706 121.8203125 29.23828125 C121.8203125 29.89828125 121.8203125 30.55828125 121.8203125 31.23828125 C122.50480469 31.32207031 123.18929688 31.40585938 123.89453125 31.4921875 C127.55815269 32.42643542 130.46817191 34.18244576 133.6328125 36.17578125 C134.5290332 36.7162207 134.5290332 36.7162207 135.44335938 37.26757812 C136.94160265 38.19734509 138.38659814 39.21180054 139.8203125 40.23828125 C139.8203125 40.89828125 139.8203125 41.55828125 139.8203125 42.23828125 C140.4184375 42.36203125 141.0165625 42.48578125 141.6328125 42.61328125 C143.8203125 43.23828125 143.8203125 43.23828125 146.8203125 45.23828125 C146.8203125 45.89828125 146.8203125 46.55828125 146.8203125 47.23828125 C147.4803125 47.42390625 148.1403125 47.60953125 148.8203125 47.80078125 C152.37891669 49.50594576 154.84769381 51.71640036 157.75 54.359375 C160.28267964 56.65790124 162.91923226 58.81664222 165.5703125 60.9765625 C166.8203125 62.23828125 166.8203125 62.23828125 166.8203125 64.23828125 C167.4803125 64.23828125 168.1403125 64.23828125 168.8203125 64.23828125 C170.17418186 65.88830953 171.50709392 67.55571995 172.8203125 69.23828125 C173.4803125 69.56828125 174.1403125 69.89828125 174.8203125 70.23828125 C174.8203125 70.89828125 174.8203125 71.55828125 174.8203125 72.23828125 C175.4596875 72.48578125 176.0990625 72.73328125 176.7578125 72.98828125 C178.8203125 74.23828125 178.8203125 74.23828125 179.3828125 76.30078125 C179.5271875 76.94015625 179.6715625 77.57953125 179.8203125 78.23828125 C180.8103125 78.56828125 181.8003125 78.89828125 182.8203125 79.23828125 C183.75928852 80.55980305 184.68208492 81.89490018 185.53515625 83.2734375 C186.83946757 85.32735349 186.83946757 85.32735349 188.57421875 87.484375 C194.77926536 95.46229207 198.81155391 104.03106797 202.8203125 113.23828125 C203.24441406 114.1921875 203.66851563 115.14609375 204.10546875 116.12890625 C210.7135643 131.70692617 214.19336186 151.11109294 208.01953125 167.34375 C207.32529107 168.99215915 206.57858744 170.61833025 205.8203125 172.23828125 C205.1603125 172.23828125 204.5003125 172.23828125 203.8203125 172.23828125 C204.44075439 173.24411255 204.44075439 173.24411255 205.07373047 174.27026367 C206.95161287 177.31964727 208.8235131 180.37266031 210.6953125 183.42578125 C211.34628906 184.48087891 211.99726562 185.53597656 212.66796875 186.62304688 C213.29316406 187.64462891 213.91835938 188.66621094 214.5625 189.71875 C215.1385498 190.65614014 215.71459961 191.59353027 216.30810547 192.55932617 C217.72524331 195.06986113 218.82231466 197.53769052 219.8203125 200.23828125 C220.3978125 199.92890625 220.9753125 199.61953125 221.5703125 199.30078125 C223.8203125 198.23828125 223.8203125 198.23828125 226.0078125 197.80078125 C226.6059375 197.61515625 227.2040625 197.42953125 227.8203125 197.23828125 C228.1503125 196.24828125 228.4803125 195.25828125 228.8203125 194.23828125 C235.4860458 189.47849921 242.25062554 186.06956181 250.5625 186.6875 C252.8203125 187.23828125 252.8203125 187.23828125 255.5078125 189.30078125 C257.14546271 192.96599838 257.30957543 195.25428312 256.8203125 199.23828125 C255.3203125 202.67578125 255.3203125 202.67578125 253.8203125 205.23828125 C253.1603125 205.23828125 252.5003125 205.23828125 251.8203125 205.23828125 C251.8203125 206.22828125 251.8203125 207.21828125 251.8203125 208.23828125 C251.1603125 208.23828125 250.5003125 208.23828125 249.8203125 208.23828125 C249.8203125 209.22828125 249.8203125 210.21828125 249.8203125 211.23828125 C249.1603125 211.23828125 248.5003125 211.23828125 247.8203125 211.23828125 C247.8203125 211.89828125 247.8203125 212.55828125 247.8203125 213.23828125 C247.1603125 213.23828125 246.5003125 213.23828125 245.8203125 213.23828125 C245.5315625 214.00140625 245.2428125 214.76453125 244.9453125 215.55078125 C243.8203125 218.23828125 243.8203125 218.23828125 241.8203125 221.23828125 C241.1603125 221.23828125 240.5003125 221.23828125 239.8203125 221.23828125 C239.4903125 222.22828125 239.1603125 223.21828125 238.8203125 224.23828125 C238.1603125 224.23828125 237.5003125 224.23828125 236.8203125 224.23828125 C235.8296511 226.88004499 235.60489718 228.64449395 236.57421875 231.31640625 C238.41010436 235.50262326 238.41010436 235.50262326 241.8203125 238.23828125 C241.8203125 237.57828125 241.8203125 236.91828125 241.8203125 236.23828125 C244.3817782 233.94179476 245.29998822 233.23828125 248.8203125 233.23828125 C248.8203125 232.57828125 248.8203125 231.91828125 248.8203125 231.23828125 C260.02588741 225.01551321 260.02588741 225.01551321 266.8203125 225.23828125 C269.7931064 226.37643663 271.85169274 227.72249225 273.8203125 230.23828125 C275.18710374 237.94201371 272.01172547 241.9511618 267.8203125 248.23828125 C267.1603125 248.23828125 266.5003125 248.23828125 265.8203125 248.23828125 C265.665625 249.10453125 265.665625 249.10453125 265.5078125 249.98828125 C264.71134785 252.59489283 263.62965973 254.21181235 261.8203125 256.23828125 C261.1603125 256.23828125 260.5003125 256.23828125 259.8203125 256.23828125 C259.8203125 256.89828125 259.8203125 257.55828125 259.8203125 258.23828125 C259.1603125 258.23828125 258.5003125 258.23828125 257.8203125 258.23828125 C257.8203125 259.22828125 257.8203125 260.21828125 257.8203125 261.23828125 C257.1603125 261.23828125 256.5003125 261.23828125 255.8203125 261.23828125 C255.4903125 262.22828125 255.1603125 263.21828125 254.8203125 264.23828125 C254.1603125 264.23828125 253.5003125 264.23828125 252.8203125 264.23828125 C253.36353351 271.91634531 255.32651668 278.72930629 257.6328125 286.05078125 C260.15341844 294.3063541 262.52959255 302.51446924 264.1953125 310.98828125 C264.33815674 311.71120361 264.48100098 312.43412598 264.62817383 313.17895508 C265.06464768 315.52734829 265.45133005 317.87828972 265.8203125 320.23828125 C265.99473877 321.35380371 266.16916504 322.46932617 266.34887695 323.61865234 C270.43844786 351.74245765 269.0351373 379.14332216 254.8203125 404.23828125 C253.54323375 405.94843488 252.21502269 407.62262688 250.8203125 409.23828125 C250.2325 409.93050781 249.6446875 410.62273437 249.0390625 411.3359375 C242.32279512 419.01385225 242.32279512 419.01385225 239.8203125 421.23828125 C239.1603125 421.23828125 238.5003125 421.23828125 237.8203125 421.23828125 C237.4903125 422.22828125 237.1603125 423.21828125 236.8203125 424.23828125 C220.61800553 435.00244366 203.19230364 437.28064613 184.2109375 434.078125 C177.16266016 432.33229594 170.31066586 429.48345793 163.8203125 426.23828125 C163.8203125 425.57828125 163.8203125 424.91828125 163.8203125 424.23828125 C163.24796875 424.13386719 162.675625 424.02945312 162.0859375 423.921875 C159.45045482 423.12668626 157.75999942 421.95926634 155.5703125 420.30078125 C154.51070312 419.51380859 154.51070312 419.51380859 153.4296875 418.7109375 C152.89859375 418.22496094 152.3675 417.73898437 151.8203125 417.23828125 C151.8203125 416.57828125 151.8203125 415.91828125 151.8203125 415.23828125 C151.1603125 415.23828125 150.5003125 415.23828125 149.8203125 415.23828125 C147.6953125 413.36328125 147.6953125 413.36328125 145.8203125 411.23828125 C145.8203125 410.57828125 145.8203125 409.91828125 145.8203125 409.23828125 C145.1603125 409.23828125 144.5003125 409.23828125 143.8203125 409.23828125 C143.7171875 408.59890625 143.6140625 407.95953125 143.5078125 407.30078125 C143.1675 406.27984375 143.1675 406.27984375 142.8203125 405.23828125 C141.8303125 404.90828125 140.8403125 404.57828125 139.8203125 404.23828125 C138.19624802 401.74039946 136.73899665 399.28606644 135.3203125 396.67578125 C134.92972656 395.98419922 134.53914063 395.29261719 134.13671875 394.58007812 C126.63759867 381.0336878 126.63759867 381.0336878 128.8203125 373.23828125 C132.55286698 370.7499116 134.40472185 370.69601573 138.8203125 371.23828125 C142.87398734 374.69582743 144.60334391 379.90583835 146.671875 384.71484375 C147.81291639 387.40075357 147.81291639 387.40075357 149.8203125 390.23828125 C149.8203125 391.22828125 149.8203125 392.21828125 149.8203125 393.23828125 C150.4803125 393.23828125 151.1403125 393.23828125 151.8203125 393.23828125 C152.77203999 394.63188222 153.7170249 396.03063068 154.625 397.453125 C158.25474838 402.87402372 162.19930374 406.865676 167.8203125 410.23828125 C168.62662109 410.83769531 168.62662109 410.83769531 169.44921875 411.44921875 C181.58136706 420.0963223 197.46210612 420.61641029 211.75 418.8828125 C216.14791115 418.01655727 219.89130608 416.3465286 223.8203125 414.23828125 C224.4803125 414.23828125 225.1403125 414.23828125 225.8203125 414.23828125 C225.8203125 413.57828125 225.8203125 412.91828125 225.8203125 412.23828125 C226.8103125 412.23828125 227.8003125 412.23828125 228.8203125 412.23828125 C229.1503125 411.24828125 229.4803125 410.25828125 229.8203125 409.23828125 C231.7578125 407.05078125 231.7578125 407.05078125 233.8203125 405.23828125 C234.4803125 405.23828125 235.1403125 405.23828125 235.8203125 405.23828125 C235.8203125 404.57828125 235.8203125 403.91828125 235.8203125 403.23828125 C236.3978125 402.68785156 236.9753125 402.13742187 237.5703125 401.5703125 C240.36048647 398.67841344 242.05572018 395.49136248 243.8203125 391.92578125 C244.16843994 391.22590088 244.51656738 390.52602051 244.87524414 389.80493164 C260.94869828 356.26180433 250.9188609 316.07209 240.6796875 282.30078125 C240.01005577 280.06081127 240.01005577 280.06081127 237.8203125 279.23828125 C237.8203125 279.89828125 237.8203125 280.55828125 237.8203125 281.23828125 C234.06131872 284.7547593 230.10808193 287.90779566 224.8203125 288.23828125 C224.8203125 288.89828125 224.8203125 289.55828125 224.8203125 290.23828125 C215.29771139 295.21483047 215.29771139 295.21483047 209.8828125 295.30078125 C205.84114057 293.89856854 203.72777026 292.05319676 201.8203125 288.23828125 C201.01896823 280.70564511 203.65727893 273.4828316 207.8203125 267.23828125 C208.4803125 267.23828125 209.1403125 267.23828125 209.8203125 267.23828125 C209.8203125 266.57828125 209.8203125 265.91828125 209.8203125 265.23828125 C211.6328125 264.61328125 211.6328125 264.61328125 213.8203125 264.23828125 C214.8103125 264.89828125 215.8003125 265.55828125 216.8203125 266.23828125 C216.25485413 270.19648984 215.01128902 272.90418655 212.8203125 276.23828125 C213.3978125 276.32078125 213.9753125 276.40328125 214.5703125 276.48828125 C217.4362429 277.44359138 218.8193889 279.02297298 220.8203125 281.23828125 C225.12359859 279.25676812 228.75997196 276.47502734 232.578125 273.69921875 C234.8203125 272.23828125 234.8203125 272.23828125 236.8203125 272.23828125 C232.78862316 261.4418824 228.33570869 250.83928036 223.8203125 240.23828125 C220.70650311 241.0132646 220.70650311 241.0132646 218.7578125 243.42578125 C213.18645891 249.21463513 204.50204227 253.93947364 196.8203125 256.23828125 C192.86819774 256.23828125 190.76829846 255.83700922 187.4453125 253.73828125 C185.03082148 250.02367968 184.61105927 246.6325991 184.8203125 242.23828125 C185.56472015 239.11930742 186.58344928 236.19417472 187.8203125 233.23828125 C188.4803125 233.23828125 189.1403125 233.23828125 189.8203125 233.23828125 C189.9234375 232.64015625 190.0265625 232.04203125 190.1328125 231.42578125 C190.95301185 228.81605606 191.52248051 227.74375738 193.8203125 226.23828125 C197.0078125 226.55078125 197.0078125 226.55078125 199.8203125 227.23828125 C199.4903125 229.21828125 199.1603125 231.19828125 198.8203125 233.23828125 C198.1603125 233.23828125 197.5003125 233.23828125 196.8203125 233.23828125 C196.8203125 234.22828125 196.8203125 235.21828125 196.8203125 236.23828125 C198.78753258 237.61952088 200.78899578 238.95316251 202.8203125 240.23828125 C203.1503125 240.89828125 203.4803125 241.55828125 203.8203125 242.23828125 C205.8003125 241.90828125 207.7803125 241.57828125 209.8203125 241.23828125 C209.8203125 240.57828125 209.8203125 239.91828125 209.8203125 239.23828125 C211.7890625 237.51171875 211.7890625 237.51171875 214.3203125 235.61328125 C215.155625 234.98164063 215.9909375 234.35 216.8515625 233.69921875 C217.50125 233.21710938 218.1509375 232.735 218.8203125 232.23828125 C218.51287109 231.33335937 218.51287109 231.33335937 218.19921875 230.41015625 C217.92980469 229.6109375 217.66039062 228.81171875 217.3828125 227.98828125 C216.98255859 226.80492187 216.98255859 226.80492187 216.57421875 225.59765625 C215.90076542 223.49006137 215.32880655 221.39074152 214.8203125 219.23828125 C214.1603125 219.23828125 213.5003125 219.23828125 212.8203125 219.23828125 C212.48 218.52285156 212.1396875 217.80742187 211.7890625 217.0703125 C208.3750201 210.0515498 204.59318243 203.49411962 200.359375 196.953125 C198.8203125 194.23828125 198.8203125 194.23828125 198.8203125 191.23828125 C198.1603125 191.23828125 197.5003125 191.23828125 196.8203125 191.23828125 C186.8203125 178.63828125 186.8203125 178.63828125 186.8203125 173.23828125 C186.1603125 173.23828125 185.5003125 173.23828125 184.8203125 173.23828125 C184.1603125 171.25828125 183.5003125 169.27828125 182.8203125 167.23828125 C182.1603125 167.23828125 181.5003125 167.23828125 180.8203125 167.23828125 C180.4903125 166.24828125 180.1603125 165.25828125 179.8203125 164.23828125 C179.1603125 163.90828125 178.5003125 163.57828125 177.8203125 163.23828125 C176.80679586 161.57979948 175.80910455 159.91162164 174.8203125 158.23828125 C173.50709392 156.55571995 172.17418186 154.88830953 170.8203125 153.23828125 C167.8203125 149.48828125 167.8203125 149.48828125 167.8203125 147.23828125 C167.1603125 147.23828125 166.5003125 147.23828125 165.8203125 147.23828125 C164.09375 145.33984375 164.09375 145.33984375 162.1953125 142.86328125 C161.24785156 141.64511719 161.24785156 141.64511719 160.28125 140.40234375 C158.8203125 138.23828125 158.8203125 138.23828125 158.8203125 136.23828125 C158.1603125 136.23828125 157.5003125 136.23828125 156.8203125 136.23828125 C156.5728125 135.45453125 156.3253125 134.67078125 156.0703125 133.86328125 C154.62536965 130.82890126 153.76465431 130.567984 150.8203125 129.23828125 C150.4903125 128.24828125 150.1603125 127.25828125 149.8203125 126.23828125 C149.1603125 126.23828125 148.5003125 126.23828125 147.8203125 126.23828125 C146.3125 124.77734375 146.3125 124.77734375 144.6953125 122.86328125 C143.88707031 121.92355469 143.88707031 121.92355469 143.0625 120.96484375 C141.8203125 119.23828125 141.8203125 119.23828125 141.8203125 117.23828125 C140.5003125 116.57828125 139.1803125 115.91828125 137.8203125 115.23828125 C137.8203125 114.57828125 137.8203125 113.91828125 137.8203125 113.23828125 C136.8303125 112.90828125 135.8403125 112.57828125 134.8203125 112.23828125 C133.13392406 110.59157254 131.47003542 108.92172113 129.8203125 107.23828125 C126.93072774 104.85564119 123.99522302 102.54088595 121.05078125 100.2265625 C120.31472656 99.57042969 119.57867187 98.91429687 118.8203125 98.23828125 C118.8203125 97.57828125 118.8203125 96.91828125 118.8203125 96.23828125 C117.1703125 95.57828125 115.5203125 94.91828125 113.8203125 94.23828125 C113.8203125 93.57828125 113.8203125 92.91828125 113.8203125 92.23828125 C113.09070313 91.96628906 112.36109375 91.69429688 111.609375 91.4140625 C108.92920002 90.28418481 106.64795123 88.98021282 104.1953125 87.42578125 C90.57632617 79.21019805 76.81022025 75.20901815 60.8203125 78.23828125 C52.67090866 80.56858063 52.67090866 80.56858063 45.8203125 85.23828125 C44.8303125 85.23828125 43.8403125 85.23828125 42.8203125 85.23828125 C42.8203125 85.89828125 42.8203125 86.55828125 42.8203125 87.23828125 C42.2634375 87.73328125 41.7065625 88.22828125 41.1328125 88.73828125 C37.74175434 92.40429007 35.91516444 96.73950085 33.8203125 101.23828125 C34.43519531 101.49222656 35.05007813 101.74617188 35.68359375 102.0078125 C36.49183594 102.35199219 37.30007813 102.69617188 38.1328125 103.05078125 C38.93332031 103.38722656 39.73382813 103.72367187 40.55859375 104.0703125 C42.84142748 105.24918519 44.26741208 106.19631804 45.8203125 108.23828125 C45.7537089 111.96808269 45.62459841 114.31484187 43.1328125 117.17578125 C39.36853152 118.90531575 36.56688202 118.81530067 32.62109375 117.51171875 C30.80205252 116.82644441 28.98450162 116.1372086 27.16796875 115.4453125 C-22.41249069 97.56857742 -76.85230402 101.2810402 -125.98046875 118.390625 C-129.53201949 119.33163417 -132.52075522 119.49708378 -136.1796875 119.23828125 C-138.1171875 117.67578125 -138.1171875 117.67578125 -139.1796875 115.23828125 C-139.80109742 109.33488699 -139.80109742 109.33488699 -138.1171875 106.36328125 C-135.25855617 104.7034308 -132.43229447 104.54513096 -129.1796875 104.23828125 C-131.24887936 98.57001631 -133.15818908 93.83427945 -137.1796875 89.23828125 C-137.1796875 88.57828125 -137.1796875 87.91828125 -137.1796875 87.23828125 C-137.73914063 86.95984375 -138.29859375 86.68140625 -138.875 86.39453125 C-140.43647466 85.61114735 -141.99367618 84.81919797 -143.546875 84.01953125 C-144.37445313 83.59671875 -145.20203125 83.17390625 -146.0546875 82.73828125 C-146.87710938 82.31546875 -147.69953125 81.89265625 -148.546875 81.45703125 C-159.81092656 76.24281154 -172.25742845 76.29090763 -184.1796875 79.23828125 C-189.52224254 81.24892024 -194.82503693 83.41110616 -199.359375 86.9296875 C-201.1796875 88.23828125 -201.1796875 88.23828125 -204.1796875 88.23828125 C-204.1796875 88.89828125 -204.1796875 89.55828125 -204.1796875 90.23828125 C-205.1696875 90.23828125 -206.1596875 90.23828125 -207.1796875 90.23828125 C-207.1796875 90.89828125 -207.1796875 91.55828125 -207.1796875 92.23828125 C-208.1696875 92.23828125 -209.1596875 92.23828125 -210.1796875 92.23828125 C-210.1796875 92.89828125 -210.1796875 93.55828125 -210.1796875 94.23828125 C-210.7778125 94.50640625 -211.3759375 94.77453125 -211.9921875 95.05078125 C-214.22296658 96.12767915 -214.22296658 96.12767915 -215.8046875 97.86328125 C-216.2584375 98.31703125 -216.7121875 98.77078125 -217.1796875 99.23828125 C-217.8396875 99.23828125 -218.4996875 99.23828125 -219.1796875 99.23828125 C-219.8396875 100.55828125 -220.4996875 101.87828125 -221.1796875 103.23828125 C-221.8396875 103.23828125 -222.4996875 103.23828125 -223.1796875 103.23828125 C-223.1796875 103.89828125 -223.1796875 104.55828125 -223.1796875 105.23828125 C-225.6546875 106.22828125 -225.6546875 106.22828125 -228.1796875 107.23828125 C-228.1796875 107.89828125 -228.1796875 108.55828125 -228.1796875 109.23828125 C-229.67578125 110.67578125 -229.67578125 110.67578125 -231.6171875 112.23828125 C-234.33156988 114.38353169 -234.33156988 114.38353169 -236.1796875 117.23828125 C-236.8396875 117.23828125 -237.4996875 117.23828125 -238.1796875 117.23828125 C-238.4375 117.81191406 -238.6953125 118.38554687 -238.9609375 118.9765625 C-240.2902039 121.44337418 -241.82372767 123.32996221 -243.6796875 125.42578125 C-244.288125 126.12058594 -244.8965625 126.81539063 -245.5234375 127.53125 C-247.94972944 130.03193297 -249.00346021 130.22196391 -252.5546875 130.55078125 C-256.1796875 130.23828125 -256.1796875 130.23828125 -258.6796875 128.67578125 C-260.1796875 126.23828125 -260.1796875 126.23828125 -260.2421875 122.80078125 C-258.99796666 118.62898197 -257.40896809 117.08312368 -254.1796875 114.23828125 C-253.6228125 113.47515625 -253.0659375 112.71203125 -252.4921875 111.92578125 C-252.0590625 111.36890625 -251.6259375 110.81203125 -251.1796875 110.23828125 C-250.5196875 110.23828125 -249.8596875 110.23828125 -249.1796875 110.23828125 C-248.9115625 109.59890625 -248.6434375 108.95953125 -248.3671875 108.30078125 C-247.1796875 106.23828125 -247.1796875 106.23828125 -244.1796875 105.23828125 C-243.6846875 103.75328125 -243.6846875 103.75328125 -243.1796875 102.23828125 C-241.7421875 100.55078125 -241.7421875 100.55078125 -240.1796875 99.23828125 C-239.5196875 99.23828125 -238.8596875 99.23828125 -238.1796875 99.23828125 C-238.1796875 98.57828125 -238.1796875 97.91828125 -238.1796875 97.23828125 C-232.70349702 92.23828125 -232.70349702 92.23828125 -230.1796875 92.23828125 C-229.5196875 90.91828125 -228.8596875 89.59828125 -228.1796875 88.23828125 C-227.5196875 88.23828125 -226.8596875 88.23828125 -226.1796875 88.23828125 C-226.1796875 87.57828125 -226.1796875 86.91828125 -226.1796875 86.23828125 C-224.81669274 85.28418492 -223.44469277 84.34092114 -222.03515625 83.45703125 C-219.22879983 81.61369819 -216.63627037 79.50151493 -214.01171875 77.41015625 C-212.1796875 76.23828125 -212.1796875 76.23828125 -209.1796875 76.23828125 C-209.1796875 75.57828125 -209.1796875 74.91828125 -209.1796875 74.23828125 C-190.11848875 64.06468791 -170.99090131 58.97669226 -149.50390625 64.1953125 C-140.95459838 66.87764529 -133.52471574 70.89325301 -127.1796875 77.23828125 C-127.1796875 77.89828125 -127.1796875 78.55828125 -127.1796875 79.23828125 C-126.57125 79.48320312 -125.9628125 79.728125 -125.3359375 79.98046875 C-122.75483826 81.48610998 -122.03854504 82.72819941 -120.6796875 85.36328125 C-120.26332031 86.15863281 -119.84695312 86.95398438 -119.41796875 87.7734375 C-119.00933594 88.58683594 -118.60070312 89.40023437 -118.1796875 90.23828125 C-117.58220703 91.41197266 -117.58220703 91.41197266 -116.97265625 92.609375 C-116.02927203 94.47947588 -115.10271125 96.35804768 -114.1796875 98.23828125 C-110.7146875 97.74328125 -110.7146875 97.74328125 -107.1796875 97.23828125 C-107.3240625 96.71363281 -107.4684375 96.18898438 -107.6171875 95.6484375 C-111.98094332 77.43581774 -108.79771967 61.16491517 -99.1796875 45.23828125 C-95.10582136 38.98198681 -91.22665605 33.61529079 -84.92578125 29.51171875 C-83.07380664 28.23781685 -83.07380664 28.23781685 -81.34375 26.3359375 C-61.88193259 7.47132388 -26.13128068 0.27994745 0 0 Z M-70.1796875 36.23828125 C-70.89125 36.70621094 -71.6028125 37.17414063 -72.3359375 37.65625 C-82.74900402 44.80522067 -91.61588624 57.74989755 -94.1796875 70.23828125 C-94.26790443 71.62029097 -94.31027283 73.00580439 -94.3125 74.390625 C-94.31378906 75.16728516 -94.31507813 75.94394531 -94.31640625 76.74414062 C-94.31253906 77.54658203 -94.30867187 78.34902344 -94.3046875 79.17578125 C-94.30855469 79.97435547 -94.31242188 80.77292969 -94.31640625 81.59570312 C-94.30975748 85.60823691 -94.17637889 89.32270793 -93.1796875 93.23828125 C-88.48827245 92.67207598 -83.83903075 92.0326392 -79.1796875 91.23828125 C-79.10975586 90.64926025 -79.03982422 90.06023926 -78.96777344 89.45336914 C-78.63638864 86.73382947 -78.28317497 84.0175329 -77.9296875 81.30078125 C-77.76533203 79.91149414 -77.76533203 79.91149414 -77.59765625 78.49414062 C-75.80263934 65.03151378 -68.88009159 52.73040771 -58.1796875 44.23828125 C-48.64673465 37.76207541 -38.37552306 33.00538658 -27.1796875 30.23828125 C-26.52323242 30.07602051 -25.86677734 29.91375977 -25.19042969 29.74658203 C2.22429705 23.41859961 32.58191681 26.32915231 59.15380859 34.75073242 C64.82886759 36.50111695 68.27724261 35.97683386 73.6328125 33.80078125 C77.63638353 32.24510793 81.63822956 31.20912193 85.8203125 30.23828125 C70.85731706 15.27528581 31.20685849 14.15050157 11.0703125 13.92578125 C-17.16597124 14.01538469 -46.86735166 19.51247866 -70.1796875 36.23828125 Z M-42.1796875 42.86328125 C-43.20715088 43.37942993 -43.20715088 43.37942993 -44.25537109 43.90600586 C-50.43817908 47.14597203 -55.35021401 51.19642173 -60.1796875 56.23828125 C-60.76105469 56.77710938 -61.34242188 57.3159375 -61.94140625 57.87109375 C-68.75730651 64.70416252 -71.30423553 74.31376436 -71.3125 83.6953125 C-71.27868264 85.54318964 -71.23796813 87.39101384 -71.1796875 89.23828125 C-70.06859619 89.2225708 -68.95750488 89.20686035 -67.81274414 89.19067383 C-37.96414358 88.80654858 -10.38971322 90.58618052 18.8203125 97.23828125 C19.22121094 96.41585937 19.62210937 95.5934375 20.03515625 94.74609375 C27.20477548 80.66697754 35.89228105 71.1740525 51.1328125 65.92578125 C68.99749572 60.27300432 87.3289155 62.48876361 104.0703125 70.55078125 C111.53774581 74.49568098 118.94443764 78.66825576 125.3828125 84.17578125 C127.54260627 86.45359533 127.54260627 86.45359533 129.8203125 86.23828125 C129.8203125 86.89828125 129.8203125 87.55828125 129.8203125 88.23828125 C131.44133038 89.65089654 131.44133038 89.65089654 133.5078125 91.05078125 C136.9853573 93.49357638 139.84934539 96.19812131 142.8203125 99.23828125 C143.96930452 100.36797386 145.12050188 101.49542615 146.2734375 102.62109375 C153.01536489 109.25178861 159.43307392 115.83440905 165.18359375 123.359375 C165.72371094 123.97941406 166.26382813 124.59945312 166.8203125 125.23828125 C167.4803125 125.23828125 168.1403125 125.23828125 168.8203125 125.23828125 C169.0471875 125.75390625 169.2740625 126.26953125 169.5078125 126.80078125 C171.30248868 130.1337513 173.31996265 133.38531796 175.8203125 136.23828125 C176.4803125 136.23828125 177.1403125 136.23828125 177.8203125 136.23828125 C178.0265625 136.91890625 178.2328125 137.59953125 178.4453125 138.30078125 C179.94635458 141.50755297 181.75473869 143.58574315 184.09765625 146.19921875 C186.74341507 149.33093327 189.00136881 152.71402398 191.3046875 156.1015625 C192.78431455 158.31404779 192.78431455 158.31404779 194.8203125 160.23828125 C199.86703175 145.09812349 193.40800252 126.79808882 186.8203125 113.23828125 C178.84025943 97.9989541 168.7324647 85.54958027 156.8203125 73.23828125 C156.3361084 72.72491211 155.8519043 72.21154297 155.35302734 71.68261719 C154.21431452 70.49595417 153.02206617 69.36105644 151.8203125 68.23828125 C151.1603125 68.23828125 150.5003125 68.23828125 149.8203125 68.23828125 C149.8203125 67.57828125 149.8203125 66.91828125 149.8203125 66.23828125 C140.87064665 58.17233465 130.34974936 51.76568951 120.05517578 45.58642578 C118.6645876 44.74757632 117.28122288 43.89647667 115.90966797 43.02685547 C104.92527147 36.08918054 94.08843708 35.66025524 81.5625 37.79296875 C77.64203904 38.83452405 75.29453377 39.81032547 72.2578125 42.55078125 C69.8203125 44.23828125 69.8203125 44.23828125 67.9453125 44.1875 C63.5528303 43.28547241 59.36825078 41.75212477 55.1328125 40.30078125 C25.44481205 30.24275591 -13.59561663 28.49926377 -42.1796875 42.86328125 Z M241.1328125 196.73828125 C239.92044922 197.434375 239.92044922 197.434375 238.68359375 198.14453125 C238.06871094 198.50546875 237.45382812 198.86640625 236.8203125 199.23828125 C236.8203125 199.89828125 236.8203125 200.55828125 236.8203125 201.23828125 C239.08544473 203.5004056 239.08544473 203.5004056 241.8203125 205.23828125 C245.15602679 204.12637649 245.40448329 203.77507452 247.0078125 200.86328125 C247.35199219 200.25742187 247.69617188 199.6515625 248.05078125 199.02734375 C249.01787716 197.10355896 249.01787716 197.10355896 248.8203125 194.23828125 C245.37670618 194.23828125 244.07235858 195.03419657 241.1328125 196.73828125 Z M226.8203125 206.23828125 C225.8303125 207.72328125 225.8303125 207.72328125 224.8203125 209.23828125 C226.8003125 212.86828125 228.7803125 216.49828125 230.8203125 220.23828125 C234.29725847 217.06065359 234.29725847 217.06065359 236.8828125 213.17578125 C236.99365631 211.05338118 236.99365631 211.05338118 235.2578125 209.05078125 C232.404323 206.92895572 230.32442515 206.55683695 226.8203125 206.23828125 Z M257.6328125 235.73828125 C256.73175781 236.20234375 255.83070313 236.66640625 254.90234375 237.14453125 C254.21527344 237.50546875 253.52820313 237.86640625 252.8203125 238.23828125 C256.29767276 242.01862748 256.29767276 242.01862748 260.8203125 244.23828125 C261.66189786 242.97289756 262.49330998 241.70074346 263.3203125 240.42578125 C264.01640625 239.36423828 264.01640625 239.36423828 264.7265625 238.28125 C266.05630625 236.18370001 266.05630625 236.18370001 265.8203125 233.23828125 C262.33070041 233.23828125 260.70550955 234.14207499 257.6328125 235.73828125 Z M193.8203125 244.23828125 C193.8203125 245.55828125 193.8203125 246.87828125 193.8203125 248.23828125 C194.4803125 248.23828125 195.1403125 248.23828125 195.8203125 248.23828125 C195.4903125 246.91828125 195.1603125 245.59828125 194.8203125 244.23828125 C194.4903125 244.23828125 194.1603125 244.23828125 193.8203125 244.23828125 Z M243.8203125 245.23828125 C243.4903125 245.89828125 243.1603125 246.55828125 242.8203125 247.23828125 C243.55210116 249.31024756 244.37930253 251.34913645 245.2578125 253.36328125 C245.73089844 254.45898438 246.20398438 255.5546875 246.69140625 256.68359375 C247.06394531 257.52664063 247.43648437 258.3696875 247.8203125 259.23828125 C252.10102248 255.46234166 252.10102248 255.46234166 253.8203125 250.23828125 C252.9128125 249.41328125 252.0053125 248.58828125 251.0703125 247.73828125 C250.55984375 247.27421875 250.049375 246.81015625 249.5234375 246.33203125 C247.59670735 244.87803633 247.59670735 244.87803633 243.8203125 245.23828125 Z M209.8203125 283.23828125 C210.1503125 284.55828125 210.4803125 285.87828125 210.8203125 287.23828125 C211.8103125 286.90828125 212.8003125 286.57828125 213.8203125 286.23828125 C213.8203125 285.57828125 213.8203125 284.91828125 213.8203125 284.23828125 C212.5003125 283.90828125 211.1803125 283.57828125 209.8203125 283.23828125 Z " fill="#E9EAEA" transform="translate(365.1796875,97.76171875)"/>
<path d="M0 0 C0 0.66 0 1.32 0 2 C0.639375 2.268125 1.27875 2.53625 1.9375 2.8125 C4 4 4 4 5 7 C5.66 7 6.32 7 7 7 C7.99 4.525 7.99 4.525 9 2 C9.99 2 10.98 2 12 2 C12.20753906 1.4225 12.41507812 0.845 12.62890625 0.25 C17.1605185 -7.1864919 29.88095091 -11.98748783 38 -14 C47.5963529 -15.64822855 55.48625392 -15.10824765 64 -10 C68.81174185 -5.85966399 71.79606464 -1.25829464 73 5 C74.26971869 29.56758022 74.26971869 29.56758022 66.77734375 38.37890625 C58.73562367 45.71366193 48.38243487 45.51751385 38.07910156 45.14501953 C30.71846228 44.63160716 23.3491086 42.80946516 17 39 C19.0880386 43.86502394 21.25251342 48.46664714 24 53 C24 53.66 24 54.32 24 55 C24.66 55 25.32 55 26 55 C26 55.66 26 56.32 26 57 C27.98 57.99 27.98 57.99 30 59 C30 59.66 30 60.32 30 61 C30.556875 61.0825 31.11375 61.165 31.6875 61.25 C34.8451999 62.27411889 36.65368035 63.65368035 39 66 C40.01386845 69.24437905 40.31819728 71.09436158 39.1875 74.3125 C38 76 38 76 36 77 C31.76028942 77.23553948 28.63821698 77.32845886 25 75 C25 74.34 25 73.68 25 73 C24.40832031 72.88527344 23.81664062 72.77054688 23.20703125 72.65234375 C15.7032321 70.43440666 10.84211505 62.30584419 7 56 C6.67 55.01 6.34 54.02 6 53 C5.5875 54.11375 5.175 55.2275 4.75 56.375 C1.7237798 64.41161307 -1.21838741 71.82758112 -6 79 C-6.66 79 -7.32 79 -8 79 C-8.3403125 80.0828125 -8.3403125 80.0828125 -8.6875 81.1875 C-10.27941462 84.59874561 -12.15061505 86.55767005 -15 89 C-16.3242287 89.36784131 -17.65613912 89.71202981 -19 90 C-19.495 91.485 -19.495 91.485 -20 93 C-25.01252548 96.737519 -29.89248411 97.71254352 -36 97 C-38.5 95.9375 -38.5 95.9375 -40 94 C-40.5625 90.5625 -40.5625 90.5625 -40 87 C-37.0662199 83.88841504 -33.42426855 82.05646117 -29.70703125 80.015625 C-27.74261948 78.89987057 -27.74261948 78.89987057 -25.1875 76.75 C-23 75 -23 75 -21 75 C-20.34 73.35 -19.68 71.7 -19 70 C-18.34 70 -17.68 70 -17 70 C-16.88398438 69.28972656 -16.76796875 68.57945312 -16.6484375 67.84765625 C-15.95847959 64.81766038 -14.89687572 62.2703141 -13.625 59.4375 C-11.04584269 53.41946628 -9.39273988 47.38622188 -8 41 C-9.43666016 41.433125 -9.43666016 41.433125 -10.90234375 41.875 C-25.49287791 46.0360522 -39.4412727 47.37897429 -53.3125 40.3125 C-57.72616698 36.51469353 -59.79942739 31.63717137 -61 26 C-61.2721995 22.27443357 -61.27720262 18.54696262 -61.3125 14.8125 C-61.34150391 13.80896484 -61.37050781 12.80542969 -61.40039062 11.77148438 C-61.45811331 4.94688747 -60.32319736 -0.02500571 -57 -6 C-56.34 -6 -55.68 -6 -55 -6 C-54.67 -6.99 -54.34 -7.98 -54 -9 C-36.11953857 -20.65092214 -15.20968373 -12.78996132 0 0 Z M22 12 C18.88236033 15.91928247 18.88236033 15.91928247 17.9375 20.625 C20.10919817 25.47938415 24.17945362 27.25858524 28.875 29.25 C36.07491747 31.72497163 45.75516415 33.01659099 52.8203125 29.66015625 C55.28407459 27.78363494 56.75649564 26.14401105 57.4140625 23.0546875 C58.79219746 12.23506872 58.79219746 12.23506872 56 2 C53.60979184 -0.39020816 51.78089612 -0.76650434 48.4609375 -1.078125 C38.15741628 -0.75102909 29.32478331 5.18265649 22 12 Z M-40 -0.25 C-41.051875 -0.04117187 -41.051875 -0.04117187 -42.125 0.171875 C-44.09026845 0.86563199 -44.09026845 0.86563199 -45.23046875 2.5546875 C-46.35828449 6.13850807 -46.32847386 9.65628614 -46.3125 13.375 C-46.32861328 14.1175 -46.34472656 14.86 -46.36132812 15.625 C-46.3655978 20.45827727 -45.78674746 23.88362793 -43 28 C-37.45544457 32.53124012 -30.7814929 31.55820965 -24 31 C-18.10664481 29.80924888 -13.02462734 27.24507182 -8 24 C-6.57337781 21.14675563 -6.68966132 19.16545451 -7 16 C-13.12087894 7.04749949 -23.75316104 1.79125362 -34 -1 C-36.11911994 -1 -37.92796446 -0.69183111 -40 -0.25 Z " fill="#ECEDEC" transform="translate(315,485)"/>
<path d="M0 0 C2.1640625 -0.29296875 2.1640625 -0.29296875 4.625 -0.1875 C5.44226562 -0.16042969 6.25953125 -0.13335937 7.1015625 -0.10546875 C7.72804687 -0.07066406 8.35453125 -0.03585937 9 0 C9.495 1.485 9.495 1.485 10 3 C10.66 3 11.32 3 12 3 C12.4063012 7.97718971 11.84837176 10.92577295 9.15625 15.15625 C7.18157025 18.30506366 5.63756867 21.66637807 4 25 C3.34 25 2.68 25 2 25 C1.855625 25.598125 1.71125 26.19625 1.5625 26.8125 C1.1127561 28.56150404 0.57107659 30.28677023 0 32 C-0.66 32 -1.32 32 -2 32 C-2.09539063 32.68578125 -2.19078125 33.3715625 -2.2890625 34.078125 C-3.44749513 38.83915583 -5.93759105 42.91985366 -8.2109375 47.234375 C-9.90242044 50.61193103 -11.08064236 54.05360383 -12.22705078 57.64746094 C-13.57249695 61.74244493 -15.18598709 65.73465343 -16.75 69.75 C-22.61721619 85.04316865 -27.95626041 100.22809053 -31.17578125 116.3125 C-32 120 -32 120 -33.03515625 122.37109375 C-34.54841059 126.49425233 -34.75833811 130.70560517 -35.125 135.0625 C-35.2077417 136.0333252 -35.2904834 137.00415039 -35.37573242 138.00439453 C-37.30649593 162.44750337 -35.98170777 185.02743835 -22 206 C-22 206.66 -22 207.32 -22 208 C-21.01 208.33 -20.02 208.66 -19 209 C-19 209.66 -19 210.32 -19 211 C-18.34 211 -17.68 211 -17 211 C-16.360625 211.680625 -15.72125 212.36125 -15.0625 213.0625 C-5.93549676 222.48565969 3.9821859 225.12715213 16.5625 225.4375 C26.9610302 225.47538763 36.78979689 223.12045727 45.83203125 217.828125 C49 216 49 216 51 216 C51 215.34 51 214.68 51 214 C51.78375 213.7525 52.5675 213.505 53.375 213.25 C56.50786183 211.75816103 56.56122833 211.02674928 58 208 C59.12999515 206.39028993 60.2988924 204.80736832 61.5 203.25 C62.1084375 202.45078125 62.716875 201.6515625 63.34375 200.828125 C63.8903125 200.22484375 64.436875 199.6215625 65 199 C65.66 199 66.32 199 67 199 C67.12761719 198.41734375 67.25523438 197.8346875 67.38671875 197.234375 C67.98796834 195.04383509 68.7690552 193.2620609 69.8125 191.25 C70.91730509 189.11617067 72.00440619 186.9904561 73.01171875 184.80859375 C76.36966489 177.60161843 76.36966489 177.60161843 80 176 C83.25 176.3125 83.25 176.3125 86 177 C86 177.66 86 178.32 86 179 C86.66 179 87.32 179 88 179 C89.30608744 184.76171146 88.52226951 188.52346748 86.0625 193.75 C85.74619629 194.44593262 85.42989258 195.14186523 85.10400391 195.85888672 C82.14006095 202.14476476 78.38397234 207.61213483 74 213 C73.48953125 213.66128906 72.9790625 214.32257813 72.453125 215.00390625 C71.36278866 216.3860679 70.19116883 217.70372804 69 219 C68.34 219 67.68 219 67 219 C66.34 220.32 65.68 221.64 65 223 C64.34 223 63.68 223 63 223 C62.67 223.99 62.34 224.98 62 226 C61.01 226 60.02 226 59 226 C59 226.66 59 227.32 59 228 C52.83914785 232.6323074 46.05004421 235.59545465 38.75 237.875 C38.10160156 238.07778564 37.45320313 238.28057129 36.78515625 238.48950195 C19.84910441 243.45995834 2.15866589 241.77521179 -13.37890625 233.5 C-14.67634766 232.7575 -14.67634766 232.7575 -16 232 C-16.93714844 231.484375 -17.87429687 230.96875 -18.83984375 230.4375 C-19.55269531 229.963125 -20.26554687 229.48875 -21 229 C-21 228.34 -21 227.68 -21 227 C-21.58523437 226.91234375 -22.17046875 226.8246875 -22.7734375 226.734375 C-26.97545295 225.3484471 -29.42477208 221.45093514 -32 218 C-33.4375 215 -33.4375 215 -34 213 C-34.66 213 -35.32 213 -36 213 C-53.94404087 182.7623822 -53.92225151 149.49760149 -47 116 C-46.83935059 115.16549316 -46.67870117 114.33098633 -46.51318359 113.47119141 C-44.07861319 100.9393477 -40.16194675 88.86071148 -36.1875 76.75 C-35.94314209 75.99649261 -35.69878418 75.24298523 -35.44702148 74.46664429 C-31.04887952 60.9790457 -25.26712775 48.42387904 -18.86735535 35.78387451 C-18.07614249 34.15660093 -17.37644014 32.48564034 -16.6875 30.8125 C-14.24797323 24.99210732 -11.02703223 19.52818174 -8 14 C-7.4328125 12.95070313 -6.865625 11.90140625 -6.28125 10.8203125 C-2.26320423 3.39480634 -2.26320423 3.39480634 0 0 Z " fill="#EBEBEB" transform="translate(52,292)"/>
<path d="M0 0 C1.77734375 1.6875 1.77734375 1.6875 2.27734375 5.1875 C1.77734375 8.6875 1.77734375 8.6875 0.1796875 10.3515625 C-2.96404918 12.0997868 -5.58206812 12.25462673 -9.16015625 12.5625 C-20.40427616 13.79737958 -29.64951356 17.8660673 -38.98046875 24.234375 C-41.22265625 25.6875 -41.22265625 25.6875 -44.22265625 26.6875 C-44.71765625 28.1725 -44.71765625 28.1725 -45.22265625 29.6875 C-45.88265625 29.6875 -46.54265625 29.6875 -47.22265625 29.6875 C-47.88265625 31.3375 -48.54265625 32.9875 -49.22265625 34.6875 C-49.88265625 34.6875 -50.54265625 34.6875 -51.22265625 34.6875 C-51.22265625 35.6775 -51.22265625 36.6675 -51.22265625 37.6875 C-49.57444381 38.71763277 -47.90761923 39.71864628 -46.22265625 40.6875 C-46.22265625 41.3475 -46.22265625 42.0075 -46.22265625 42.6875 C-45.60390625 42.914375 -44.98515625 43.14125 -44.34765625 43.375 C-41.43664292 45.17297882 -41.06892998 46.3729279 -40.22265625 49.6875 C-39.52415733 56.32936688 -40.36895455 61.05551602 -44.59765625 66.4375 C-48.45326474 69.40335268 -52.31755681 70.14642753 -57.16796875 70 C-62.296696 69.21996544 -65.44071724 66.67521244 -68.59765625 62.6875 C-70.89686223 58.44281203 -71.34835388 55.2405198 -71.28515625 50.4375 C-71.27613281 49.54546875 -71.26710938 48.6534375 -71.2578125 47.734375 C-71.24621094 47.05890625 -71.23460937 46.3834375 -71.22265625 45.6875 C-86.05862377 42.43663662 -100.20736085 44.49349624 -114.22265625 49.6875 C-115.88086216 50.06065153 -117.54551302 50.41167493 -119.22265625 50.6875 C-119.22265625 51.3475 -119.22265625 52.0075 -119.22265625 52.6875 C-120.68359375 53.9765625 -120.68359375 53.9765625 -122.59765625 55.3125 C-123.22414062 55.75851563 -123.850625 56.20453125 -124.49609375 56.6640625 C-126.22265625 57.6875 -126.22265625 57.6875 -128.22265625 57.6875 C-128.55265625 58.6775 -128.88265625 59.6675 -129.22265625 60.6875 C-132.02135652 62.08685013 -134.12764417 61.94015405 -137.22265625 61.6875 C-139.09765625 60.5625 -139.09765625 60.5625 -140.22265625 58.6875 C-140.72265625 55.8125 -140.72265625 55.8125 -140.22265625 52.6875 C-138.22265625 50.25 -138.22265625 50.25 -135.22265625 47.6875 C-134.71089844 47.15253906 -134.19914063 46.61757812 -133.671875 46.06640625 C-121.92113492 34.36777588 -103.69298081 30.46901651 -87.72265625 30.3125 C-79.52086123 30.34252979 -72.08761328 31.23608482 -64.22265625 33.6875 C-63.89265625 32.3675 -63.56265625 31.0475 -63.22265625 29.6875 C-62.56265625 29.6875 -61.90265625 29.6875 -61.22265625 29.6875 C-61.11179687 29.09710938 -61.0009375 28.50671875 -60.88671875 27.8984375 C-59.07608589 21.87009516 -52.36116777 16.08414321 -47.22265625 12.6875 C-46.23265625 12.6875 -45.24265625 12.6875 -44.22265625 12.6875 C-44.22265625 12.0275 -44.22265625 11.3675 -44.22265625 10.6875 C-33.83255659 4.21467311 -11.959227 -7.06203914 0 0 Z M-58.22265625 49.6875 C-58.22265625 51.3375 -58.22265625 52.9875 -58.22265625 54.6875 C-56.24265625 55.6775 -56.24265625 55.6775 -54.22265625 56.6875 C-53.56265625 55.6975 -52.90265625 54.7075 -52.22265625 53.6875 C-54.93268918 51.01418287 -54.93268918 51.01418287 -58.22265625 49.6875 Z " fill="#E8E9E8" transform="translate(293.22265625,95.3125)"/>
<path d="M0 0 C3.625 0.375 3.625 0.375 5.5 2.625 C6.42828388 4.89413837 7.03401295 7.01105181 7.625 9.375 C8.615 9.87 8.615 9.87 9.625 10.375 C9.625 11.365 9.625 12.355 9.625 13.375 C10.285 13.375 10.945 13.375 11.625 13.375 C14.29345048 19.54579173 14.88846073 26.84216942 12.609375 33.21484375 C12.28453125 33.92769531 11.9596875 34.64054687 11.625 35.375 C10.965 35.375 10.305 35.375 9.625 35.375 C9.295 36.695 8.965 38.015 8.625 39.375 C7.965 39.375 7.305 39.375 6.625 39.375 C6.295 40.365 5.965 41.355 5.625 42.375 C4.635 42.375 3.645 42.375 2.625 42.375 C2.625 43.035 2.625 43.695 2.625 44.375 C-0.31602229 45.22104751 -2.94266268 45.51022521 -6 45.5 C-6.77601563 45.50257813 -7.55203125 45.50515625 -8.3515625 45.5078125 C-10.375 45.375 -10.375 45.375 -12.375 44.375 C-12.58125 44.931875 -12.7875 45.48875 -13 46.0625 C-16.42981955 51.83083287 -21.35769523 54.24062397 -27.62890625 55.94921875 C-32.28606366 56.67131001 -36.74723612 56.10523651 -41.375 55.375 C-41.4884375 55.97828125 -41.601875 56.5815625 -41.71875 57.203125 C-42.57558357 60.03883611 -44.1889011 61.57779429 -46.4765625 63.40234375 C-49.95055234 65.18222743 -53.58124058 64.75437594 -57.375 64.375 C-57.375 63.715 -57.375 63.055 -57.375 62.375 C-58.035 62.375 -58.695 62.375 -59.375 62.375 C-62.86845617 58.07536164 -62.8027403 54.67897972 -62.375 49.375 C-61.715 48.385 -61.055 47.395 -60.375 46.375 C-57.9375 46 -57.9375 46 -55.375 46.375 C-53.5625 47.875 -53.5625 47.875 -52.375 49.375 C-51.88 48.88 -51.88 48.88 -51.375 48.375 C-51.705 47.715 -52.035 47.055 -52.375 46.375 C-52.74990783 41.87610602 -52.79979767 39.31694265 -50.9375 35.1875 C-46.43336127 30.2439331 -40.98593068 27.38308734 -34.375 26.375 C-30.17252041 26.22491144 -26.47200369 26.49105742 -22.375 27.375 C-22.19324219 26.71113281 -22.01148438 26.04726563 -21.82421875 25.36328125 C-19.3377861 16.62888964 -17.20736057 12.72503821 -9.46875 7.86328125 C-6.93250761 6.06046716 -5.66253249 4.19147732 -4.375 1.375 C-3.375 0.375 -3.375 0.375 0 0 Z " fill="#4B5552" transform="translate(252.375,271.625)"/>
<path d="M0 0 C3.5625 0.375 3.5625 0.375 5.5 2.25 C6.5625 4.375 6.5625 4.375 6.5625 6.375 C8.1403125 6.7153125 8.1403125 6.7153125 9.75 7.0625 C14.67534143 8.47542623 17.18277515 11.58646779 20.25 15.5625 C22.16588084 19.66795895 22.82806726 23.92520165 23.5625 28.375 C24.573125 28.045 25.58375 27.715 26.625 27.375 C34.01402676 25.32085056 40.56904917 26.50145337 47.5625 29.375 C51.22179227 31.46493052 53.35873061 34.05390884 55.625 37.625 C56.87831834 42.63827336 56.09058753 45.90755764 53.5625 50.375 C47.95917347 55.45708685 41.45507937 56.66057639 34.125 56.3125 C26.93833364 55.45528321 21.1957809 52.61325501 16.5 47.0625 C15.860625 46.175625 15.22125 45.28875 14.5625 44.375 C13.5725 44.87 13.5725 44.87 12.5625 45.375 C6.35585808 45.90236173 0.78141668 46.13747482 -4.4375 42.375 C-8.92630999 37.9943541 -12.12198284 33.86424859 -12.703125 27.4375 C-12.69796875 26.426875 -12.6928125 25.41625 -12.6875 24.375 C-12.69265625 23.364375 -12.6978125 22.35375 -12.703125 21.3125 C-12.43113426 18.3046024 -11.70071118 16.10193207 -10.4375 13.375 C-9.7775 13.375 -9.1175 13.375 -8.4375 13.375 C-8.24414062 12.60414063 -8.05078125 11.83328125 -7.8515625 11.0390625 C-7.59117187 10.03617187 -7.33078125 9.03328125 -7.0625 8 C-6.80726563 7.00226563 -6.55203125 6.00453125 -6.2890625 4.9765625 C-4.9933988 1.01825045 -4.17484195 0.4554373 0 0 Z " fill="#F1F1F1" transform="translate(385.4375,271.625)"/>
<path d="M0 0 C2.45523681 3.68285521 2.76725544 7.09612599 3.375 11.375 C6.04649807 28.43044186 11.61060496 43.78108675 23 57 C23.50789063 57.65097656 24.01578125 58.30195313 24.5390625 58.97265625 C29.86154182 65.5667624 37.37335563 72.18667782 45 76 C46.37342831 76.0689472 47.75002102 76.08467708 49.125 76.0625 C50.40375 76.041875 51.6825 76.02125 53 76 C53 76.66 53 77.32 53 78 C52.30132812 78.04898438 51.60265625 78.09796875 50.8828125 78.1484375 C49.51769531 78.26058594 49.51769531 78.26058594 48.125 78.375 C47.22007813 78.44460938 46.31515625 78.51421875 45.3828125 78.5859375 C42.82058097 78.79568132 42.82058097 78.79568132 41 81 C40.72285104 83.13252093 40.72285104 83.13252093 40.8046875 85.5703125 C40.81113281 86.46621094 40.81757812 87.36210937 40.82421875 88.28515625 C40.84097656 89.22230469 40.85773438 90.15945313 40.875 91.125 C40.88402344 92.06988281 40.89304687 93.01476562 40.90234375 93.98828125 C40.92595478 96.32577292 40.95888484 98.66276123 41 101 C17.32196385 108.72280318 -9.28472956 111.24134694 -34 108 C-33.88602456 105.56152549 -33.75929026 103.12486826 -33.625 100.6875 C-33.5940625 99.99720703 -33.563125 99.30691406 -33.53125 98.59570312 C-33.31875081 94.93009211 -33.08066139 93.12099208 -31 90 C-31.33 91.98 -31.66 93.96 -32 96 C-9.91565381 96.50121596 11.30478023 95.39706241 32.734375 89.76953125 C36 89 36 89 40 89 C40 88.34 40 87.68 40 87 C39.26136719 86.73316406 38.52273437 86.46632813 37.76171875 86.19140625 C27.69064271 81.8467412 17.42772027 71.78455104 11 63 C11 62.34 11 61.68 11 61 C10.34 61 9.68 61 9 61 C7.46209464 59.03148114 6.0961799 57.09597923 4.75 55 C4.14937744 54.06679932 4.14937744 54.06679932 3.53662109 53.11474609 C-0.41278572 46.73005672 -2.9538153 40.01124061 -5.33886719 32.92285156 C-6.05599971 30.83712935 -6.82271447 28.77436681 -7.6015625 26.7109375 C-8.43926312 24.48798892 -9.2487848 22.25364559 -10 20 C-9.1796875 18.37890625 -9.1796875 18.37890625 -7.875 16.5625 C-4.42437309 11.39139245 -2.25895591 5.76754702 0 0 Z " fill="#49524F" transform="translate(50,324)"/>
<path d="M0 0 C1.61455078 0.41572266 1.61455078 0.41572266 3.26171875 0.83984375 C11.36351641 2.86599152 18.95536665 4.44512539 27.36328125 4.53125 C30.81227265 5.14440403 31.89643768 6.23264691 34 9 C35.01953125 11.59375 35.01953125 11.59375 35.8125 14.5 C39.51511793 26.40645766 46.62268362 37.76660502 56.359375 45.640625 C58 47 58 47 60.3125 49.4375 C69.13789556 57.85241204 80.32693795 63.21909062 91.03515625 68.8203125 C91.76089844 69.201875 92.48664063 69.5834375 93.234375 69.9765625 C93.88631836 70.31768066 94.53826172 70.65879883 95.20996094 71.01025391 C96.85711354 71.9209954 98.43394037 72.95596025 100 74 C100.92604949 77.57190516 101.45331917 79.92336696 100 83.375 C96.97684643 85.83131227 94.89771043 85.88188756 91 86 C87.50967264 84.86047879 84.31995986 83.24448878 81.0625 81.5625 C80.18787109 81.12873047 79.31324219 80.69496094 78.41210938 80.24804688 C76.26626164 79.18098598 74.12999381 78.09827308 72 77 C72 76.34 72 75.68 72 75 C70.824375 74.7215625 70.824375 74.7215625 69.625 74.4375 C64.56948069 72.4327251 60.1687768 69.49320428 56 66 C56 65.34 56 64.68 56 64 C55.42121094 63.72542969 54.84242188 63.45085937 54.24609375 63.16796875 C47.50854926 59.66444561 43.19379135 55.23077572 39 49 C38.01 48.34 37.02 47.68 36 47 C36 46.01 36 45.02 36 44 C35.01 43.67 34.02 43.34 33 43 C31 40 31 40 31 37 C30.34 37 29.68 37 29 37 C27.86988348 34.7941576 26.74584212 32.58554973 25.625 30.375 C25.30789062 29.75753906 24.99078125 29.14007813 24.6640625 28.50390625 C24.2 27.58544922 24.2 27.58544922 23.7265625 26.6484375 C23.41605957 26.03814697 23.10555664 25.42785645 22.78564453 24.79907227 C22 23 22 23 21.34375 19.67578125 C20.30948102 16.90749295 20.30948102 16.90749295 18.19677734 16.20703125 C15.7634296 15.6032801 13.35473257 15.18146323 10.875 14.8125 C4.56865741 13.75981083 -1.06892592 12.43132945 -7 10 C-6.57847656 9.52949219 -6.15695313 9.05898438 -5.72265625 8.57421875 C-5.17480469 7.95160156 -4.62695312 7.32898438 -4.0625 6.6875 C-3.51722656 6.07261719 -2.97195312 5.45773437 -2.41015625 4.82421875 C-0.79918441 2.94758042 -0.79918441 2.94758042 0 0 Z " fill="#E8E9E9" transform="translate(124,414)"/>
<path d="M0 0 C2.4375 1.625 2.4375 1.625 4 4 C4.77294468 13.34083994 -0.46108766 21.8185672 -5.765625 29.16015625 C-7.17686778 31.08735855 -7.17686778 31.08735855 -8 34 C-8.66 34 -9.32 34 -10 34 C-10.103125 34.5775 -10.20625 35.155 -10.3125 35.75 C-11.10896465 38.35661158 -12.19065277 39.9735311 -14 42 C-14.66 42 -15.32 42 -16 42 C-16 42.66 -16 43.32 -16 44 C-16.66 44 -17.32 44 -18 44 C-18.33 45.32 -18.66 46.64 -19 48 C-19.66 48 -20.32 48 -21 48 C-21 48.66 -21 49.32 -21 50 C-22.4609375 51.5078125 -22.4609375 51.5078125 -24.375 53.125 C-25.00148438 53.66382813 -25.62796875 54.20265625 -26.2734375 54.7578125 C-28 56 -28 56 -30 56 C-30.33 56.99 -30.66 57.98 -31 59 C-32.59375 60.09765625 -32.59375 60.09765625 -34.5 61.0625 C-37.33019068 62.42445528 -37.33019068 62.42445528 -39 65 C-40.64468595 66.03575378 -42.31540008 67.03051515 -44 68 C-44.78117187 68.52078125 -45.56234375 69.0415625 -46.3671875 69.578125 C-53.90301705 74.60201137 -61.7358612 78.36701624 -70 82 C-70.96808594 82.43828125 -71.93617188 82.8765625 -72.93359375 83.328125 C-77.72477213 85.39919754 -81.69237832 86.84921947 -87 86 C-89.4375 84.375 -89.4375 84.375 -91 82 C-91.5 79 -91.5 79 -91 76 C-87.54462989 71.28375668 -82.17263464 69.73156085 -76.9375 67.625 C-69.99507817 64.75475268 -63.34373261 61.8099479 -56.86328125 57.99609375 C-55 57 -55 57 -53 57 C-53 56.34 -53 55.68 -53 55 C-50 53 -50 53 -47 53 C-47 52.34 -47 51.68 -47 51 C-45.20703125 49.44921875 -45.20703125 49.44921875 -42.8125 47.6875 C-40.04487209 45.60742745 -37.44615441 43.57538868 -35.0625 41.0625 C-34.381875 40.381875 -33.70125 39.70125 -33 39 C-32.34 39 -31.68 39 -31 39 C-31 38.34 -31 37.68 -31 37 C-29.625 35.375 -29.625 35.375 -28 34 C-27.34 34 -26.68 34 -26 34 C-25.71125 33.4225 -25.4225 32.845 -25.125 32.25 C-24.08333333 30.16666667 -23.04166667 28.08333333 -22 26 C-21.34 26 -20.68 26 -20 26 C-19.9175 25.46375 -19.835 24.9275 -19.75 24.375 C-19 22 -19 22 -17.25 19.5625 C-14.3265521 15.43778078 -12.91118725 10.65901425 -11.24609375 5.92578125 C-8.75255521 0.07104655 -6.34693517 -0.77944818 0 0 Z " fill="#E7E7E7" transform="translate(489,419)"/>
<path d="M0 0 C5.82230503 1.7958003 8.79561521 1.21687832 14.35400391 -0.94995117 C15.78972427 -1.47567034 17.2273237 -1.99627877 18.66650391 -2.51245117 C19.39611328 -2.80506836 20.12572266 -3.09768555 20.87744141 -3.39916992 C27.92963977 -5.6132322 32.55428131 -3.27297501 38.84057617 -0.10473633 C40.45902479 0.74084942 42.06425603 1.61165332 43.66650391 2.48754883 C43.66650391 2.81754883 43.66650391 3.14754883 43.66650391 3.48754883 C42.48314453 3.52493164 41.29978516 3.56231445 40.08056641 3.60083008 C25.60823287 3.6396047 25.60823287 3.6396047 13.10400391 9.80004883 C10.66650391 11.48754883 10.66650391 11.48754883 8.79150391 11.43676758 C4.39902171 10.53473998 0.21444219 9.00139235 -4.02099609 7.55004883 C-32.91555431 -2.23916548 -71.28630748 -4.2796355 -99.39477539 9.13842773 C-100.35444214 9.62061768 -100.35444214 9.62061768 -101.33349609 10.11254883 C-102.01774658 10.45592285 -102.70199707 10.79929688 -103.40698242 11.15307617 C-109.58597687 14.38861706 -114.51107554 18.44592734 -119.33349609 23.48754883 C-120.26162109 24.37442383 -121.18974609 25.26129883 -122.14599609 26.17504883 C-127.98964415 35.02400159 -130.12240374 45.00969205 -130.33349609 55.48754883 C-129.67349609 55.81754883 -129.01349609 56.14754883 -128.33349609 56.48754883 C-133.28349609 56.98254883 -133.28349609 56.98254883 -138.33349609 57.48754883 C-138.90476598 40.34945223 -134.02154588 26.67386631 -122.45849609 13.98754883 C-112.64924467 4.57330082 -99.39940994 -1.28314688 -86.33349609 -4.51245117 C-85.67704102 -4.67471191 -85.02058594 -4.83697266 -84.34423828 -5.00415039 C-56.92951154 -11.33213281 -26.57189178 -8.42158012 0 0 Z " fill="#444C4A" transform="translate(424.33349609375,131.512451171875)"/>
<path d="M0 0 C2.75 2.25 2.75 2.25 5 5 C5.763125 5.721875 6.52625 6.44375 7.3125 7.1875 C9 9 9 9 9 11 C9.99 11.33 10.98 11.66 12 12 C14 15 14 15 14 18 C14.99 18.33 15.98 18.66 17 19 C18.44675051 21.64406127 19.7278741 24.27280034 21 27 C21.99732245 28.95969829 22.99748648 30.9179522 24 32.875 C30.8845907 46.73067123 36.00744195 61.5627191 36.25 77.1875 C36.27578125 78.19167969 36.3015625 79.19585937 36.328125 80.23046875 C35.94872097 83.43281943 35.3183705 84.7756175 33 87 C31.0625 87.49609375 31.0625 87.49609375 29 87.4375 C27.9790625 87.43556641 27.9790625 87.43556641 26.9375 87.43359375 C24.424856 86.87128834 23.62789318 85.97460245 22 84 C21.44750977 82.0456543 21.44750977 82.0456543 21.19140625 79.82421875 C21.08666992 79.0034082 20.98193359 78.18259766 20.87402344 77.33691406 C20.7712207 76.46260742 20.66841797 75.58830078 20.5625 74.6875 C18.74381286 61.2656849 15.03030305 49.47265357 9.390625 37.203125 C8 34 8 34 8 32 C7.34 32 6.68 32 6 32 C5.61908203 31.18595703 5.61908203 31.18595703 5.23046875 30.35546875 C4.88628906 29.64003906 4.54210937 28.92460937 4.1875 28.1875 C3.85105469 27.47980469 3.51460938 26.77210938 3.16796875 26.04296875 C1.97233561 23.95161045 0.74865296 22.64071142 -1 21 C-2.17725694 19.69699061 -3.34344298 18.38391712 -4.5 17.0625 C-5.0878125 16.39347656 -5.675625 15.72445313 -6.28125 15.03515625 C-10.93587935 9.52365195 -10.93587935 9.52365195 -11.375 5.9375 C-11 3 -11 3 -10 1.125 C-6.76095413 -0.6969633 -3.55259199 -0.7523136 0 0 Z " fill="#E4E5E5" transform="translate(461,244)"/>
<path d="M0 0 C3.625 0.375 3.625 0.375 5.5 2.625 C6.42828388 4.89413837 7.03401295 7.01105181 7.625 9.375 C8.285 9.705 8.945 10.035 9.625 10.375 C9.625 11.365 9.625 12.355 9.625 13.375 C10.285 13.375 10.945 13.375 11.625 13.375 C14.29345048 19.54579173 14.88846073 26.84216942 12.609375 33.21484375 C12.28453125 33.92769531 11.9596875 34.64054687 11.625 35.375 C10.965 35.375 10.305 35.375 9.625 35.375 C9.295 36.695 8.965 38.015 8.625 39.375 C7.965 39.375 7.305 39.375 6.625 39.375 C6.295 40.365 5.965 41.355 5.625 42.375 C4.635 42.375 3.645 42.375 2.625 42.375 C2.625 43.035 2.625 43.695 2.625 44.375 C-0.36980917 45.2473412 -3.01075911 45.48329766 -6.125 45.4375 C-6.92421875 45.42847656 -7.7234375 45.41945313 -8.546875 45.41015625 C-9.15015625 45.39855469 -9.7534375 45.38695312 -10.375 45.375 C-10.375 44.715 -10.375 44.055 -10.375 43.375 C-11.4578125 43.3440625 -11.4578125 43.3440625 -12.5625 43.3125 C-15.82629648 42.22456784 -17.52971717 40.81374538 -19.421875 37.93359375 C-21.78014633 31.60298835 -21.40025654 23.48951636 -19.78125 16.9921875 C-17.60938715 12.50769292 -13.52196685 10.29701336 -9.43359375 7.79296875 C-6.88772244 6.039361 -5.65239501 4.16930158 -4.375 1.375 C-3.375 0.375 -3.375 0.375 0 0 Z " fill="#F1F1F1" transform="translate(252.375,271.625)"/>
<path d="M0 0 C1.75 2.25 1.75 2.25 2.1875 4.875 C2.373125 5.65875 2.55875 6.4425 2.75 7.25 C5.14068734 8.35636395 5.14068734 8.35636395 7.75 9.25 C9.87577915 11.15587096 10.67789057 12.43171469 10.9296875 15.2890625 C10.93671177 17.27693181 10.84927008 19.26459849 10.75 21.25 C10.09 21.25 9.43 21.25 8.75 21.25 C8.255 22.735 8.255 22.735 7.75 24.25 C6.76 24.745 6.76 24.745 5.75 25.25 C4.84274566 27.36327425 4.84274566 27.36327425 4.125 29.8125 C3.86460938 30.63878906 3.60421875 31.46507812 3.3359375 32.31640625 C3.14257812 32.95449219 2.94921875 33.59257812 2.75 34.25 C1.76 34.25 0.77 34.25 -0.25 34.25 C-0.25 34.91 -0.25 35.57 -0.25 36.25 C-7.7646771 36.62573386 -7.7646771 36.62573386 -10.1875 34.75 C-12.71744823 32.91003765 -13.63402365 33.18415773 -16.6875 33.375 C-20.20700623 33.46211649 -21.139126 33.3156193 -24.3125 31.4375 C-26.80187824 27.34207127 -26.5711291 24.46555171 -26.23046875 19.7734375 C-26.02135212 16.99904109 -26.02135212 16.99904109 -28.25 14.25 C-28.84673942 10.32856954 -28.6182126 8.77262434 -26.3125 5.5 C-22.89347467 2.98806303 -20.46271705 2.38215495 -16.3359375 1.8046875 C-13.85093743 1.14388224 -12.94519296 0.13245265 -11.25 -1.75 C-7.00761951 -3.4469522 -3.57189421 -2.77813994 0 0 Z " fill="#EDEEEE" transform="translate(87.25,247.75)"/>
<path d="M0 0 C0.33 0.99 0.66 1.98 1 3 C2.5159375 2.505 2.5159375 2.505 4.0625 2 C11.45152676 -0.05414944 18.00654917 1.12645337 25 4 C28.65929227 6.08993052 30.79623061 8.67890884 33.0625 12.25 C34.31581834 17.26327336 33.52808753 20.53255764 31 25 C25.39667347 30.08208685 18.89257937 31.28557639 11.5625 30.9375 C4.55538064 30.11027063 -0.60894207 27.33412798 -5.625 22.4375 C-7 20 -7 20 -7 18 C-6 16 -6 16 -4.0625 13.6875 C-0.77347063 9.40179506 0 5.33451368 0 0 Z " fill="#4A5451" transform="translate(408,297)"/>
<path d="M0 0 C3.25 0.0625 3.25 0.0625 7 1 C7.93954225 2.71709446 8.87228881 4.44076937 9.69921875 6.21484375 C12.31974987 9.81118827 16.91884442 10.67753495 21 12 C21.66 12.33 22.32 12.66 23 13 C23.36521739 18.47826087 23.36521739 18.47826087 21.6875 20.875 C20 22 20 22 17 22 C16.90912109 22.93972656 16.90912109 22.93972656 16.81640625 23.8984375 C16.73261719 24.71570313 16.64882813 25.53296875 16.5625 26.375 C16.48128906 27.18710937 16.40007812 27.99921875 16.31640625 28.8359375 C16 31 16 31 15 33 C14.34 33 13.68 33 13 33 C12.67 33.99 12.34 34.98 12 36 C7.63324399 39.0567292 4.27518765 39.37273179 -0.81640625 38.57421875 C-4.17309438 37.69151185 -6.40539512 36.27818966 -9 34 C-10.70785579 30.99092076 -11.02232863 28.78043509 -11.375 25.3125 C-11.58125 24.219375 -11.7875 23.12625 -12 22 C-13.31647119 21.30062468 -14.65022151 20.63270867 -16 20 C-16.875 17.0625 -16.875 17.0625 -17 14 C-15 11 -15 11 -12.6171875 10.48828125 C-11.71226562 10.43027344 -10.80734375 10.37226563 -9.875 10.3125 C-8.96492188 10.24675781 -8.05484375 10.18101562 -7.1171875 10.11328125 C-6.06917969 10.05720703 -6.06917969 10.05720703 -5 10 C-4.731875 9.278125 -4.46375 8.55625 -4.1875 7.8125 C-3.01017502 5.02409874 -1.60854116 2.55904276 0 0 Z M-3 20 C-3.4070647 25.0285342 -3.4070647 25.0285342 -1.375 29.5 C0.97236953 31.28753852 0.97236953 31.28753852 4.125 30.9375 C7.29174932 30.23305313 7.29174932 30.23305313 9 27 C9.07905064 24.66800612 9.08798769 22.33167378 9 20 C4.57999187 17.47428107 1.42000813 17.47428107 -3 20 Z " fill="#E0E1E0" transform="translate(316,281)"/>
<path d="M0 0 C0.66 0.66 1.32 1.32 2 2 C1.45652174 8.08695652 1.45652174 8.08695652 0 11 C-0.66 11 -1.32 11 -2 11 C-2.66 12.65 -3.32 14.3 -4 16 C-4.66 16 -5.32 16 -6 16 C-6.12375 16.639375 -6.2475 17.27875 -6.375 17.9375 C-6.58125 18.618125 -6.7875 19.29875 -7 20 C-7.66 20.33 -8.32 20.66 -9 21 C-9.391875 21.845625 -9.78375 22.69125 -10.1875 23.5625 C-12 26 -12 26 -15.5 26.5625 C-19 26 -19 26 -21 24.3125 C-22.35106594 21.18816002 -22.23671157 20.20090054 -21 17 C-19.18868297 14.17244987 -17.29661103 11.454998 -15 9 C-14.34 9 -13.68 9 -13 9 C-12.7525 8.2575 -12.505 7.515 -12.25 6.75 C-9.4705724 0.63525929 -6.69661895 -0.74406877 0 0 Z " fill="#DFE0E0" transform="translate(436,210)"/>
<path d="M0 0 C1.61455078 0.41572266 1.61455078 0.41572266 3.26171875 0.83984375 C12.22701146 3.08502906 20.73241127 4.67764909 30 5 C30 5.33 30 5.66 30 6 C27.98177083 6.16276042 25.96354167 6.32552083 23.9453125 6.48828125 C21.60480784 6.87393036 21.60480784 6.87393036 20 10 C19.83300768 13.12521833 19.83300768 13.12521833 20 16 C10.41505417 15.77662203 1.98409901 13.05481911 -7 10 C-6.57847656 9.52949219 -6.15695313 9.05898438 -5.72265625 8.57421875 C-5.17480469 7.95160156 -4.62695312 7.32898438 -4.0625 6.6875 C-3.51722656 6.07261719 -2.97195312 5.45773437 -2.41015625 4.82421875 C-0.79918441 2.94758042 -0.79918441 2.94758042 0 0 Z " fill="#4B5451" transform="translate(124,414)"/>
<path d="M0 0 C2.4375 -0.375 2.4375 -0.375 5 0 C6.8125 1.375 6.8125 1.375 8 3 C8 3.66 8 4.32 8 5 C9.32 5 10.64 5 12 5 C12 4.34 12 3.68 12 3 C14.375 2.8125 14.375 2.8125 17 3 C19.37358694 6.56038041 19.73959381 7.80896839 19 12 C17.052477 14.68393013 14.93818803 16.46703233 12 18 C8.9244142 18.46717759 6.08103213 18.37726924 3 18 C3 17.34 3 16.68 3 16 C2.34 16 1.68 16 1 16 C-2.49345617 11.70036164 -2.4277403 8.30397972 -2 3 C-1.34 2.01 -0.68 1.02 0 0 Z " fill="#E3E5E4" transform="translate(192,318)"/>
<path d="M0 0 C0 0.66 0 1.32 0 2 C0.66 2 1.32 2 2 2 C2.36637589 8.35051546 2.36637589 8.35051546 0.625 11.4375 C-1 13 -1 13 -3 13 C-3.268125 13.7425 -3.53625 14.485 -3.8125 15.25 C-4.99451704 17.98730263 -5.89239668 19.89239668 -8 22 C-10.9375 23 -10.9375 23 -14 23 C-16.4375 21.5 -16.4375 21.5 -18 19 C-18.51633533 12.54580843 -14.99210548 8.93698317 -11.0078125 4.13671875 C-7.3778407 0.27369429 -5.15837774 -0.22926123 0 0 Z " fill="#DADBDA" transform="translate(446,222)"/>
<path d="M0 0 C2.9375 0.5625 2.9375 0.5625 5.375 1.9375 C7.81910884 6.04360285 6.97147357 10.01884151 5.9375 14.5625 C4.37513676 18.34368162 4.37513676 18.34368162 1.9375 19.5625 C-2.1736945 20.01929939 -4.23570461 20.20326643 -7.5625 17.625 C-9.65909044 13.34446119 -9.46712307 10.0785265 -8.0625 5.5625 C-5.56119315 2.06067041 -4.2434421 0.77940773 0 0 Z " fill="#DCDCDC" transform="translate(142.0625,445.4375)"/>
<path d="M0 0 C2.99344187 2.42711503 4.83052865 4.38029838 5.23828125 8.27734375 C5.26277344 9.15519531 5.28726562 10.03304688 5.3125 10.9375 C5.34988281 11.81277344 5.38726562 12.68804687 5.42578125 13.58984375 C5 16 5 16 3.171875 17.796875 C0.27116659 19.40374225 -1.73140878 19.34772247 -5 19 C-8 17 -8 17 -9.25 13.875 C-10.12915663 9.33269072 -9.99220661 6.50309153 -9 2 C-5.50875983 -0.32749345 -4.10777749 -0.50299316 0 0 Z " fill="#DFE0E0" transform="translate(495,446)"/>
<path d="M0 0 C0.33 0 0.66 0 1 0 C1.18175781 0.61488281 1.36351562 1.22976563 1.55078125 1.86328125 C1.92783203 3.07564453 1.92783203 3.07564453 2.3125 4.3125 C2.67794922 5.51326172 2.67794922 5.51326172 3.05078125 6.73828125 C4.04787062 9.11406211 5.16367262 10.24597301 7 12 C7 12.66 7 13.32 7 14 C5.1015625 15.5078125 5.1015625 15.5078125 2.625 17.125 C1.81289062 17.66382813 1.00078125 18.20265625 0.1640625 18.7578125 C-2 20 -2 20 -4 20 C-4.33 21.32 -4.66 22.64 -5 24 C-5.2475 23.21625 -5.495 22.4325 -5.75 21.625 C-7.15389099 18.67682892 -8.00675737 18.0975223 -11 17 C-11.5625 14.375 -11.5625 14.375 -11 11 C-7.99842256 8.30767599 -4.17107607 5 0 5 C0 3.35 0 1.7 0 0 Z " fill="#4B5451" transform="translate(128,390)"/>
<path d="M0 0 C0 0.66 0 1.32 0 2 C0.66 2 1.32 2 2 2 C2.93050292 5.63742049 3.30458505 7.37698512 1.625 10.8125 C0 13 0 13 -1 14 C-6.18974841 14.50223372 -6.18974841 14.50223372 -9 14 C-11.29116231 11.49404123 -11.8714205 9.75310852 -12.4375 6.4375 C-12 4 -12 4 -10.5 1.6875 C-6.87174359 -0.76157308 -4.32159775 -0.28810652 0 0 Z " fill="#D7D8D7" transform="translate(104,230)"/>
<path d="M0 0 C2.76314599 0.89802245 3.9089781 1.38409816 5.5 3.8125 C6 6.8125 6 6.8125 5.5 9.8125 C3.25 11.75 3.25 11.75 0.5 12.8125 C-1.88222923 12.54024523 -3.36246601 11.88126699 -5.5 10.8125 C-5.58096803 9.35507537 -5.63917774 7.89637193 -5.6875 6.4375 C-5.72230469 5.62539063 -5.75710937 4.81328125 -5.79296875 3.9765625 C-5.69628906 3.26242187 -5.59960938 2.54828125 -5.5 1.8125 C-2.5 -0.1875 -2.5 -0.1875 0 0 Z " fill="#CFD0D0" transform="translate(238.5,494.1875)"/>
<path d="M0 0 C0.88042969 0.0721875 1.76085937 0.144375 2.66796875 0.21875 C4.41013672 0.35796875 4.41013672 0.35796875 6.1875 0.5 C7.33605469 0.5928125 8.48460937 0.685625 9.66796875 0.78125 C12.46072426 0.9645962 15.20319812 1.04213637 18 1 C18 1.66 18 2.32 18 3 C16.7934375 3.4021875 16.7934375 3.4021875 15.5625 3.8125 C14.716875 4.204375 13.87125 4.59625 13 5 C12.67 5.99 12.34 6.98 12 8 C7.65535464 7.39174965 3.32448133 6.73832608 -1 6 C-0.649375 5.38125 -0.29875 4.7625 0.0625 4.125 C0.371875 3.42375 0.68125 2.7225 1 2 C0.67 1.34 0.34 0.68 0 0 Z " fill="#4B5350" transform="translate(420,132)"/>
<path d="M0 0 C0.66 0 1.32 0 2 0 C3.39935013 2.79870027 3.25265405 4.90498792 3 8 C1.625 9.625 1.625 9.625 0 11 C-1.17574711 13.09989652 -1.17574711 13.09989652 -2 15 C-3.32 14.34 -4.64 13.68 -6 13 C-5.25160674 7.76124715 -2.89140827 4.3371124 0 0 Z " fill="#47514D" transform="translate(296,156)"/>
<path d="M0 0 C0.66 1.32 1.32 2.64 2 4 C5.00259517 4.33218192 5.00259517 4.33218192 6.6875 2.5 C7.3371875 1.7575 7.3371875 1.7575 8 1 C7.690625 2.2375 7.38125 3.475 7.0625 4.75 C5.78031188 10.45164503 5.37429453 16.17873504 5 22 C4.67 22 4.34 22 4 22 C4 17.38 4 12.76 4 8 C3.67 8.99 3.34 9.98 3 11 C2.34 11 1.68 11 1 11 C0.67 11.99 0.34 12.98 0 14 C-2 12 -2 12 -2.01171875 9.94140625 C-1.90472656 9.15636719 -1.79773438 8.37132812 -1.6875 7.5625 C-1.58824219 6.78003906 -1.48898437 5.99757812 -1.38671875 5.19140625 C-1 3 -1 3 0 0 Z " fill="#3B423F" transform="translate(289,165)"/>
<path d="M0 0 C3.66172475 0.62678171 6.8818995 1.64451846 10.3125 3.0625 C11.19550781 3.42472656 12.07851563 3.78695312 12.98828125 4.16015625 C13.98408203 4.57587891 13.98408203 4.57587891 15 5 C15 5.33 15 5.66 15 6 C8.73 6 2.46 6 -4 6 C-3.01 5.01 -2.02 4.02 -1 3 C-0.67 2.01 -0.34 1.02 0 0 Z " fill="#525B58" transform="translate(452,128)"/>
<path d="M0 0 C0.66 0.33 1.32 0.66 2 1 C1.01 1.33 0.02 1.66 -1 2 C0.65 3.98 2.3 5.96 4 8 C1.69 8.66 -0.62 9.32 -3 10 C-3 9.34 -3 8.68 -3 8 C-3.99 7.67 -4.98 7.34 -6 7 C-5.34 6.34 -4.68 5.68 -4 5 C-4.99 4.34 -5.98 3.68 -7 3 C-4.69631264 1.93347808 -2.35981813 0.93578995 0 0 Z " fill="#3D4442" transform="translate(326,131)"/>
<path d="M0 0 C-1.04455146 2.75381747 -1.70732546 3.83388742 -4.3125 5.3125 C-7.38854836 7.24397223 -9.11029439 9.31343505 -11.3125 12.1875 C-12.00988281 13.08855469 -12.70726562 13.98960937 -13.42578125 14.91796875 C-14.20501953 15.94857422 -14.20501953 15.94857422 -15 17 C-15.66 16.67 -16.32 16.34 -17 16 C-6.14893617 0 -6.14893617 0 0 0 Z " fill="#999E9C" transform="translate(406,168)"/>
<path d="M0 0 C1.65 0 3.3 0 5 0 C4.67 2.31 4.34 4.62 4 7 C1.525 6.01 1.525 6.01 -1 5 C-0.67 3.35 -0.34 1.7 0 0 Z " fill="#4E5854" transform="translate(291,164)"/>
<path d="M0 0 C0.66 0.33 1.32 0.66 2 1 C-2.455 6.94 -2.455 6.94 -7 13 C-7.66 12.67 -8.32 12.34 -9 12 C-6.2520787 7.72545575 -3.30749011 3.85873847 0 0 Z " fill="#8D9290" transform="translate(275,131)"/>
<path d="M0 0 C0.33 1.98 0.66 3.96 1 6 C-1.375 5.75 -1.375 5.75 -4 5 C-5.3125 2.9375 -5.3125 2.9375 -6 1 C-4 0 -4 0 0 0 Z " fill="#565E5B" transform="translate(89,404)"/>
<path d="M0 0 C0.66 0 1.32 0 2 0 C6 4.47058824 6 4.47058824 6 7 C5.01 7.33 4.02 7.66 3 8 C3 7.01 3 6.02 3 5 C1.68 4.34 0.36 3.68 -1 3 C-0.67 2.01 -0.34 1.02 0 0 Z " fill="#525D59" transform="translate(129,397)"/>
<path d="M0 0 C0.33 0.99 0.66 1.98 1 3 C2.65 3 4.3 3 6 3 C4.515 5.475 4.515 5.475 3 8 C2.01 7.67 1.02 7.34 0 7 C0 4.69 0 2.38 0 0 Z " fill="#535A57" transform="translate(408,297)"/>
<path d="M0 0 C0.66 0 1.32 0 2 0 C0.55922954 3.36179774 -1.24750021 5.59156268 -4 8 C-4.66 8 -5.32 8 -6 8 C-5.1875 6.0625 -5.1875 6.0625 -4 4 C-3.01 3.67 -2.02 3.34 -1 3 C-0.67 2.01 -0.34 1.02 0 0 Z " fill="#ADAEAE" transform="translate(122,200)"/>
<path d="M0 0 C0.99 0.33 1.98 0.66 3 1 C0.69 3.64 -1.62 6.28 -4 9 C-4.33 7.68 -4.66 6.36 -5 5 C-2.5625 2.25 -2.5625 2.25 0 0 Z " fill="#A3A5A4" transform="translate(181,259)"/>
<path d="M0 0 C3.73764507 1.86882253 5.23916443 6.34287996 7 10 C6.34 10 5.68 10 5 10 C4.67 9.34 4.34 8.68 4 8 C3.01 7.67 2.02 7.34 1 7 C0.67 4.69 0.34 2.38 0 0 Z " fill="#8E9391" transform="translate(165,442)"/>
<path d="M0 0 C0.598125 0.226875 1.19625 0.45375 1.8125 0.6875 C0.636875 1.55375 0.636875 1.55375 -0.5625 2.4375 C-2.98797244 4.51647637 -4.04444417 5.77790333 -5.1875 8.6875 C-5.55003776 3.24943353 -5.55003776 3.24943353 -3.9375 0.75 C-2.1875 -0.3125 -2.1875 -0.3125 0 0 Z " fill="#8B8C8C" transform="translate(106.1875,280.3125)"/>
<path d="M0 0 C0.99 0.33 1.98 0.66 3 1 C1.02 2.98 -0.96 4.96 -3 7 C-3.66 6.67 -4.32 6.34 -5 6 C-3.35 4.02 -1.7 2.04 0 0 Z " fill="#AFB1B1" transform="translate(343,352)"/>
<path d="M0 0 C1.61949011 2.57213134 2.04408751 3.67669159 1.625 6.75 C1.41875 7.4925 1.2125 8.235 1 9 C0.01 8.67 -0.98 8.34 -2 8 C-1.34 5.36 -0.68 2.72 0 0 Z " fill="#414845" transform="translate(440,309)"/>
<path d="M0 0 C-0.99 0 -1.98 0 -3 0 C-3 0.99 -3 1.98 -3 3 C-5.31 2.67 -7.62 2.34 -10 2 C-3.75 -1.125 -3.75 -1.125 0 0 Z " fill="#8C9391" transform="translate(272,98)"/>
<path d="M0 0 C0.66 0 1.32 0 2 0 C1.34 2.31 0.68 4.62 0 7 C-0.66 7 -1.32 7 -2 7 C-2.33 7.66 -2.66 8.32 -3 9 C-2.44271087 5.65626525 -1.64826111 2.96687001 0 0 Z " fill="#8F9291" transform="translate(258,479)"/>
<path d="" fill="#111312" transform="translate(0,0)"/>
<path d="" fill="#131917" transform="translate(0,0)"/>
<path d="" fill="#131514" transform="translate(0,0)"/>
<path d="" fill="#141615" transform="translate(0,0)"/>
</svg>
